STARTFONT 2.1
FONT -FontForge-Gontserrat-Book-R-Normal--18-170-75-75-P-98-ISO10646-1
SIZE 17 75 75
FONTBOUNDINGBOX 36 28 -10 -7
COMMENT "Generated by fontforge, http://fontforge.sourceforge.net"
COMMENT "Gontserrat is a derivative work of Montserrat under the Open Font License. Copyright 2020 Ospiro Enterprises (ospiro.com)"
COMMENT ""
COMMENT "Copyright notice for Montserrat: Copyright 2011 The Montserrat Project Authors (julieta.ulanovsky@gmail.com)"
STARTPROPERTIES 40
FOUNDRY "FontForge"
FAMILY_NAME "Gontserrat"
WEIGHT_NAME "Book"
SLANT "R"
SETWIDTH_NAME "Normal"
ADD_STYLE_NAME ""
PIXEL_SIZE 18
POINT_SIZE 170
RESOLUTION_X 75
RESOLUTION_Y 75
SPACING "P"
AVERAGE_WIDTH 98
CHARSET_REGISTRY "ISO10646"
CHARSET_ENCODING "1"
FONTNAME_REGISTRY ""
CHARSET_COLLECTIONS "ISO8859-2 ISO8859-9 ISO8859-4 ISO10646-1"
FONT_NAME "Gontserrat-Regular"
FACE_NAME "Gontserrat Regular"
COPYRIGHT "Gontserrat is a derivative work of Montserrat under the Open Font License. Copyright 2020 Ospiro Enterprises (ospiro.com)"
FONT_VERSION "6.001"
FONT_ASCENT 14
FONT_DESCENT 4
UNDERLINE_POSITION -2
UNDERLINE_THICKNESS 1
X_HEIGHT 9
CAP_HEIGHT 12
DEFAULT_CHAR 3
RAW_ASCENT 800
RAW_DESCENT 200
NORM_SPACE 5
RELATIVE_WEIGHT 40
RELATIVE_SETWIDTH 50
SUPERSCRIPT_X 0
SUPERSCRIPT_Y 6
SUPERSCRIPT_SIZE 10
SUBSCRIPT_X 0
SUBSCRIPT_Y 1
SUBSCRIPT_SIZE 10
AVG_LOWERCASE_WIDTH 101
AVG_UPPERCASE_WIDTH 127
ENDPROPERTIES
CHARS 1597
STARTCHAR NULL
ENCODING 0
SWIDTH 0 0
DWIDTH 0 0
BBX 1 1 0 0
BITMAP
00
ENDCHAR
STARTCHAR nonmarkingreturn
ENCODING 13
SWIDTH 262 0
DWIDTH 5 0
BBX 1 1 0 0
BITMAP
00
ENDCHAR
STARTCHAR space
ENCODING 32
SWIDTH 262 0
DWIDTH 5 0
BBX 1 1 0 0
BITMAP
00
ENDCHAR
STARTCHAR exclam
ENCODING 33
SWIDTH 206 0
DWIDTH 4 0
BBX 2 13 1 0
BITMAP
C0
C0
C0
C0
C0
C0
C0
C0
C0
00
00
C0
C0
ENDCHAR
STARTCHAR quotedbl
ENCODING 34
SWIDTH 334 0
DWIDTH 6 0
BBX 4 4 1 9
BITMAP
90
90
90
90
ENDCHAR
STARTCHAR numbersign
ENCODING 35
SWIDTH 721 0
DWIDTH 13 0
BBX 11 13 1 0
BITMAP
1880
1080
1080
FFE0
FFE0
1180
3100
3100
FFE0
FFE0
2100
2100
2300
ENDCHAR
STARTCHAR dollar
ENCODING 36
SWIDTH 616 0
DWIDTH 11 0
BBX 9 18 1 -3
BITMAP
0800
0800
1C00
7F80
6100
C000
C000
7000
3C00
0F00
0380
0180
8180
C380
7F00
1C00
0800
0800
ENDCHAR
STARTCHAR percent
ENCODING 37
SWIDTH 955 0
DWIDTH 17 0
BBX 15 13 1 0
BITMAP
7818
FC30
8420
8440
84C0
84BC
CD7E
7A42
2642
0442
0842
183E
303C
ENDCHAR
STARTCHAR ampersand
ENCODING 38
SWIDTH 655 0
DWIDTH 12 0
BBX 11 13 1 0
BITMAP
1E00
3F00
2300
2300
2200
3C00
3800
4C40
C6C0
8380
C380
7EC0
3C60
ENDCHAR
STARTCHAR quotesingle
ENCODING 39
SWIDTH 193 0
DWIDTH 3 0
BBX 1 4 1 9
BITMAP
80
80
80
80
ENDCHAR
STARTCHAR parenleft
ENCODING 40
SWIDTH 304 0
DWIDTH 5 0
BBX 4 16 1 -2
BITMAP
30
20
60
60
40
40
C0
C0
C0
C0
40
40
60
60
20
30
ENDCHAR
STARTCHAR parenright
ENCODING 41
SWIDTH 304 0
DWIDTH 5 0
BBX 4 16 0 -2
BITMAP
C0
60
20
20
30
30
30
30
30
30
30
30
20
20
60
C0
ENDCHAR
STARTCHAR asterisk
ENCODING 42
SWIDTH 337 0
DWIDTH 6 0
BBX 6 6 0 8
BITMAP
10
5C
F8
78
DC
10
ENDCHAR
STARTCHAR plus
ENCODING 43
SWIDTH 494 0
DWIDTH 9 0
BBX 7 8 1 2
BITMAP
10
10
10
FE
FE
10
10
10
ENDCHAR
STARTCHAR comma
ENCODING 44
SWIDTH 204 0
DWIDTH 4 0
BBX 2 4 1 -2
BITMAP
C0
C0
80
80
ENDCHAR
STARTCHAR hyphen
ENCODING 45
SWIDTH 366 0
DWIDTH 7 0
BBX 4 2 1 5
BITMAP
F0
F0
ENDCHAR
STARTCHAR period
ENCODING 46
SWIDTH 207 0
DWIDTH 4 0
BBX 2 2 1 0
BITMAP
C0
C0
ENDCHAR
STARTCHAR slash
ENCODING 47
SWIDTH 323 0
DWIDTH 6 0
BBX 7 18 0 -2
BITMAP
06
06
04
0C
0C
08
18
18
10
30
30
20
20
60
40
40
C0
80
ENDCHAR
STARTCHAR zero
ENCODING 48
SWIDTH 711 0
DWIDTH 13 0
BBX 11 13 1 0
BITMAP
1F00
3F80
60C0
6040
C060
C060
C060
C060
C060
6040
60C0
3F80
1F00
ENDCHAR
STARTCHAR one
ENCODING 49
SWIDTH 369 0
DWIDTH 7 0
BBX 5 13 0 0
BITMAP
F8
F8
18
18
18
18
18
18
18
18
18
18
18
ENDCHAR
STARTCHAR two
ENCODING 50
SWIDTH 578 0
DWIDTH 10 0
BBX 9 13 1 0
BITMAP
3C00
FF00
8300
0300
0300
0600
0600
0C00
1800
3000
6000
FF80
FF80
ENDCHAR
STARTCHAR three
ENCODING 51
SWIDTH 585 0
DWIDTH 11 0
BBX 10 13 0 0
BITMAP
7F80
7F00
0200
0C00
1800
1F00
1F80
0180
00C0
00C0
4180
FF80
3E00
ENDCHAR
STARTCHAR four
ENCODING 52
SWIDTH 591 0
DWIDTH 11 0
BBX 10 13 0 0
BITMAP
0400
0C00
1800
1800
3000
3100
6100
4100
FFC0
FFC0
0100
0100
0100
ENDCHAR
STARTCHAR five
ENCODING 53
SWIDTH 615 0
DWIDTH 11 0
BBX 9 13 1 0
BITMAP
7F80
7F80
6000
6000
6000
7E00
7F80
0180
0180
0180
8180
FF00
3E00
ENDCHAR
STARTCHAR six
ENCODING 54
SWIDTH 637 0
DWIDTH 11 0
BBX 10 13 1 0
BITMAP
1F00
3F80
6000
4000
C400
DF00
E180
C080
C0C0
C080
6180
3F80
1E00
ENDCHAR
STARTCHAR seven
ENCODING 55
SWIDTH 567 0
DWIDTH 10 0
BBX 10 13 0 0
BITMAP
FFC0
FFC0
C180
0180
0300
0300
0600
0600
0C00
0C00
0800
1800
3000
ENDCHAR
STARTCHAR eight
ENCODING 56
SWIDTH 636 0
DWIDTH 11 0
BBX 9 13 1 0
BITMAP
3E00
7F00
4180
4180
6100
3E00
7F00
C180
C080
C080
C180
7F80
3E00
ENDCHAR
STARTCHAR nine
ENCODING 57
SWIDTH 634 0
DWIDTH 11 0
BBX 9 13 1 0
BITMAP
3E00
7F00
C180
C180
C180
C180
6380
7E80
0880
0180
0100
7F00
FC00
ENDCHAR
STARTCHAR colon
ENCODING 58
SWIDTH 207 0
DWIDTH 4 0
BBX 2 7 1 0
BITMAP
C0
C0
00
00
00
C0
C0
ENDCHAR
STARTCHAR semicolon
ENCODING 59
SWIDTH 206 0
DWIDTH 4 0
BBX 2 9 1 -2
BITMAP
C0
C0
00
00
00
C0
C0
80
80
ENDCHAR
STARTCHAR less
ENCODING 60
SWIDTH 494 0
DWIDTH 9 0
BBX 7 8 1 2
BITMAP
06
1C
70
C0
C0
70
0E
02
ENDCHAR
STARTCHAR equal
ENCODING 61
SWIDTH 494 0
DWIDTH 9 0
BBX 7 6 1 4
BITMAP
FE
FE
00
00
FE
FE
ENDCHAR
STARTCHAR greater
ENCODING 62
SWIDTH 494 0
DWIDTH 9 0
BBX 7 8 1 2
BITMAP
C0
70
1C
06
06
38
E0
80
ENDCHAR
STARTCHAR question
ENCODING 63
SWIDTH 432 0
DWIDTH 8 0
BBX 8 13 0 0
BITMAP
3C
7E
42
83
02
04
08
18
10
00
00
18
10
ENDCHAR
STARTCHAR at
ENCODING 64
SWIDTH 981 0
DWIDTH 18 0
BBX 16 17 1 -4
BITMAP
07E0
1FF8
300C
67B6
4FF2
CC33
9831
9831
9831
9831
8C73
C7DE
411C
6000
3820
0FF0
0100
ENDCHAR
STARTCHAR A
ENCODING 65
SWIDTH 726 0
DWIDTH 13 0
BBX 13 13 0 0
BITMAP
0700
0700
0580
0D80
0880
18C0
1840
3060
3FE0
3FF0
6030
4010
C018
ENDCHAR
STARTCHAR B
ENCODING 66
SWIDTH 712 0
DWIDTH 13 0
BBX 10 13 2 0
BITMAP
FF00
FF80
C180
C080
C180
FF00
FF00
C180
C0C0
C0C0
C0C0
FF80
FF00
ENDCHAR
STARTCHAR C
ENCODING 67
SWIDTH 699 0
DWIDTH 13 0
BBX 11 13 1 0
BITMAP
0F80
3FC0
6060
C000
C000
C000
8000
C000
C000
C000
6040
3FE0
0F80
ENDCHAR
STARTCHAR D
ENCODING 68
SWIDTH 783 0
DWIDTH 14 0
BBX 11 13 2 0
BITMAP
FF00
FF80
C0C0
C060
C060
C020
C020
C020
C060
C060
C0C0
FF80
FF00
ENDCHAR
STARTCHAR E
ENCODING 69
SWIDTH 653 0
DWIDTH 12 0
BBX 9 13 2 0
BITMAP
FF80
FF80
C000
C000
C000
FF00
FF00
C000
C000
C000
C000
FF80
FF80
ENDCHAR
STARTCHAR F
ENCODING 70
SWIDTH 568 0
DWIDTH 10 0
BBX 8 13 2 0
BITMAP
FF
FF
C0
C0
C0
C0
FE
FE
C0
C0
C0
C0
C0
ENDCHAR
STARTCHAR G
ENCODING 71
SWIDTH 751 0
DWIDTH 14 0
BBX 11 13 1 0
BITMAP
0700
3FC0
7060
6000
C000
C000
83E0
C3E0
C020
C020
6020
39E0
1F80
ENDCHAR
STARTCHAR H
ENCODING 72
SWIDTH 793 0
DWIDTH 14 0
BBX 10 13 2 0
BITMAP
C040
C040
C040
C040
C040
C040
FFC0
FFC0
C040
C040
C040
C040
C040
ENDCHAR
STARTCHAR I
ENCODING 73
SWIDTH 296 0
DWIDTH 5 0
BBX 2 13 2 0
BITMAP
C0
C0
C0
C0
C0
C0
C0
C0
C0
C0
C0
C0
C0
ENDCHAR
STARTCHAR J
ENCODING 74
SWIDTH 490 0
DWIDTH 9 0
BBX 7 13 0 0
BITMAP
7E
7E
02
02
02
02
02
02
02
02
86
FE
7C
ENDCHAR
STARTCHAR K
ENCODING 75
SWIDTH 707 0
DWIDTH 13 0
BBX 10 13 2 0
BITMAP
C0C0
C180
C300
C600
CC00
D800
FC00
EC00
E600
C300
C380
C180
C0C0
ENDCHAR
STARTCHAR L
ENCODING 76
SWIDTH 524 0
DWIDTH 9 0
BBX 7 13 2 0
BITMAP
C0
C0
C0
C0
C0
C0
C0
C0
C0
C0
C0
FE
FE
ENDCHAR
STARTCHAR M
ENCODING 77
SWIDTH 939 0
DWIDTH 17 0
BBX 13 13 2 0
BITMAP
C018
E038
E038
B078
B078
98D8
98D8
8D98
8D98
8718
8718
8218
8018
ENDCHAR
STARTCHAR N
ENCODING 78
SWIDTH 794 0
DWIDTH 14 0
BBX 10 13 2 0
BITMAP
C040
E040
E040
F040
D840
D840
CC40
C640
C740
C340
C1C0
C0C0
C0C0
ENDCHAR
STARTCHAR O
ENCODING 79
SWIDTH 812 0
DWIDTH 15 0
BBX 13 13 1 0
BITMAP
0F80
3FE0
6070
C030
C018
C018
8018
C018
C018
C030
6070
3FE0
0F80
ENDCHAR
STARTCHAR P
ENCODING 80
SWIDTH 671 0
DWIDTH 12 0
BBX 10 13 2 0
BITMAP
FE00
FF80
C180
C0C0
C0C0
C0C0
C180
FF80
FE00
C000
C000
C000
C000
ENDCHAR
STARTCHAR Q
ENCODING 81
SWIDTH 822 0
DWIDTH 15 0
BBX 14 16 1 -3
BITMAP
0F80
3FE0
6070
C030
C018
C018
8018
C018
C018
C030
6070
3FE0
0F80
0188
00FC
0020
ENDCHAR
STARTCHAR R
ENCODING 82
SWIDTH 723 0
DWIDTH 13 0
BBX 10 13 2 0
BITMAP
FE00
FF80
C180
C0C0
C0C0
C0C0
C180
FF80
FE00
C300
C300
C180
C0C0
ENDCHAR
STARTCHAR S
ENCODING 83
SWIDTH 616 0
DWIDTH 11 0
BBX 9 13 1 0
BITMAP
3F00
7F80
C080
C000
E000
7800
3F00
0780
0180
0180
8180
FF00
3E00
ENDCHAR
STARTCHAR T
ENCODING 84
SWIDTH 567 0
DWIDTH 10 0
BBX 10 13 0 0
BITMAP
FFC0
FFC0
0C00
0C00
0C00
0C00
0C00
0C00
0C00
0C00
0C00
0C00
0C00
ENDCHAR
STARTCHAR U
ENCODING 85
SWIDTH 762 0
DWIDTH 14 0
BBX 10 13 2 0
BITMAP
80C0
80C0
80C0
80C0
80C0
80C0
80C0
80C0
80C0
C0C0
C1C0
7F80
3E00
ENDCHAR
STARTCHAR V
ENCODING 86
SWIDTH 676 0
DWIDTH 12 0
BBX 12 13 0 0
BITMAP
C030
6020
6060
6060
3040
30C0
10C0
1980
1980
0D00
0F00
0700
0600
ENDCHAR
STARTCHAR W
ENCODING 87
SWIDTH 1046 0
DWIDTH 19 0
BBX 19 13 0 0
BITMAP
C0C060
40E040
60E0C0
60A0C0
21B080
313180
311180
131900
131B00
1A0B00
0E0A00
0E0E00
0C0600
ENDCHAR
STARTCHAR X
ENCODING 88
SWIDTH 677 0
DWIDTH 12 0
BBX 12 13 0 0
BITMAP
6060
30C0
30C0
1980
0F00
0F00
0600
0F00
1980
1980
30C0
6060
E070
ENDCHAR
STARTCHAR Y
ENCODING 89
SWIDTH 630 0
DWIDTH 11 0
BBX 11 13 0 0
BITMAP
C060
6040
60C0
3080
1180
1B00
0F00
0E00
0600
0600
0600
0600
0600
ENDCHAR
STARTCHAR Z
ENCODING 90
SWIDTH 662 0
DWIDTH 12 0
BBX 10 13 1 0
BITMAP
FFC0
FFC0
0180
0300
0700
0600
0C00
1800
3000
3000
6000
FFC0
FFC0
ENDCHAR
STARTCHAR bracketleft
ENCODING 91
SWIDTH 319 0
DWIDTH 6 0
BBX 3 17 2 -3
BITMAP
E0
E0
80
80
80
80
80
80
80
80
80
80
80
80
80
E0
E0
ENDCHAR
STARTCHAR backslash
ENCODING 92
SWIDTH 323 0
DWIDTH 6 0
BBX 7 18 -1 -2
BITMAP
80
C0
40
40
60
20
20
30
10
10
18
08
08
0C
04
04
06
06
ENDCHAR
STARTCHAR bracketright
ENCODING 93
SWIDTH 319 0
DWIDTH 6 0
BBX 4 17 0 -3
BITMAP
F0
F0
10
10
10
10
10
10
10
10
10
10
10
10
10
F0
F0
ENDCHAR
STARTCHAR asciicircum
ENCODING 94
SWIDTH 524 0
DWIDTH 9 0
BBX 8 8 1 2
BITMAP
10
18
28
24
44
46
C2
83
ENDCHAR
STARTCHAR underscore
ENCODING 95
SWIDTH 560 0
DWIDTH 10 0
BBX 10 2 0 -4
BITMAP
FFC0
FFC0
ENDCHAR
STARTCHAR grave
ENCODING 96
SWIDTH 330 0
DWIDTH 6 0
BBX 4 3 1 11
BITMAP
C0
60
30
ENDCHAR
STARTCHAR a
ENCODING 97
SWIDTH 581 0
DWIDTH 10 0
BBX 8 10 1 0
BITMAP
3E
FF
43
03
7F
FF
83
C3
FF
7B
ENDCHAR
STARTCHAR b
ENCODING 98
SWIDTH 678 0
DWIDTH 12 0
BBX 10 14 2 0
BITMAP
8000
8000
8000
8000
9E00
BF00
C180
C080
8080
80C0
C080
C180
BF00
9E00
ENDCHAR
STARTCHAR c
ENCODING 99
SWIDTH 562 0
DWIDTH 10 0
BBX 8 10 1 0
BITMAP
3E
7F
C1
C0
80
80
C0
C1
7F
3E
ENDCHAR
STARTCHAR d
ENCODING 100
SWIDTH 680 0
DWIDTH 12 0
BBX 10 14 1 0
BITMAP
00C0
00C0
00C0
00C0
3CC0
7EC0
C1C0
C0C0
80C0
80C0
C0C0
C1C0
7EC0
3CC0
ENDCHAR
STARTCHAR e
ENCODING 101
SWIDTH 588 0
DWIDTH 11 0
BBX 9 10 1 0
BITMAP
3E00
7F00
C100
C180
FF80
FF80
C000
C100
7F00
3E00
ENDCHAR
STARTCHAR f
ENCODING 102
SWIDTH 342 0
DWIDTH 6 0
BBX 6 14 1 0
BITMAP
3C
78
60
60
F8
F8
60
60
60
60
60
60
60
60
ENDCHAR
STARTCHAR g
ENCODING 103
SWIDTH 638 0
DWIDTH 11 0
BBX 9 14 1 -4
BITMAP
3D80
7F80
C180
C180
8180
8180
C180
C180
7F80
3D80
0180
4180
FF00
3E00
ENDCHAR
STARTCHAR h
ENCODING 104
SWIDTH 665 0
DWIDTH 12 0
BBX 9 14 2 0
BITMAP
8000
8000
8000
8000
9E00
BF00
C300
C180
8180
8180
8180
8180
8180
8180
ENDCHAR
STARTCHAR i
ENCODING 105
SWIDTH 274 0
DWIDTH 5 0
BBX 3 14 1 0
BITMAP
E0
40
00
00
40
40
40
40
40
40
40
40
40
40
ENDCHAR
STARTCHAR j
ENCODING 106
SWIDTH 263 0
DWIDTH 5 0
BBX 4 18 -1 -4
BITMAP
30
10
00
00
10
10
10
10
10
10
10
10
10
10
10
30
B0
E0
ENDCHAR
STARTCHAR k
ENCODING 107
SWIDTH 582 0
DWIDTH 10 0
BBX 8 14 2 0
BITMAP
80
80
80
80
83
86
8C
98
B8
F8
CC
86
86
83
ENDCHAR
STARTCHAR l
ENCODING 108
SWIDTH 285 0
DWIDTH 5 0
BBX 1 14 2 0
BITMAP
80
80
80
80
80
80
80
80
80
80
80
80
80
80
ENDCHAR
STARTCHAR m
ENCODING 109
SWIDTH 1044 0
DWIDTH 19 0
BBX 15 10 2 0
BITMAP
9E3C
BF7E
C386
C182
8102
8102
8102
8102
8102
8102
ENDCHAR
STARTCHAR n
ENCODING 110
SWIDTH 659 0
DWIDTH 12 0
BBX 9 10 2 0
BITMAP
9E00
BF00
C300
C180
8180
8180
8180
8180
8180
8180
ENDCHAR
STARTCHAR o
ENCODING 111
SWIDTH 621 0
DWIDTH 11 0
BBX 9 10 1 0
BITMAP
3E00
7F00
C180
C080
8080
8080
C080
C180
7F00
3E00
ENDCHAR
STARTCHAR p
ENCODING 112
SWIDTH 678 0
DWIDTH 12 0
BBX 10 14 2 -4
BITMAP
9E00
BF00
C180
C080
8080
80C0
C080
C180
BF00
9E00
8000
8000
8000
8000
ENDCHAR
STARTCHAR q
ENCODING 113
SWIDTH 680 0
DWIDTH 12 0
BBX 10 14 1 -4
BITMAP
3CC0
7EC0
C1C0
C0C0
80C0
80C0
C0C0
C1C0
7EC0
3CC0
00C0
00C0
00C0
00C0
ENDCHAR
STARTCHAR r
ENCODING 114
SWIDTH 382 0
DWIDTH 7 0
BBX 5 10 2 0
BITMAP
98
B8
C0
C0
80
80
80
80
80
80
ENDCHAR
STARTCHAR s
ENCODING 115
SWIDTH 460 0
DWIDTH 8 0
BBX 8 10 0 0
BITMAP
3E
7E
60
60
3C
0E
03
43
FE
3C
ENDCHAR
STARTCHAR t
ENCODING 116
SWIDTH 397 0
DWIDTH 7 0
BBX 6 13 1 0
BITMAP
60
60
60
FC
FC
60
60
60
60
60
60
7C
38
ENDCHAR
STARTCHAR u
ENCODING 117
SWIDTH 649 0
DWIDTH 12 0
BBX 9 10 1 0
BITMAP
C180
C180
C180
C180
C180
C180
C180
C180
7F80
3D80
ENDCHAR
STARTCHAR v
ENCODING 118
SWIDTH 510 0
DWIDTH 9 0
BBX 9 10 0 0
BITMAP
C180
4180
6100
6300
2300
3200
3600
1400
1C00
0C00
ENDCHAR
STARTCHAR w
ENCODING 119
SWIDTH 876 0
DWIDTH 16 0
BBX 16 10 0 0
BITMAP
C183
4182
63C6
63C6
2244
366C
366C
1428
1C38
1838
ENDCHAR
STARTCHAR x
ENCODING 120
SWIDTH 540 0
DWIDTH 10 0
BBX 9 10 0 0
BITMAP
6180
2300
3300
1E00
1C00
1C00
1E00
3300
6300
E180
ENDCHAR
STARTCHAR y
ENCODING 121
SWIDTH 514 0
DWIDTH 9 0
BBX 9 14 0 -4
BITMAP
C180
4180
6100
6300
2300
3200
3600
1600
1C00
0C00
0800
1800
F800
F000
ENDCHAR
STARTCHAR z
ENCODING 122
SWIDTH 531 0
DWIDTH 10 0
BBX 8 10 1 0
BITMAP
FF
FF
06
0C
18
30
30
60
FF
FF
ENDCHAR
STARTCHAR braceleft
ENCODING 123
SWIDTH 339 0
DWIDTH 6 0
BBX 5 17 1 -3
BITMAP
38
78
60
60
60
60
60
C0
C0
60
60
60
60
60
60
38
08
ENDCHAR
STARTCHAR bar
ENCODING 124
SWIDTH 258 0
DWIDTH 5 0
BBX 1 18 2 -2
BITMAP
80
80
80
80
80
80
80
80
80
80
80
80
80
80
80
80
80
80
ENDCHAR
STARTCHAR braceright
ENCODING 125
SWIDTH 339 0
DWIDTH 6 0
BBX 4 17 1 -3
BITMAP
C0
E0
60
60
60
60
60
30
30
60
60
60
60
60
60
E0
80
ENDCHAR
STARTCHAR asciitilde
ENCODING 126
SWIDTH 494 0
DWIDTH 9 0
BBX 7 3 1 5
BITMAP
46
76
DC
ENDCHAR
STARTCHAR uni00A0
ENCODING 160
SWIDTH 262 0
DWIDTH 5 0
BBX 1 1 0 0
BITMAP
00
ENDCHAR
STARTCHAR exclamdown
ENCODING 161
SWIDTH 206 0
DWIDTH 4 0
BBX 2 13 1 -3
BITMAP
C0
C0
00
00
C0
C0
C0
C0
C0
C0
C0
C0
C0
ENDCHAR
STARTCHAR cent
ENCODING 162
SWIDTH 600 0
DWIDTH 11 0
BBX 8 15 1 -2
BITMAP
08
08
08
3F
63
C0
80
80
80
C0
61
7F
08
08
08
ENDCHAR
STARTCHAR sterling
ENCODING 163
SWIDTH 544 0
DWIDTH 10 0
BBX 8 13 1 0
BITMAP
1E
3F
61
60
60
FC
FC
60
60
60
60
FF
FF
ENDCHAR
STARTCHAR currency
ENCODING 164
SWIDTH 714 0
DWIDTH 13 0
BBX 11 12 1 0
BITMAP
8020
DF60
7FC0
60C0
4040
4040
4040
4040
60C0
7FC0
DF60
8020
ENDCHAR
STARTCHAR yen
ENCODING 165
SWIDTH 629 0
DWIDTH 11 0
BBX 11 13 0 0
BITMAP
C060
6040
20C0
3180
1980
1B00
0E00
7FC0
0600
7FC0
7FC0
0600
0600
ENDCHAR
STARTCHAR brokenbar
ENCODING 166
SWIDTH 258 0
DWIDTH 5 0
BBX 1 18 2 -2
BITMAP
80
80
80
80
80
80
80
00
00
00
00
80
80
80
80
80
80
80
ENDCHAR
STARTCHAR section
ENCODING 167
SWIDTH 484 0
DWIDTH 9 0
BBX 8 15 0 -2
BITMAP
3E
7F
60
60
30
3E
63
41
63
3E
0E
03
03
C3
7E
ENDCHAR
STARTCHAR dieresis
ENCODING 168
SWIDTH 350 0
DWIDTH 6 0
BBX 5 2 1 12
BITMAP
90
D8
ENDCHAR
STARTCHAR copyright
ENCODING 169
SWIDTH 752 0
DWIDTH 14 0
BBX 12 13 1 0
BITMAP
1F00
3FC0
6060
CE20
9F10
9010
9010
9010
9F10
CE20
6060
3FC0
1F00
ENDCHAR
STARTCHAR ordfeminine
ENCODING 170
SWIDTH 382 0
DWIDTH 7 0
BBX 5 8 1 6
BITMAP
70
F8
08
F8
88
98
E8
48
ENDCHAR
STARTCHAR guillemotleft
ENCODING 171
SWIDTH 439 0
DWIDTH 8 0
BBX 6 6 1 2
BITMAP
6C
48
90
90
48
6C
ENDCHAR
STARTCHAR logicalnot
ENCODING 172
SWIDTH 555 0
DWIDTH 10 0
BBX 8 5 1 3
BITMAP
FF
FF
03
03
03
ENDCHAR
STARTCHAR uni00AD
ENCODING 173
SWIDTH 366 0
DWIDTH 7 0
BBX 4 2 1 5
BITMAP
F0
F0
ENDCHAR
STARTCHAR registered
ENCODING 174
SWIDTH 752 0
DWIDTH 14 0
BBX 12 13 1 0
BITMAP
1F00
3FC0
6060
DF20
9110
9110
9110
9E10
9110
D120
6060
3FC0
1F00
ENDCHAR
STARTCHAR macron
ENCODING 175
SWIDTH 350 0
DWIDTH 6 0
BBX 5 2 1 12
BITMAP
F8
F8
ENDCHAR
STARTCHAR degree
ENCODING 176
SWIDTH 336 0
DWIDTH 6 0
BBX 5 5 1 11
BITMAP
20
70
88
70
70
ENDCHAR
STARTCHAR plusminus
ENCODING 177
SWIDTH 494 0
DWIDTH 9 0
BBX 7 11 1 1
BITMAP
10
10
10
FE
FE
10
10
10
00
FE
FE
ENDCHAR
STARTCHAR uni00B2
ENCODING 178
SWIDTH 351 0
DWIDTH 6 0
BBX 6 8 0 6
BITMAP
78
F8
08
08
10
20
7C
FC
ENDCHAR
STARTCHAR uni00B3
ENCODING 179
SWIDTH 348 0
DWIDTH 6 0
BBX 6 8 0 6
BITMAP
78
78
10
38
3C
0C
F8
78
ENDCHAR
STARTCHAR acute
ENCODING 180
SWIDTH 350 0
DWIDTH 6 0
BBX 4 3 1 11
BITMAP
30
60
C0
ENDCHAR
STARTCHAR uni00B5
ENCODING 181
SWIDTH 672 0
DWIDTH 12 0
BBX 8 14 2 -4
BITMAP
81
81
81
81
81
81
81
C3
FD
F9
80
80
80
80
ENDCHAR
STARTCHAR paragraph
ENCODING 182
SWIDTH 602 0
DWIDTH 11 0
BBX 9 16 0 -2
BITMAP
3F80
7F80
F880
F880
F880
F880
7880
0880
0880
0880
0880
0880
0880
0880
0880
0880
ENDCHAR
STARTCHAR periodcentered
ENCODING 183
SWIDTH 214 0
DWIDTH 4 0
BBX 2 2 1 5
BITMAP
C0
C0
ENDCHAR
STARTCHAR cedilla
ENCODING 184
SWIDTH 285 0
DWIDTH 5 0
BBX 4 4 1 -4
BITMAP
60
70
F0
E0
ENDCHAR
STARTCHAR uni00B9
ENCODING 185
SWIDTH 232 0
DWIDTH 4 0
BBX 3 8 0 6
BITMAP
E0
E0
20
20
20
20
20
20
ENDCHAR
STARTCHAR ordmasculine
ENCODING 186
SWIDTH 405 0
DWIDTH 7 0
BBX 6 6 1 8
BITMAP
70
F8
8C
8C
F8
20
ENDCHAR
STARTCHAR guillemotright
ENCODING 187
SWIDTH 449 0
DWIDTH 8 0
BBX 6 6 1 2
BITMAP
D8
48
6C
6C
48
D8
ENDCHAR
STARTCHAR onequarter
ENCODING 188
SWIDTH 733 0
DWIDTH 13 0
BBX 13 13 0 0
BITMAP
E060
E040
2080
2180
2100
2220
2640
2C40
0890
1190
31F8
2010
C010
ENDCHAR
STARTCHAR onehalf
ENCODING 189
SWIDTH 760 0
DWIDTH 14 0
BBX 13 13 0 0
BITMAP
E060
E040
2080
2180
2100
2270
26F8
2C08
0810
1020
3040
20F8
C0F8
ENDCHAR
STARTCHAR threequarters
ENCODING 190
SWIDTH 818 0
DWIDTH 15 0
BBX 15 13 0 0
BITMAP
7818
7830
1020
3840
0CC0
0D90
F910
7A20
0628
0448
087E
1008
3008
ENDCHAR
STARTCHAR questiondown
ENCODING 191
SWIDTH 432 0
DWIDTH 8 0
BBX 7 13 0 -3
BITMAP
18
18
00
00
18
18
30
60
40
C0
C2
7E
3C
ENDCHAR
STARTCHAR Agrave
ENCODING 192
SWIDTH 726 0
DWIDTH 13 0
BBX 13 17 0 0
BITMAP
0C00
0600
0200
0000
0700
0700
0580
0D80
0880
18C0
1840
3060
3FE0
3FF0
6030
4010
C018
ENDCHAR
STARTCHAR Aacute
ENCODING 193
SWIDTH 726 0
DWIDTH 13 0
BBX 13 17 0 0
BITMAP
0180
0300
0200
0000
0700
0700
0580
0D80
0880
18C0
1840
3060
3FE0
3FF0
6030
4010
C018
ENDCHAR
STARTCHAR Acircumflex
ENCODING 194
SWIDTH 726 0
DWIDTH 13 0
BBX 13 17 0 0
BITMAP
0200
0700
0D80
0000
0700
0700
0580
0D80
0880
18C0
1840
3060
3FE0
3FF0
6030
4010
C018
ENDCHAR
STARTCHAR Atilde
ENCODING 195
SWIDTH 726 0
DWIDTH 13 0
BBX 13 17 0 0
BITMAP
0E80
0F80
0000
0000
0700
0700
0580
0D80
0880
18C0
1840
3060
3FE0
3FF0
6030
4010
C018
ENDCHAR
STARTCHAR Adieresis
ENCODING 196
SWIDTH 726 0
DWIDTH 13 0
BBX 13 16 0 0
BITMAP
0880
0D80
0000
0700
0700
0580
0D80
0880
18C0
1840
3060
3FE0
3FF0
6030
4010
C018
ENDCHAR
STARTCHAR Aring
ENCODING 197
SWIDTH 726 0
DWIDTH 13 0
BBX 13 18 0 0
BITMAP
0700
0700
0700
0700
0000
0700
0700
0580
0D80
0880
18C0
1840
3060
3FE0
3FF0
6030
4010
C018
ENDCHAR
STARTCHAR AE
ENCODING 198
SWIDTH 1037 0
DWIDTH 19 0
BBX 18 13 0 0
BITMAP
01FF80
01FF80
034000
064000
064000
0C7F80
087F80
184000
1FC000
3FC000
604000
607FC0
C07FC0
ENDCHAR
STARTCHAR Ccedilla
ENCODING 199
SWIDTH 699 0
DWIDTH 13 0
BBX 11 17 1 -4
BITMAP
0F80
3FC0
6060
C000
C000
C000
8000
8000
C000
C000
6040
70E0
1FC0
0600
0600
0700
0E00
ENDCHAR
STARTCHAR Egrave
ENCODING 200
SWIDTH 653 0
DWIDTH 12 0
BBX 9 17 2 0
BITMAP
3000
3000
0800
0000
FF80
FF80
C000
C000
C000
FF00
FF00
C000
C000
C000
C000
FF80
FF80
ENDCHAR
STARTCHAR Eacute
ENCODING 201
SWIDTH 653 0
DWIDTH 12 0
BBX 9 17 2 0
BITMAP
0600
0C00
1800
0000
FF80
FF80
C000
C000
C000
FF00
FF00
C000
C000
C000
C000
FF80
FF80
ENDCHAR
STARTCHAR Ecircumflex
ENCODING 202
SWIDTH 653 0
DWIDTH 12 0
BBX 9 17 2 0
BITMAP
1800
1C00
3600
0000
FF80
FF80
C000
C000
C000
FF00
FF00
C000
C000
C000
C000
FF80
FF80
ENDCHAR
STARTCHAR Edieresis
ENCODING 203
SWIDTH 653 0
DWIDTH 12 0
BBX 9 16 2 0
BITMAP
2400
3600
0000
FF80
FF80
C000
C000
C000
FF00
FF00
C000
C000
C000
C000
FF80
FF80
ENDCHAR
STARTCHAR Igrave
ENCODING 204
SWIDTH 296 0
DWIDTH 5 0
BBX 4 17 0 0
BITMAP
C0
60
30
00
30
30
30
30
30
30
30
30
30
30
30
30
30
ENDCHAR
STARTCHAR Iacute
ENCODING 205
SWIDTH 296 0
DWIDTH 5 0
BBX 3 17 2 0
BITMAP
60
60
80
00
C0
C0
C0
C0
C0
C0
C0
C0
C0
C0
C0
C0
C0
ENDCHAR
STARTCHAR Icircumflex
ENCODING 206
SWIDTH 296 0
DWIDTH 5 0
BBX 5 17 0 0
BITMAP
30
70
D8
00
30
30
30
30
30
30
30
30
30
30
30
30
30
ENDCHAR
STARTCHAR Idieresis
ENCODING 207
SWIDTH 296 0
DWIDTH 5 0
BBX 5 16 0 0
BITMAP
48
D8
00
30
30
30
30
30
30
30
30
30
30
30
30
30
ENDCHAR
STARTCHAR Eth
ENCODING 208
SWIDTH 783 0
DWIDTH 14 0
BBX 13 13 0 0
BITMAP
3FC0
3FE0
3030
3018
3018
FE08
FE08
3008
3018
3018
3030
3FE0
3FC0
ENDCHAR
STARTCHAR Ntilde
ENCODING 209
SWIDTH 794 0
DWIDTH 14 0
BBX 10 17 2 0
BITMAP
1D00
1F00
0000
0000
C040
E040
E040
F040
D840
D840
CC40
C640
C740
C340
C1C0
C0C0
C0C0
ENDCHAR
STARTCHAR Ograve
ENCODING 210
SWIDTH 812 0
DWIDTH 15 0
BBX 13 17 1 0
BITMAP
0C00
0C00
0200
0000
0F80
3FE0
6070
C030
C018
C018
8018
C018
C018
C030
6070
3FE0
0F80
ENDCHAR
STARTCHAR Oacute
ENCODING 211
SWIDTH 812 0
DWIDTH 15 0
BBX 13 17 1 0
BITMAP
0180
0300
0600
0000
0F80
3FE0
6070
C030
C018
C018
8018
C018
C018
C030
6070
3FE0
0F80
ENDCHAR
STARTCHAR Ocircumflex
ENCODING 212
SWIDTH 812 0
DWIDTH 15 0
BBX 13 17 1 0
BITMAP
0600
0700
0D80
0000
0F80
3FE0
6070
C030
C018
C018
8018
C018
C018
C030
6070
3FE0
0F80
ENDCHAR
STARTCHAR Otilde
ENCODING 213
SWIDTH 812 0
DWIDTH 15 0
BBX 13 17 1 0
BITMAP
0E80
0F80
0000
0000
0F80
3FE0
6070
C030
C018
C018
8018
C018
C018
C030
6070
3FE0
0F80
ENDCHAR
STARTCHAR Odieresis
ENCODING 214
SWIDTH 812 0
DWIDTH 15 0
BBX 13 16 1 0
BITMAP
0900
0D80
0000
0F80
3FE0
6070
C030
C018
C018
8018
C018
C018
C030
6070
3FE0
0F80
ENDCHAR
STARTCHAR multiply
ENCODING 215
SWIDTH 494 0
DWIDTH 9 0
BBX 7 6 1 3
BITMAP
C6
6C
38
38
6C
C6
ENDCHAR
STARTCHAR Oslash
ENCODING 216
SWIDTH 812 0
DWIDTH 15 0
BBX 13 15 1 -1
BITMAP
0030
0FA0
3FE0
60F0
C0B0
C118
C318
8218
C418
CC18
C830
7070
3FE0
2F80
4000
ENDCHAR
STARTCHAR Ugrave
ENCODING 217
SWIDTH 762 0
DWIDTH 14 0
BBX 10 17 2 0
BITMAP
3000
1800
0C00
0000
80C0
80C0
80C0
80C0
80C0
80C0
80C0
80C0
80C0
C0C0
C1C0
7F80
3E00
ENDCHAR
STARTCHAR Uacute
ENCODING 218
SWIDTH 762 0
DWIDTH 14 0
BBX 10 17 2 0
BITMAP
0300
0600
0C00
0000
80C0
80C0
80C0
80C0
80C0
80C0
80C0
80C0
80C0
C0C0
C1C0
7F80
3E00
ENDCHAR
STARTCHAR Ucircumflex
ENCODING 219
SWIDTH 762 0
DWIDTH 14 0
BBX 10 17 2 0
BITMAP
0C00
1E00
3300
0000
80C0
80C0
80C0
80C0
80C0
80C0
80C0
80C0
80C0
C0C0
C1C0
7F80
3E00
ENDCHAR
STARTCHAR Udieresis
ENCODING 220
SWIDTH 762 0
DWIDTH 14 0
BBX 10 16 2 0
BITMAP
1200
3600
0000
80C0
80C0
80C0
80C0
80C0
80C0
80C0
80C0
80C0
C0C0
C1C0
7F80
3E00
ENDCHAR
STARTCHAR Yacute
ENCODING 221
SWIDTH 630 0
DWIDTH 11 0
BBX 11 17 0 0
BITMAP
0300
0300
0400
0000
C060
6040
60C0
3080
1180
1B00
0F00
0E00
0600
0600
0600
0600
0600
ENDCHAR
STARTCHAR Thorn
ENCODING 222
SWIDTH 674 0
DWIDTH 12 0
BBX 10 13 2 0
BITMAP
C000
C000
FE00
FF80
C180
C0C0
C0C0
C0C0
C180
FF00
F000
C000
C000
ENDCHAR
STARTCHAR germandbls
ENCODING 223
SWIDTH 651 0
DWIDTH 12 0
BBX 9 14 2 0
BITMAP
3C00
7E00
C300
8300
8300
8300
8E00
8E00
8300
8180
8180
8180
9F00
9E00
ENDCHAR
STARTCHAR agrave
ENCODING 224
SWIDTH 581 0
DWIDTH 10 0
BBX 8 14 1 0
BITMAP
70
30
18
00
3E
FF
43
03
7F
FF
83
C3
FF
7B
ENDCHAR
STARTCHAR aacute
ENCODING 225
SWIDTH 581 0
DWIDTH 10 0
BBX 8 14 1 0
BITMAP
06
0C
18
00
3E
FF
43
03
7F
FF
83
C3
FF
7B
ENDCHAR
STARTCHAR acircumflex
ENCODING 226
SWIDTH 581 0
DWIDTH 10 0
BBX 8 15 1 0
BITMAP
18
1C
76
00
00
3E
FF
43
03
7F
FF
83
C3
FF
7B
ENDCHAR
STARTCHAR atilde
ENCODING 227
SWIDTH 581 0
DWIDTH 10 0
BBX 8 14 1 0
BITMAP
32
7E
00
00
3E
FF
43
03
7F
FF
83
C3
FF
7B
ENDCHAR
STARTCHAR adieresis
ENCODING 228
SWIDTH 581 0
DWIDTH 10 0
BBX 8 14 1 0
BITMAP
24
36
00
00
3E
FF
43
03
7F
FF
83
C3
FF
7B
ENDCHAR
STARTCHAR aring
ENCODING 229
SWIDTH 581 0
DWIDTH 10 0
BBX 8 15 1 0
BITMAP
18
3C
3C
18
00
3E
FF
43
03
7F
FF
83
C3
FF
7B
ENDCHAR
STARTCHAR ae
ENCODING 230
SWIDTH 978 0
DWIDTH 18 0
BBX 16 10 1 0
BITMAP
3E78
FFFE
0382
0303
7FFF
FFFF
8300
C382
FEFE
787C
ENDCHAR
STARTCHAR ccedilla
ENCODING 231
SWIDTH 562 0
DWIDTH 10 0
BBX 8 14 1 -4
BITMAP
3E
7F
C1
C0
80
80
C0
C1
7F
3E
08
1C
1C
3C
ENDCHAR
STARTCHAR egrave
ENCODING 232
SWIDTH 588 0
DWIDTH 11 0
BBX 9 14 1 0
BITMAP
3000
1800
1000
0000
3E00
7F00
C100
C180
FF80
FF80
C000
C100
7F00
3E00
ENDCHAR
STARTCHAR eacute
ENCODING 233
SWIDTH 588 0
DWIDTH 11 0
BBX 9 14 1 0
BITMAP
0600
0C00
1800
0000
3E00
7F00
C100
C180
FF80
FF80
C000
C100
7F00
3E00
ENDCHAR
STARTCHAR ecircumflex
ENCODING 234
SWIDTH 588 0
DWIDTH 11 0
BBX 9 15 1 0
BITMAP
1800
1C00
3600
0000
0000
3E00
7F00
C100
C180
FF80
FF80
C000
C100
7F00
3E00
ENDCHAR
STARTCHAR edieresis
ENCODING 235
SWIDTH 588 0
DWIDTH 11 0
BBX 9 14 1 0
BITMAP
2400
3600
0000
0000
3E00
7F00
C100
C180
FF80
FF80
C000
C100
7F00
3E00
ENDCHAR
STARTCHAR igrave
ENCODING 236
SWIDTH 274 0
DWIDTH 5 0
BBX 3 14 0 0
BITMAP
C0
60
40
00
20
20
20
20
20
20
20
20
20
20
ENDCHAR
STARTCHAR iacute
ENCODING 237
SWIDTH 274 0
DWIDTH 5 0
BBX 3 14 2 0
BITMAP
60
C0
80
00
80
80
80
80
80
80
80
80
80
80
ENDCHAR
STARTCHAR icircumflex
ENCODING 238
SWIDTH 274 0
DWIDTH 5 0
BBX 5 15 0 0
BITMAP
20
70
D8
00
00
20
20
20
20
20
20
20
20
20
20
ENDCHAR
STARTCHAR idieresis
ENCODING 239
SWIDTH 274 0
DWIDTH 5 0
BBX 5 14 0 0
BITMAP
D8
50
00
00
20
20
20
20
20
20
20
20
20
20
ENDCHAR
STARTCHAR eth
ENCODING 240
SWIDTH 585 0
DWIDTH 11 0
BBX 9 14 1 0
BITMAP
7100
1F00
1C00
7600
4300
1300
7D00
C380
C180
8180
8180
C100
7F00
3C00
ENDCHAR
STARTCHAR ntilde
ENCODING 241
SWIDTH 659 0
DWIDTH 12 0
BBX 9 14 2 0
BITMAP
3200
7E00
0000
0000
9E00
BF00
C300
C180
8180
8180
8180
8180
8180
8180
ENDCHAR
STARTCHAR ograve
ENCODING 242
SWIDTH 621 0
DWIDTH 11 0
BBX 9 14 1 0
BITMAP
3000
1800
0800
0000
3E00
7F00
C180
C080
8080
8080
C080
C180
7F00
3E00
ENDCHAR
STARTCHAR oacute
ENCODING 243
SWIDTH 621 0
DWIDTH 11 0
BBX 9 14 1 0
BITMAP
0600
0C00
0400
0000
3E00
7F00
C180
C080
8080
8080
C080
C180
7F00
3E00
ENDCHAR
STARTCHAR ocircumflex
ENCODING 244
SWIDTH 621 0
DWIDTH 11 0
BBX 9 15 1 0
BITMAP
0800
1C00
3600
0000
0000
3E00
7F00
C180
C080
8080
8080
C080
C180
7F00
3E00
ENDCHAR
STARTCHAR otilde
ENCODING 245
SWIDTH 621 0
DWIDTH 11 0
BBX 9 14 1 0
BITMAP
3A00
3E00
0000
0000
3E00
7F00
C180
C080
8080
8080
C080
C180
7F00
3E00
ENDCHAR
STARTCHAR odieresis
ENCODING 246
SWIDTH 621 0
DWIDTH 11 0
BBX 9 14 1 0
BITMAP
1200
3600
0000
0000
3E00
7F00
C180
C080
8080
8080
C080
C180
7F00
3E00
ENDCHAR
STARTCHAR divide
ENCODING 247
SWIDTH 494 0
DWIDTH 9 0
BBX 7 9 1 2
BITMAP
10
30
00
00
FE
FE
00
10
30
ENDCHAR
STARTCHAR oslash
ENCODING 248
SWIDTH 621 0
DWIDTH 11 0
BBX 11 14 0 -2
BITMAP
0060
0040
1F80
3F80
61C0
6240
4640
4440
6840
70C0
3F80
3F00
6000
C000
ENDCHAR
STARTCHAR ugrave
ENCODING 249
SWIDTH 649 0
DWIDTH 12 0
BBX 9 14 1 0
BITMAP
3000
1800
0C00
0000
C180
C180
C180
C180
C180
C180
C180
C180
7F80
3D80
ENDCHAR
STARTCHAR uacute
ENCODING 250
SWIDTH 649 0
DWIDTH 12 0
BBX 9 14 1 0
BITMAP
0700
0E00
0400
0000
C180
C180
C180
C180
C180
C180
C180
C180
7F80
3D80
ENDCHAR
STARTCHAR ucircumflex
ENCODING 251
SWIDTH 649 0
DWIDTH 12 0
BBX 9 15 1 0
BITMAP
0C00
1C00
3300
0000
0000
C180
C180
C180
C180
C180
C180
C180
C180
7F80
3D80
ENDCHAR
STARTCHAR udieresis
ENCODING 252
SWIDTH 649 0
DWIDTH 12 0
BBX 9 14 1 0
BITMAP
1200
3600
0000
0000
C180
C180
C180
C180
C180
C180
C180
C180
7F80
3D80
ENDCHAR
STARTCHAR yacute
ENCODING 253
SWIDTH 514 0
DWIDTH 9 0
BBX 9 18 0 -4
BITMAP
0600
0C00
0400
0000
C180
4180
6100
6300
2300
3200
3600
1600
1C00
0C00
0800
1800
F800
F000
ENDCHAR
STARTCHAR thorn
ENCODING 254
SWIDTH 678 0
DWIDTH 12 0
BBX 10 18 2 -4
BITMAP
8000
8000
8000
8000
9E00
BF00
C180
C080
8080
80C0
C080
C180
BF00
9E00
8000
8000
8000
8000
ENDCHAR
STARTCHAR ydieresis
ENCODING 255
SWIDTH 514 0
DWIDTH 9 0
BBX 9 18 0 -4
BITMAP
1200
3600
0000
0000
C180
4180
6100
6300
2300
3200
3600
1600
1C00
0C00
0800
1800
F800
F000
ENDCHAR
STARTCHAR Amacron
ENCODING 256
SWIDTH 726 0
DWIDTH 13 0
BBX 13 16 0 0
BITMAP
0F80
0F80
0000
0700
0700
0580
0D80
0880
18C0
1840
3060
3FE0
3FF0
6030
4010
C018
ENDCHAR
STARTCHAR amacron
ENCODING 257
SWIDTH 581 0
DWIDTH 10 0
BBX 8 14 1 0
BITMAP
3E
3E
00
00
3E
FF
43
03
7F
FF
83
C3
FF
7B
ENDCHAR
STARTCHAR Abreve
ENCODING 258
SWIDTH 726 0
DWIDTH 13 0
BBX 13 17 0 0
BITMAP
0880
0F80
0700
0000
0700
0700
0580
0D80
0880
18C0
1840
3060
3FE0
3FF0
6030
4010
C018
ENDCHAR
STARTCHAR abreve
ENCODING 259
SWIDTH 581 0
DWIDTH 10 0
BBX 8 14 1 0
BITMAP
26
3C
1C
00
3E
FF
43
03
7F
FF
83
C3
FF
7B
ENDCHAR
STARTCHAR Aogonek
ENCODING 260
SWIDTH 726 0
DWIDTH 13 0
BBX 13 17 0 -4
BITMAP
0700
0700
0580
0D80
0880
18C0
1840
3060
3FE0
3FF0
6030
4010
C018
0010
0020
0038
0038
ENDCHAR
STARTCHAR aogonek
ENCODING 261
SWIDTH 581 0
DWIDTH 10 0
BBX 8 14 1 -4
BITMAP
3E
FF
43
03
7F
FF
83
C3
FF
7B
02
06
07
07
ENDCHAR
STARTCHAR Cacute
ENCODING 262
SWIDTH 699 0
DWIDTH 13 0
BBX 11 17 1 0
BITMAP
0180
0300
0200
0000
0F80
3FC0
6060
C000
C000
C000
8000
C000
C000
C000
6040
3FE0
0F80
ENDCHAR
STARTCHAR cacute
ENCODING 263
SWIDTH 562 0
DWIDTH 10 0
BBX 8 14 1 0
BITMAP
06
0C
18
00
3E
7F
C1
C0
80
80
C0
C1
7F
3E
ENDCHAR
STARTCHAR Ccircumflex
ENCODING 264
SWIDTH 699 0
DWIDTH 13 0
BBX 11 17 1 0
BITMAP
0200
0700
0D80
0000
0F80
3FC0
6060
C000
C000
C000
8000
C000
C000
C000
6040
3FE0
0F80
ENDCHAR
STARTCHAR ccircumflex
ENCODING 265
SWIDTH 562 0
DWIDTH 10 0
BBX 8 15 1 0
BITMAP
18
1C
36
00
00
3E
7F
C1
C0
80
80
C0
C1
7F
3E
ENDCHAR
STARTCHAR Cdotaccent
ENCODING 266
SWIDTH 699 0
DWIDTH 13 0
BBX 11 16 1 0
BITMAP
0700
0200
0000
0F80
3FC0
6060
C000
C000
C000
8000
C000
C000
C000
6040
3FE0
0F80
ENDCHAR
STARTCHAR cdotaccent
ENCODING 267
SWIDTH 562 0
DWIDTH 10 0
BBX 8 14 1 0
BITMAP
18
18
00
00
3E
7F
C1
C0
80
80
C0
C1
7F
3E
ENDCHAR
STARTCHAR Ccaron
ENCODING 268
SWIDTH 699 0
DWIDTH 13 0
BBX 11 17 1 0
BITMAP
1980
0F00
0600
0000
0F80
3FC0
6060
C000
C000
C000
8000
C000
C000
C000
6040
3FE0
0F80
ENDCHAR
STARTCHAR ccaron
ENCODING 269
SWIDTH 562 0
DWIDTH 10 0
BBX 8 15 1 0
BITMAP
26
34
1C
00
00
3E
7F
C1
C0
80
80
C0
C1
7F
3E
ENDCHAR
STARTCHAR Dcaron
ENCODING 270
SWIDTH 783 0
DWIDTH 14 0
BBX 11 17 2 0
BITMAP
6600
3C00
1C00
0000
FF00
FF80
C0C0
C060
C060
C020
C020
C020
C060
C060
C0C0
FF80
FF00
ENDCHAR
STARTCHAR dcaron
ENCODING 271
SWIDTH 744 0
DWIDTH 13 0
BBX 13 14 1 0
BITMAP
00D8
00D8
00D0
00D0
3CC0
7EC0
C1C0
C0C0
80C0
80C0
C0C0
C1C0
7EC0
3CC0
ENDCHAR
STARTCHAR Dcroat
ENCODING 272
SWIDTH 783 0
DWIDTH 14 0
BBX 13 13 0 0
BITMAP
3FC0
3FE0
3030
3018
3018
FE08
FE08
3008
3018
3018
3030
3FE0
3FC0
ENDCHAR
STARTCHAR dcroat
ENCODING 273
SWIDTH 679 0
DWIDTH 12 0
BBX 11 14 1 0
BITMAP
00C0
0FE0
0FE0
00C0
3CC0
7EC0
C1C0
C0C0
80C0
80C0
C0C0
C1C0
7EC0
3CC0
ENDCHAR
STARTCHAR Emacron
ENCODING 274
SWIDTH 653 0
DWIDTH 12 0
BBX 9 16 2 0
BITMAP
3E00
3E00
0000
FF80
FF80
C000
C000
C000
FF00
FF00
C000
C000
C000
C000
FF80
FF80
ENDCHAR
STARTCHAR emacron
ENCODING 275
SWIDTH 588 0
DWIDTH 11 0
BBX 9 14 1 0
BITMAP
3E00
3E00
0000
0000
3E00
7F00
C100
C180
FF80
FF80
C000
C100
7F00
3E00
ENDCHAR
STARTCHAR Ebreve
ENCODING 276
SWIDTH 653 0
DWIDTH 12 0
BBX 9 17 2 0
BITMAP
2200
3E00
1C00
0000
FF80
FF80
C000
C000
C000
FF00
FF00
C000
C000
C000
C000
FF80
FF80
ENDCHAR
STARTCHAR ebreve
ENCODING 277
SWIDTH 588 0
DWIDTH 11 0
BBX 9 14 1 0
BITMAP
2200
3E00
1C00
0000
3E00
7F00
C100
C180
FF80
FF80
C000
C100
7F00
3E00
ENDCHAR
STARTCHAR Edotaccent
ENCODING 278
SWIDTH 653 0
DWIDTH 12 0
BBX 9 16 2 0
BITMAP
1800
1800
0000
FF80
FF80
C000
C000
C000
FF00
FF00
C000
C000
C000
C000
FF80
FF80
ENDCHAR
STARTCHAR edotaccent
ENCODING 279
SWIDTH 588 0
DWIDTH 11 0
BBX 9 14 1 0
BITMAP
1800
1800
0000
0000
3E00
7F00
C100
C180
FF80
FF80
C000
C100
7F00
3E00
ENDCHAR
STARTCHAR Eogonek
ENCODING 280
SWIDTH 653 0
DWIDTH 12 0
BBX 9 17 2 -4
BITMAP
FF80
FF80
C000
C000
C000
FF00
FF00
C000
C000
C000
C000
FF80
FF80
0300
0200
0700
0380
ENDCHAR
STARTCHAR eogonek
ENCODING 281
SWIDTH 588 0
DWIDTH 11 0
BBX 9 14 1 -4
BITMAP
3E00
7F00
C100
C180
FF80
FF80
C000
C100
7F00
3E00
0400
0C00
0E00
0700
ENDCHAR
STARTCHAR Ecaron
ENCODING 282
SWIDTH 653 0
DWIDTH 12 0
BBX 9 17 2 0
BITMAP
6600
3C00
1800
0000
FF80
FF80
C000
C000
C000
FF00
FF00
C000
C000
C000
C000
FF80
FF80
ENDCHAR
STARTCHAR ecaron
ENCODING 283
SWIDTH 588 0
DWIDTH 11 0
BBX 9 15 1 0
BITMAP
2600
3400
1C00
0000
0000
3E00
7F00
C100
C180
FF80
FF80
C000
C100
7F00
3E00
ENDCHAR
STARTCHAR Gcircumflex
ENCODING 284
SWIDTH 751 0
DWIDTH 14 0
BBX 11 17 1 0
BITMAP
0600
0F00
1980
0000
0700
3FC0
7060
6000
C000
C000
83E0
C3E0
C020
C020
6020
39E0
1F80
ENDCHAR
STARTCHAR gcircumflex
ENCODING 285
SWIDTH 638 0
DWIDTH 11 0
BBX 9 19 1 -4
BITMAP
0800
1C00
3600
0000
0000
3D80
7F80
C180
C180
8180
8180
C180
C180
7F80
3D80
0180
4180
FF00
3E00
ENDCHAR
STARTCHAR Gbreve
ENCODING 286
SWIDTH 751 0
DWIDTH 14 0
BBX 11 17 1 0
BITMAP
0900
0F00
0E00
0000
0700
3FC0
7060
6000
C000
C000
83E0
C3E0
C020
C020
6020
39E0
1F80
ENDCHAR
STARTCHAR gbreve
ENCODING 287
SWIDTH 638 0
DWIDTH 11 0
BBX 9 18 1 -4
BITMAP
2200
3E00
1C00
0000
3D80
7F80
C180
C180
8180
8180
C180
C180
7F80
3D80
0180
4180
FF00
3E00
ENDCHAR
STARTCHAR Gdotaccent
ENCODING 288
SWIDTH 751 0
DWIDTH 14 0
BBX 11 16 1 0
BITMAP
0600
0600
0000
0700
3FC0
7060
6000
C000
C000
83E0
C3E0
C020
C020
6020
39E0
1F80
ENDCHAR
STARTCHAR gdotaccent
ENCODING 289
SWIDTH 638 0
DWIDTH 11 0
BBX 9 18 1 -4
BITMAP
1C00
0800
0000
0000
3D80
7F80
C180
C180
8180
8180
C180
C180
7F80
3D80
0180
4180
FF00
3E00
ENDCHAR
STARTCHAR Gcommaaccent
ENCODING 290
SWIDTH 751 0
DWIDTH 14 0
BBX 11 17 1 -4
BITMAP
0700
3FC0
7060
6000
C000
C000
83E0
C3E0
C020
C020
6020
39E0
1F80
0000
0600
0400
0400
ENDCHAR
STARTCHAR gcommaaccent
ENCODING 291
SWIDTH 638 0
DWIDTH 11 0
BBX 9 19 1 -4
BITMAP
0C00
0C00
0800
0000
0000
3D80
7F80
C180
C180
8180
8180
C180
C180
7F80
3D80
0180
4180
FF00
3E00
ENDCHAR
STARTCHAR Hcircumflex
ENCODING 292
SWIDTH 793 0
DWIDTH 14 0
BBX 10 17 2 0
BITMAP
0C00
0E00
3B00
0000
C040
C040
C040
C040
C040
C040
FFC0
FFC0
C040
C040
C040
C040
C040
ENDCHAR
STARTCHAR hcircumflex
ENCODING 293
SWIDTH 665 0
DWIDTH 12 0
BBX 11 19 0 0
BITMAP
2000
7000
D800
0000
0000
2000
2000
2000
2000
2780
2FC0
30C0
3060
2060
2060
2060
2060
2060
2060
ENDCHAR
STARTCHAR Hbar
ENCODING 294
SWIDTH 793 0
DWIDTH 14 0
BBX 14 13 0 0
BITMAP
3010
3010
FFFC
FFFC
3010
3010
3FF0
3FF0
3010
3010
3010
3010
3010
ENDCHAR
STARTCHAR hbar
ENCODING 295
SWIDTH 665 0
DWIDTH 12 0
BBX 11 14 0 0
BITMAP
2000
FE00
FE00
2000
2780
2FC0
30C0
3060
2060
2060
2060
2060
2060
2060
ENDCHAR
STARTCHAR Itilde
ENCODING 296
SWIDTH 296 0
DWIDTH 5 0
BBX 5 17 0 0
BITMAP
E8
F8
00
00
30
30
30
30
30
30
30
30
30
30
30
30
30
ENDCHAR
STARTCHAR itilde
ENCODING 297
SWIDTH 274 0
DWIDTH 5 0
BBX 5 14 0 0
BITMAP
48
F8
90
00
20
20
20
20
20
20
20
20
20
20
ENDCHAR
STARTCHAR Imacron
ENCODING 298
SWIDTH 296 0
DWIDTH 5 0
BBX 5 16 0 0
BITMAP
F8
F8
00
30
30
30
30
30
30
30
30
30
30
30
30
30
ENDCHAR
STARTCHAR imacron
ENCODING 299
SWIDTH 274 0
DWIDTH 5 0
BBX 5 13 0 0
BITMAP
F8
F8
00
20
20
20
20
20
20
20
20
20
20
ENDCHAR
STARTCHAR Ibreve
ENCODING 300
SWIDTH 296 0
DWIDTH 5 0
BBX 5 17 0 0
BITMAP
88
F8
70
00
30
30
30
30
30
30
30
30
30
30
30
30
30
ENDCHAR
STARTCHAR ibreve
ENCODING 301
SWIDTH 274 0
DWIDTH 5 0
BBX 5 14 0 0
BITMAP
88
F8
70
00
20
20
20
20
20
20
20
20
20
20
ENDCHAR
STARTCHAR Iogonek
ENCODING 302
SWIDTH 296 0
DWIDTH 5 0
BBX 4 17 0 -4
BITMAP
30
30
30
30
30
30
30
30
30
30
30
30
30
60
C0
E0
70
ENDCHAR
STARTCHAR iogonek
ENCODING 303
SWIDTH 274 0
DWIDTH 5 0
BBX 4 18 0 -4
BITMAP
20
70
00
00
20
20
20
20
20
20
20
20
20
20
60
C0
E0
E0
ENDCHAR
STARTCHAR Idotaccent
ENCODING 304
SWIDTH 296 0
DWIDTH 5 0
BBX 2 16 2 0
BITMAP
C0
C0
00
C0
C0
C0
C0
C0
C0
C0
C0
C0
C0
C0
C0
C0
ENDCHAR
STARTCHAR dotlessi
ENCODING 305
SWIDTH 274 0
DWIDTH 5 0
BBX 1 10 2 0
BITMAP
80
80
80
80
80
80
80
80
80
80
ENDCHAR
STARTCHAR IJ
ENCODING 306
SWIDTH 802 0
DWIDTH 14 0
BBX 11 13 2 0
BITMAP
CFE0
CFE0
C060
C060
C060
C060
C060
C060
C060
C060
C840
DFC0
C780
ENDCHAR
STARTCHAR ij
ENCODING 307
SWIDTH 547 0
DWIDTH 10 0
BBX 7 18 1 -4
BITMAP
E6
46
00
00
42
42
42
42
42
42
42
42
42
42
02
06
1E
1C
ENDCHAR
STARTCHAR Jcircumflex
ENCODING 308
SWIDTH 490 0
DWIDTH 9 0
BBX 7 17 0 0
BITMAP
18
1C
66
00
7E
7E
02
02
02
02
02
02
02
02
86
FE
7C
ENDCHAR
STARTCHAR jcircumflex
ENCODING 309
SWIDTH 263 0
DWIDTH 5 0
BBX 6 19 -1 -4
BITMAP
10
38
6C
00
00
10
10
10
10
10
10
10
10
10
10
10
30
B0
E0
ENDCHAR
STARTCHAR Kcommaaccent
ENCODING 310
SWIDTH 707 0
DWIDTH 13 0
BBX 10 17 2 -4
BITMAP
C0C0
C180
C300
C600
CC00
D800
FC00
EC00
E600
C300
C380
C180
C0C0
0000
1800
1800
1000
ENDCHAR
STARTCHAR kcommaaccent
ENCODING 311
SWIDTH 582 0
DWIDTH 10 0
BBX 8 18 2 -4
BITMAP
80
80
80
80
83
86
8C
98
B8
F8
CC
86
86
83
00
18
10
30
ENDCHAR
STARTCHAR kgreenlandic
ENCODING 312
SWIDTH 578 0
DWIDTH 10 0
BBX 8 10 2 0
BITMAP
87
86
8C
98
B8
F8
CC
86
86
83
ENDCHAR
STARTCHAR Lacute
ENCODING 313
SWIDTH 524 0
DWIDTH 9 0
BBX 7 17 2 0
BITMAP
60
60
80
00
C0
C0
C0
C0
C0
C0
C0
C0
C0
C0
C0
FE
FE
ENDCHAR
STARTCHAR lacute
ENCODING 314
SWIDTH 285 0
DWIDTH 5 0
BBX 3 18 2 0
BITMAP
60
C0
40
00
80
80
80
80
80
80
80
80
80
80
80
80
80
80
ENDCHAR
STARTCHAR Lcommaaccent
ENCODING 315
SWIDTH 524 0
DWIDTH 9 0
BBX 7 17 2 -4
BITMAP
C0
C0
C0
C0
C0
C0
C0
C0
C0
C0
C0
FE
FE
00
10
30
20
ENDCHAR
STARTCHAR lcommaaccent
ENCODING 316
SWIDTH 285 0
DWIDTH 5 0
BBX 2 18 1 -4
BITMAP
40
40
40
40
40
40
40
40
40
40
40
40
40
40
00
40
C0
C0
ENDCHAR
STARTCHAR Lcaron
ENCODING 317
SWIDTH 524 0
DWIDTH 9 0
BBX 7 13 2 0
BITMAP
C6
C6
C6
C6
C0
C0
C0
C0
C0
C0
C0
FE
FE
ENDCHAR
STARTCHAR lcaron
ENCODING 318
SWIDTH 285 0
DWIDTH 5 0
BBX 4 14 2 0
BITMAP
90
90
90
90
80
80
80
80
80
80
80
80
80
80
ENDCHAR
STARTCHAR Ldot
ENCODING 319
SWIDTH 524 0
DWIDTH 9 0
BBX 7 13 2 0
BITMAP
C0
C0
C0
C0
CC
CC
C0
C0
C0
C0
C0
FE
FE
ENDCHAR
STARTCHAR ldot
ENCODING 320
SWIDTH 384 0
DWIDTH 7 0
BBX 5 14 2 0
BITMAP
80
80
80
80
80
98
98
80
80
80
80
80
80
80
ENDCHAR
STARTCHAR Lslash
ENCODING 321
SWIDTH 552 0
DWIDTH 10 0
BBX 10 13 0 0
BITMAP
3000
3000
3000
3000
3400
3800
7000
B000
3000
3000
3000
3FC0
3FC0
ENDCHAR
STARTCHAR lslash
ENCODING 322
SWIDTH 376 0
DWIDTH 7 0
BBX 5 14 1 0
BITMAP
20
20
20
20
20
28
30
E0
A0
20
20
20
20
20
ENDCHAR
STARTCHAR Nacute
ENCODING 323
SWIDTH 794 0
DWIDTH 14 0
BBX 10 17 2 0
BITMAP
0300
0600
0C00
0000
C040
E040
E040
F040
D840
D840
CC40
C640
C740
C340
C1C0
C0C0
C0C0
ENDCHAR
STARTCHAR nacute
ENCODING 324
SWIDTH 659 0
DWIDTH 12 0
BBX 9 14 2 0
BITMAP
0600
0C00
1800
0000
9E00
BF00
C300
C180
8180
8180
8180
8180
8180
8180
ENDCHAR
STARTCHAR Ncommaaccent
ENCODING 325
SWIDTH 794 0
DWIDTH 14 0
BBX 10 17 2 -4
BITMAP
C040
E040
E040
F040
D840
D840
CC40
C640
C740
C340
C1C0
C0C0
C0C0
0000
0C00
0800
0800
ENDCHAR
STARTCHAR ncommaaccent
ENCODING 326
SWIDTH 659 0
DWIDTH 12 0
BBX 9 14 2 -4
BITMAP
9E00
BF00
C300
C180
8180
8180
8180
8180
8180
8180
0000
1800
1000
1000
ENDCHAR
STARTCHAR Ncaron
ENCODING 327
SWIDTH 794 0
DWIDTH 14 0
BBX 10 17 2 0
BITMAP
3300
1E00
0C00
0000
C040
E040
E040
F040
D840
D840
CC40
C640
C740
C340
C1C0
C0C0
C0C0
ENDCHAR
STARTCHAR ncaron
ENCODING 328
SWIDTH 659 0
DWIDTH 12 0
BBX 9 15 2 0
BITMAP
6600
3C00
1800
0000
0000
9E00
BF00
C300
C180
8180
8180
8180
8180
8180
8180
ENDCHAR
STARTCHAR napostrophe
ENCODING 329
SWIDTH 760 0
DWIDTH 14 0
BBX 11 13 1 0
BITMAP
8000
8000
8000
B3C0
BFE0
3860
3020
3020
3020
3020
3020
3020
3020
ENDCHAR
STARTCHAR Eng
ENCODING 330
SWIDTH 794 0
DWIDTH 14 0
BBX 10 17 2 -4
BITMAP
C040
E040
E040
F040
D840
D840
CC40
C640
C740
C340
C1C0
C0C0
C0C0
0040
08C0
1FC0
0F80
ENDCHAR
STARTCHAR eng
ENCODING 331
SWIDTH 659 0
DWIDTH 12 0
BBX 9 14 2 -4
BITMAP
9E00
BF00
C300
C180
8180
8180
8180
8180
8180
8180
0180
0100
0F00
0E00
ENDCHAR
STARTCHAR Omacron
ENCODING 332
SWIDTH 812 0
DWIDTH 15 0
BBX 13 16 1 0
BITMAP
0F80
0F80
0000
0F80
3FE0
6070
C030
C018
C018
8018
C018
C018
C030
6070
3FE0
0F80
ENDCHAR
STARTCHAR omacron
ENCODING 333
SWIDTH 621 0
DWIDTH 11 0
BBX 9 14 1 0
BITMAP
3E00
3E00
0000
0000
3E00
7F00
C180
C080
8080
8080
C080
C180
7F00
3E00
ENDCHAR
STARTCHAR Obreve
ENCODING 334
SWIDTH 812 0
DWIDTH 15 0
BBX 13 17 1 0
BITMAP
0880
0F80
0700
0000
0F80
3FE0
6070
C030
C018
C018
8018
C018
C018
C030
6070
3FE0
0F80
ENDCHAR
STARTCHAR obreve
ENCODING 335
SWIDTH 621 0
DWIDTH 11 0
BBX 9 14 1 0
BITMAP
2200
3E00
1C00
0000
3E00
7F00
C180
C080
8080
8080
C080
C180
7F00
3E00
ENDCHAR
STARTCHAR Ohungarumlaut
ENCODING 336
SWIDTH 812 0
DWIDTH 15 0
BBX 13 17 1 0
BITMAP
06C0
0580
0900
0000
0F80
3FE0
6070
C030
C018
C018
8018
C018
C018
C030
6070
3FE0
0F80
ENDCHAR
STARTCHAR ohungarumlaut
ENCODING 337
SWIDTH 621 0
DWIDTH 11 0
BBX 9 14 1 0
BITMAP
1B00
1600
3200
0000
3E00
7F00
C180
C080
8080
8080
C080
C180
7F00
3E00
ENDCHAR
STARTCHAR OE
ENCODING 338
SWIDTH 1095 0
DWIDTH 20 0
BBX 18 13 1 0
BITMAP
0FFFC0
3FFFC0
604000
C04000
C04000
C07F80
807F80
C04000
C04000
C04000
604000
3FFFC0
0FFFC0
ENDCHAR
STARTCHAR oe
ENCODING 339
SWIDTH 1049 0
DWIDTH 19 0
BBX 17 10 1 0
BITMAP
3E3E00
7F7F00
C1C180
C0C180
80FF80
80FF80
C0C000
C1C100
7F7F00
3E3E00
ENDCHAR
STARTCHAR Racute
ENCODING 340
SWIDTH 723 0
DWIDTH 13 0
BBX 10 17 2 0
BITMAP
0600
0C00
1800
0000
FE00
FF80
C180
C0C0
C0C0
C0C0
C180
FF80
FE00
C300
C300
C180
C0C0
ENDCHAR
STARTCHAR racute
ENCODING 341
SWIDTH 382 0
DWIDTH 7 0
BBX 5 14 2 0
BITMAP
18
30
60
00
98
B8
C0
C0
80
80
80
80
80
80
ENDCHAR
STARTCHAR Rcommaaccent
ENCODING 342
SWIDTH 723 0
DWIDTH 13 0
BBX 10 17 2 -4
BITMAP
FE00
FF80
C180
C0C0
C0C0
C0C0
C180
FF80
FE00
C300
C300
C180
C0C0
0000
0800
1800
1000
ENDCHAR
STARTCHAR rcommaaccent
ENCODING 343
SWIDTH 382 0
DWIDTH 7 0
BBX 6 14 1 -4
BITMAP
4C
5C
60
60
40
40
40
40
40
40
00
40
C0
80
ENDCHAR
STARTCHAR Rcaron
ENCODING 344
SWIDTH 723 0
DWIDTH 13 0
BBX 10 17 2 0
BITMAP
6600
3C00
1800
0000
FE00
FF80
C180
C0C0
C0C0
C0C0
C180
FF80
FE00
C300
C300
C180
C0C0
ENDCHAR
STARTCHAR rcaron
ENCODING 345
SWIDTH 382 0
DWIDTH 7 0
BBX 6 15 1 0
BITMAP
CC
78
30
00
00
4C
5C
60
60
40
40
40
40
40
40
ENDCHAR
STARTCHAR Sacute
ENCODING 346
SWIDTH 616 0
DWIDTH 11 0
BBX 9 17 1 0
BITMAP
0600
0E00
0800
0000
3F00
7F80
C080
C000
E000
7800
3F00
0780
0180
0180
8180
FF00
3E00
ENDCHAR
STARTCHAR sacute
ENCODING 347
SWIDTH 460 0
DWIDTH 8 0
BBX 8 14 0 0
BITMAP
06
0C
18
00
3E
7E
60
60
3C
0E
03
43
FE
3C
ENDCHAR
STARTCHAR Scircumflex
ENCODING 348
SWIDTH 616 0
DWIDTH 11 0
BBX 9 17 1 0
BITMAP
0C00
1C00
3600
0000
3F00
7F80
C080
C000
E000
7800
3F00
0780
0180
0180
8180
FF00
3E00
ENDCHAR
STARTCHAR scircumflex
ENCODING 349
SWIDTH 460 0
DWIDTH 8 0
BBX 8 15 0 0
BITMAP
18
1C
76
00
00
3E
7E
60
60
3C
0E
03
43
FE
3C
ENDCHAR
STARTCHAR Scedilla
ENCODING 350
SWIDTH 616 0
DWIDTH 11 0
BBX 9 17 1 -4
BITMAP
3F00
7F80
C080
C000
E000
7800
3F00
0780
0180
0180
8180
FF00
3E00
0800
0400
1E00
1C00
ENDCHAR
STARTCHAR scedilla
ENCODING 351
SWIDTH 460 0
DWIDTH 8 0
BBX 8 14 0 -4
BITMAP
3E
7E
60
60
78
1E
07
03
C3
7E
08
18
1C
3C
ENDCHAR
STARTCHAR Scaron
ENCODING 352
SWIDTH 616 0
DWIDTH 11 0
BBX 9 17 1 0
BITMAP
6600
3C00
1800
0000
3F00
7F80
C080
C000
E000
7800
3F00
0780
0180
0180
8180
FF00
3E00
ENDCHAR
STARTCHAR scaron
ENCODING 353
SWIDTH 460 0
DWIDTH 8 0
BBX 8 15 0 0
BITMAP
66
3C
18
00
00
3E
7E
60
60
3C
0E
03
43
FE
3C
ENDCHAR
STARTCHAR uni0162
ENCODING 354
SWIDTH 567 0
DWIDTH 10 0
BBX 10 17 0 -4
BITMAP
FFC0
FFC0
0C00
0C00
0C00
0C00
0C00
0C00
0C00
0C00
0C00
0C00
0C00
0400
0E00
0E00
1E00
ENDCHAR
STARTCHAR uni0163
ENCODING 355
SWIDTH 397 0
DWIDTH 7 0
BBX 6 17 1 -4
BITMAP
60
60
60
FC
FC
60
60
60
60
60
60
64
7C
10
18
38
38
ENDCHAR
STARTCHAR Tcaron
ENCODING 356
SWIDTH 567 0
DWIDTH 10 0
BBX 10 17 0 0
BITMAP
3300
1E00
0C00
0000
FFC0
FFC0
0C00
0C00
0C00
0C00
0C00
0C00
0C00
0C00
0C00
0C00
0C00
ENDCHAR
STARTCHAR tcaron
ENCODING 357
SWIDTH 397 0
DWIDTH 7 0
BBX 6 14 1 0
BITMAP
0C
68
68
60
FC
FC
60
60
60
60
60
60
7C
38
ENDCHAR
STARTCHAR Tbar
ENCODING 358
SWIDTH 567 0
DWIDTH 10 0
BBX 10 13 0 0
BITMAP
FFC0
FFC0
0C00
0C00
0C00
0C00
7F80
7F80
0C00
0C00
0C00
0C00
0C00
ENDCHAR
STARTCHAR tbar
ENCODING 359
SWIDTH 397 0
DWIDTH 7 0
BBX 6 13 1 0
BITMAP
60
60
60
FC
FC
60
FC
FC
60
60
60
7C
38
ENDCHAR
STARTCHAR Utilde
ENCODING 360
SWIDTH 762 0
DWIDTH 14 0
BBX 10 17 2 0
BITMAP
1B00
3E00
0000
0000
80C0
80C0
80C0
80C0
80C0
80C0
80C0
80C0
80C0
C0C0
C1C0
7F80
3E00
ENDCHAR
STARTCHAR utilde
ENCODING 361
SWIDTH 649 0
DWIDTH 12 0
BBX 9 14 1 0
BITMAP
1B00
3E00
0000
0000
C180
C180
C180
C180
C180
C180
C180
C180
7F80
3D80
ENDCHAR
STARTCHAR Umacron
ENCODING 362
SWIDTH 762 0
DWIDTH 14 0
BBX 10 16 2 0
BITMAP
3F00
3F00
0000
80C0
80C0
80C0
80C0
80C0
80C0
80C0
80C0
80C0
C0C0
C1C0
7F80
3E00
ENDCHAR
STARTCHAR umacron
ENCODING 363
SWIDTH 649 0
DWIDTH 12 0
BBX 9 14 1 0
BITMAP
3E00
3E00
0000
0000
C180
C180
C180
C180
C180
C180
C180
C180
7F80
3D80
ENDCHAR
STARTCHAR Ubreve
ENCODING 364
SWIDTH 762 0
DWIDTH 14 0
BBX 10 17 2 0
BITMAP
3200
1E00
1C00
0000
80C0
80C0
80C0
80C0
80C0
80C0
80C0
80C0
80C0
C0C0
C1C0
7F80
3E00
ENDCHAR
STARTCHAR ubreve
ENCODING 365
SWIDTH 649 0
DWIDTH 12 0
BBX 9 14 1 0
BITMAP
3200
1E00
1C00
0000
C180
C180
C180
C180
C180
C180
C180
C180
7F80
3D80
ENDCHAR
STARTCHAR Uring
ENCODING 366
SWIDTH 762 0
DWIDTH 14 0
BBX 10 18 2 0
BITMAP
0C00
1E00
1E00
0C00
0000
80C0
80C0
80C0
80C0
80C0
80C0
80C0
80C0
80C0
C0C0
C1C0
7F80
3E00
ENDCHAR
STARTCHAR uring
ENCODING 367
SWIDTH 649 0
DWIDTH 12 0
BBX 9 15 1 0
BITMAP
0C00
1E00
1E00
0C00
0000
C180
C180
C180
C180
C180
C180
C180
C180
7F80
3D80
ENDCHAR
STARTCHAR Uhungarumlaut
ENCODING 368
SWIDTH 762 0
DWIDTH 14 0
BBX 10 17 2 0
BITMAP
0B00
1B00
3600
0000
80C0
80C0
80C0
80C0
80C0
80C0
80C0
80C0
80C0
C0C0
C1C0
7F80
3E00
ENDCHAR
STARTCHAR uhungarumlaut
ENCODING 369
SWIDTH 649 0
DWIDTH 12 0
BBX 9 14 1 0
BITMAP
0B00
1A00
3600
0000
C180
C180
C180
C180
C180
C180
C180
C180
7F80
3D80
ENDCHAR
STARTCHAR Uogonek
ENCODING 370
SWIDTH 762 0
DWIDTH 14 0
BBX 10 17 2 -4
BITMAP
80C0
80C0
80C0
80C0
80C0
80C0
80C0
80C0
80C0
C0C0
C1C0
7F80
3F00
0600
0600
0700
0700
ENDCHAR
STARTCHAR uogonek
ENCODING 371
SWIDTH 649 0
DWIDTH 12 0
BBX 9 14 1 -4
BITMAP
C180
C180
C180
C180
C180
C180
C180
C180
7F80
3D80
0100
0300
0280
0380
ENDCHAR
STARTCHAR Wcircumflex
ENCODING 372
SWIDTH 1046 0
DWIDTH 19 0
BBX 19 17 0 0
BITMAP
004000
00E000
01B000
000000
C0C060
40E040
60E0C0
60A0C0
21B080
313180
311180
131900
131B00
1A0B00
0E0A00
0E0E00
0C0600
ENDCHAR
STARTCHAR wcircumflex
ENCODING 373
SWIDTH 876 0
DWIDTH 16 0
BBX 16 15 0 0
BITMAP
0180
03C0
0660
0000
0000
C183
4182
63C6
63C6
2244
366C
366C
1428
1C38
1838
ENDCHAR
STARTCHAR Ycircumflex
ENCODING 374
SWIDTH 630 0
DWIDTH 11 0
BBX 11 17 0 0
BITMAP
0600
0E00
1B00
0000
C060
6040
60C0
3080
1180
1B00
0F00
0E00
0600
0600
0600
0600
0600
ENDCHAR
STARTCHAR ycircumflex
ENCODING 375
SWIDTH 514 0
DWIDTH 9 0
BBX 9 19 0 -4
BITMAP
0C00
1C00
3600
0000
0000
C180
4180
6100
6300
2300
3200
3600
1600
1C00
0C00
0800
1800
F800
F000
ENDCHAR
STARTCHAR Ydieresis
ENCODING 376
SWIDTH 630 0
DWIDTH 11 0
BBX 11 16 0 0
BITMAP
0900
1B00
0000
C060
6040
60C0
3080
1180
1B00
0F00
0E00
0600
0600
0600
0600
0600
ENDCHAR
STARTCHAR Zacute
ENCODING 377
SWIDTH 662 0
DWIDTH 12 0
BBX 10 17 1 0
BITMAP
0300
0600
0C00
0000
FFC0
FFC0
0180
0300
0700
0600
0C00
1800
3000
3000
6000
FFC0
FFC0
ENDCHAR
STARTCHAR zacute
ENCODING 378
SWIDTH 531 0
DWIDTH 10 0
BBX 8 14 1 0
BITMAP
0E
1C
08
00
FF
FF
06
0C
18
30
30
60
FF
FF
ENDCHAR
STARTCHAR Zdotaccent
ENCODING 379
SWIDTH 662 0
DWIDTH 12 0
BBX 10 16 1 0
BITMAP
0C00
0C00
0000
FFC0
FFC0
0180
0300
0700
0600
0C00
1800
3000
3000
6000
FFC0
FFC0
ENDCHAR
STARTCHAR zdotaccent
ENCODING 380
SWIDTH 531 0
DWIDTH 10 0
BBX 8 14 1 0
BITMAP
18
18
00
00
FF
FF
06
0C
18
30
30
60
FF
FF
ENDCHAR
STARTCHAR Zcaron
ENCODING 381
SWIDTH 662 0
DWIDTH 12 0
BBX 10 17 1 0
BITMAP
3200
1600
1C00
0000
FFC0
FFC0
0180
0300
0700
0600
0C00
1800
3000
3000
6000
FFC0
FFC0
ENDCHAR
STARTCHAR zcaron
ENCODING 382
SWIDTH 531 0
DWIDTH 10 0
BBX 8 15 1 0
BITMAP
66
3C
18
00
00
FF
FF
06
0C
18
30
30
60
FF
FF
ENDCHAR
STARTCHAR uni018F
ENCODING 399
SWIDTH 782 0
DWIDTH 14 0
BBX 12 13 1 0
BITMAP
1F80
3FC0
6060
0030
0030
0010
FFF0
FFF0
C030
C030
6060
3FC0
1F80
ENDCHAR
STARTCHAR florin
ENCODING 402
SWIDTH 358 0
DWIDTH 6 0
BBX 10 18 -2 -4
BITMAP
03C0
0780
0C00
0C00
0C00
1F00
1F00
0C00
0800
0800
0800
1800
1800
1800
1800
1800
F000
E000
ENDCHAR
STARTCHAR Ohorn
ENCODING 416
SWIDTH 837 0
DWIDTH 15 0
BBX 13 15 1 0
BITMAP
0010
0018
0F90
3FE0
6070
C030
C018
C018
8018
C018
C018
C030
6070
3FE0
0F80
ENDCHAR
STARTCHAR ohorn
ENCODING 417
SWIDTH 651 0
DWIDTH 12 0
BBX 10 12 1 0
BITMAP
0040
0040
3EC0
7F80
C180
C080
8080
8080
C080
C180
7F00
3E00
ENDCHAR
STARTCHAR Uhorn
ENCODING 431
SWIDTH 787 0
DWIDTH 14 0
BBX 12 16 2 0
BITMAP
0010
0030
0010
80E0
80C0
80C0
80C0
80C0
80C0
80C0
80C0
80C0
C0C0
C1C0
7F80
3E00
ENDCHAR
STARTCHAR uhorn
ENCODING 432
SWIDTH 654 0
DWIDTH 12 0
BBX 11 13 1 0
BITMAP
0020
0060
0060
C1C0
C180
C180
C180
C180
C180
C180
C180
7F80
3D80
ENDCHAR
STARTCHAR uni01C4
ENCODING 452
SWIDTH 1445 0
DWIDTH 26 0
BBX 23 17 2 0
BITMAP
000198
0000B0
0000E0
000000
FF07FE
FF87FE
C0C00C
C06018
C06018
C02030
C02060
C020C0
C06180
C06180
C0C300
FF87FE
FF07FE
ENDCHAR
STARTCHAR uni01C5
ENCODING 453
SWIDTH 1314 0
DWIDTH 24 0
BBX 21 15 2 0
BITMAP
000330
0001E0
FF00C0
FF8000
C0C000
C067F8
C067F8
C02030
C02060
C020C0
C06080
C06180
C0C300
FF87F8
FF07F8
ENDCHAR
STARTCHAR uni01C6
ENCODING 454
SWIDTH 1211 0
DWIDTH 22 0
BBX 20 15 1 0
BITMAP
000660
00C3C0
00C180
00C000
00C000
3CCFF0
7ECFF0
C1C060
C0C0C0
80C180
80C180
C0C300
C1C600
7ECFF0
3CCFF0
ENDCHAR
STARTCHAR uni01C7
ENCODING 455
SWIDTH 1015 0
DWIDTH 18 0
BBX 15 13 2 0
BITMAP
C07E
C07E
C006
C006
C006
C006
C006
C006
C006
C006
C086
FFFC
FE78
ENDCHAR
STARTCHAR uni01C8
ENCODING 456
SWIDTH 787 0
DWIDTH 14 0
BBX 11 18 2 -4
BITMAP
0060
C060
C000
C000
C060
C060
C060
C060
C060
C060
C060
C060
FE60
FE60
0060
0060
01C0
03C0
ENDCHAR
STARTCHAR uni01C9
ENCODING 457
SWIDTH 548 0
DWIDTH 10 0
BBX 7 18 2 -4
BITMAP
86
84
80
80
84
84
84
84
84
84
84
84
84
84
04
04
2C
38
ENDCHAR
STARTCHAR uni01CA
ENCODING 458
SWIDTH 1284 0
DWIDTH 23 0
BBX 20 13 2 0
BITMAP
C047F0
E047F0
E04030
F04030
D84030
D84030
CC4030
C64030
C74030
C34030
C1C420
C0CFE0
C0C3C0
ENDCHAR
STARTCHAR uni01CB
ENCODING 459
SWIDTH 1056 0
DWIDTH 19 0
BBX 16 18 2 -4
BITMAP
0003
C043
E040
E040
F043
D843
D843
CC43
C643
C743
C343
C1C3
C0C3
C0C3
0003
0003
0016
001E
ENDCHAR
STARTCHAR uni01CC
ENCODING 460
SWIDTH 921 0
DWIDTH 17 0
BBX 13 18 2 -4
BITMAP
0018
0018
0000
0000
9E18
BF18
C318
C198
8198
8198
8198
8198
8198
8198
0018
0018
0078
0070
ENDCHAR
STARTCHAR Gcaron
ENCODING 486
SWIDTH 751 0
DWIDTH 14 0
BBX 11 17 1 0
BITMAP
1100
0B00
0E00
0000
0700
3FC0
7060
6000
C000
C000
83E0
C3E0
C020
C020
6020
39E0
1F80
ENDCHAR
STARTCHAR gcaron
ENCODING 487
SWIDTH 638 0
DWIDTH 11 0
BBX 9 19 1 -4
BITMAP
2200
3400
1C00
0000
0000
3D80
7F80
C180
C180
8180
8180
C180
C180
7F80
3D80
0180
4180
FF00
3E00
ENDCHAR
STARTCHAR uni01EA
ENCODING 490
SWIDTH 812 0
DWIDTH 15 0
BBX 13 17 1 -4
BITMAP
0F80
3FE0
6070
C030
C018
C018
8018
C018
C018
C030
6070
3FE0
0F80
0180
0100
0180
01C0
ENDCHAR
STARTCHAR uni01EB
ENCODING 491
SWIDTH 621 0
DWIDTH 11 0
BBX 9 14 1 -4
BITMAP
3E00
7F00
C180
C080
8080
8080
C080
C180
7F00
3E00
0400
0C00
0E00
0700
ENDCHAR
STARTCHAR Aringacute
ENCODING 506
SWIDTH 726 0
DWIDTH 13 0
BBX 13 21 0 0
BITMAP
0100
0380
0600
0700
0700
0700
0700
0000
0700
0700
0580
0D80
0880
18C0
1840
3060
3FE0
3FF0
6030
4010
C018
ENDCHAR
STARTCHAR aringacute
ENCODING 507
SWIDTH 581 0
DWIDTH 10 0
BBX 8 18 1 0
BITMAP
04
0E
18
18
3C
3C
18
00
3E
FF
43
03
7F
FF
83
C3
FF
7B
ENDCHAR
STARTCHAR AEacute
ENCODING 508
SWIDTH 1037 0
DWIDTH 19 0
BBX 18 17 0 0
BITMAP
000C00
001800
003000
000000
01FF80
01FF80
034000
064000
064000
0C7F80
087F80
184000
1FC000
3FC000
604000
607FC0
C07FC0
ENDCHAR
STARTCHAR aeacute
ENCODING 509
SWIDTH 978 0
DWIDTH 18 0
BBX 16 14 1 0
BITMAP
00E0
0180
0080
0000
3E78
FFFE
0382
0303
7FFF
FFFF
8300
C382
FEFE
787C
ENDCHAR
STARTCHAR Oslashacute
ENCODING 510
SWIDTH 812 0
DWIDTH 15 0
BBX 13 18 1 -1
BITMAP
0180
0300
0600
0030
0FA0
3FE0
60F0
C0B0
C118
C318
8218
C418
CC18
C830
7070
3FE0
2F80
4000
ENDCHAR
STARTCHAR oslashacute
ENCODING 511
SWIDTH 621 0
DWIDTH 11 0
BBX 11 16 0 -2
BITMAP
0300
0600
0260
0040
1F80
3F80
61C0
6240
4640
4440
6840
70C0
3F80
3F00
6000
C000
ENDCHAR
STARTCHAR uni0200
ENCODING 512
SWIDTH 726 0
DWIDTH 13 0
BBX 13 17 0 0
BITMAP
1B00
0900
0580
0000
0700
0700
0580
0D80
0880
18C0
1840
3060
3FE0
3FF0
6030
4010
C018
ENDCHAR
STARTCHAR uni0201
ENCODING 513
SWIDTH 581 0
DWIDTH 10 0
BBX 8 14 1 0
BITMAP
78
6C
34
00
3E
FF
43
03
7F
FF
83
C3
FF
7B
ENDCHAR
STARTCHAR uni0202
ENCODING 514
SWIDTH 726 0
DWIDTH 13 0
BBX 13 18 0 0
BITMAP
0200
0700
0D80
0000
0000
0700
0700
0580
0D80
0880
18C0
1840
3060
3FE0
3FF0
6030
4010
C018
ENDCHAR
STARTCHAR uni0203
ENCODING 515
SWIDTH 581 0
DWIDTH 10 0
BBX 8 15 1 0
BITMAP
08
3C
24
02
00
3E
FF
43
03
7F
FF
83
C3
FF
7B
ENDCHAR
STARTCHAR uni0204
ENCODING 516
SWIDTH 653 0
DWIDTH 12 0
BBX 9 17 2 0
BITMAP
6800
6C00
3600
0000
FF80
FF80
C000
C000
C000
FF00
FF00
C000
C000
C000
C000
FF80
FF80
ENDCHAR
STARTCHAR uni0205
ENCODING 517
SWIDTH 588 0
DWIDTH 11 0
BBX 9 14 1 0
BITMAP
6C00
2C00
3600
0000
3E00
7F00
C100
C180
FF80
FF80
C000
C100
7F00
3E00
ENDCHAR
STARTCHAR uni0206
ENCODING 518
SWIDTH 653 0
DWIDTH 12 0
BBX 9 18 2 0
BITMAP
0800
3C00
2600
0000
0000
FF80
FF80
C000
C000
C000
FF00
FF00
C000
C000
C000
C000
FF80
FF80
ENDCHAR
STARTCHAR uni0207
ENCODING 519
SWIDTH 588 0
DWIDTH 11 0
BBX 9 15 1 0
BITMAP
0800
1C00
2600
0000
0000
3E00
7F00
C100
C180
FF80
FF80
C000
C100
7F00
3E00
ENDCHAR
STARTCHAR uni0208
ENCODING 520
SWIDTH 296 0
DWIDTH 5 0
BBX 6 17 -1 0
BITMAP
D8
48
2C
00
18
18
18
18
18
18
18
18
18
18
18
18
18
ENDCHAR
STARTCHAR uni0209
ENCODING 521
SWIDTH 274 0
DWIDTH 5 0
BBX 6 14 -1 0
BITMAP
D8
48
6C
00
10
10
10
10
10
10
10
10
10
10
ENDCHAR
STARTCHAR uni020A
ENCODING 522
SWIDTH 296 0
DWIDTH 5 0
BBX 5 18 0 0
BITMAP
20
70
C8
00
00
30
30
30
30
30
30
30
30
30
30
30
30
30
ENDCHAR
STARTCHAR uni020B
ENCODING 523
SWIDTH 274 0
DWIDTH 5 0
BBX 5 14 0 0
BITMAP
70
70
D8
00
20
20
20
20
20
20
20
20
20
20
ENDCHAR
STARTCHAR uni020C
ENCODING 524
SWIDTH 812 0
DWIDTH 15 0
BBX 13 17 1 0
BITMAP
1A00
1B00
0D80
0000
0F80
3FE0
6070
C030
C018
C018
8018
C018
C018
C030
6070
3FE0
0F80
ENDCHAR
STARTCHAR uni020D
ENCODING 525
SWIDTH 621 0
DWIDTH 11 0
BBX 9 14 1 0
BITMAP
6C00
3400
2600
0000
3E00
7F00
C180
C080
8080
8080
C080
C180
7F00
3E00
ENDCHAR
STARTCHAR uni020E
ENCODING 526
SWIDTH 812 0
DWIDTH 15 0
BBX 13 18 1 0
BITMAP
0200
0F00
0980
0000
0000
0F80
3FE0
6070
C030
C018
C018
8018
C018
C018
C030
6070
3FE0
0F80
ENDCHAR
STARTCHAR uni020F
ENCODING 527
SWIDTH 621 0
DWIDTH 11 0
BBX 9 15 1 0
BITMAP
0800
1C00
3200
0000
0000
3E00
7F00
C180
C080
8080
8080
C080
C180
7F00
3E00
ENDCHAR
STARTCHAR uni0210
ENCODING 528
SWIDTH 723 0
DWIDTH 13 0
BBX 10 17 2 0
BITMAP
5800
6C00
3400
0000
FE00
FF80
C180
C0C0
C0C0
C0C0
C180
FF80
FE00
C300
C300
C180
C0C0
ENDCHAR
STARTCHAR uni0211
ENCODING 529
SWIDTH 382 0
DWIDTH 7 0
BBX 6 14 1 0
BITMAP
F0
58
68
00
4C
5C
60
60
40
40
40
40
40
40
ENDCHAR
STARTCHAR uni0212
ENCODING 530
SWIDTH 723 0
DWIDTH 13 0
BBX 10 18 2 0
BITMAP
0800
3C00
2400
0200
0000
FE00
FF80
C180
C0C0
C0C0
C0C0
C180
FF80
FE00
C300
C300
C180
C0C0
ENDCHAR
STARTCHAR uni0213
ENCODING 531
SWIDTH 382 0
DWIDTH 7 0
BBX 5 15 2 0
BITMAP
20
F0
90
08
00
98
B8
C0
C0
80
80
80
80
80
80
ENDCHAR
STARTCHAR uni0214
ENCODING 532
SWIDTH 762 0
DWIDTH 14 0
BBX 10 17 2 0
BITMAP
6C00
3600
1200
0000
80C0
80C0
80C0
80C0
80C0
80C0
80C0
80C0
80C0
C0C0
C1C0
7F80
3E00
ENDCHAR
STARTCHAR uni0215
ENCODING 533
SWIDTH 649 0
DWIDTH 12 0
BBX 9 14 1 0
BITMAP
6C00
3600
2400
0000
C180
C180
C180
C180
C180
C180
C180
C180
7F80
3D80
ENDCHAR
STARTCHAR uni0216
ENCODING 534
SWIDTH 762 0
DWIDTH 14 0
BBX 10 18 2 0
BITMAP
0800
1E00
1200
2000
0000
80C0
80C0
80C0
80C0
80C0
80C0
80C0
80C0
80C0
C0C0
C1C0
7F80
3E00
ENDCHAR
STARTCHAR uni0217
ENCODING 535
SWIDTH 649 0
DWIDTH 12 0
BBX 9 15 1 0
BITMAP
0800
1E00
1200
2000
0000
C180
C180
C180
C180
C180
C180
C180
C180
7F80
3D80
ENDCHAR
STARTCHAR Scommaaccent
ENCODING 536
SWIDTH 616 0
DWIDTH 11 0
BBX 9 17 1 -4
BITMAP
3F00
7F80
C080
C000
E000
7800
3F00
0780
0180
0180
8180
FF00
3E00
0000
0800
0800
1800
ENDCHAR
STARTCHAR scommaaccent
ENCODING 537
SWIDTH 460 0
DWIDTH 8 0
BBX 8 14 0 -4
BITMAP
3E
7E
60
60
3C
0E
03
43
FE
3C
00
18
10
10
ENDCHAR
STARTCHAR uni021A
ENCODING 538
SWIDTH 567 0
DWIDTH 10 0
BBX 10 17 0 -4
BITMAP
FFC0
FFC0
0C00
0C00
0C00
0C00
0C00
0C00
0C00
0C00
0C00
0C00
0C00
0000
0C00
0800
0800
ENDCHAR
STARTCHAR uni021B
ENCODING 539
SWIDTH 397 0
DWIDTH 7 0
BBX 6 17 1 -4
BITMAP
60
60
60
FC
FC
60
60
60
60
60
60
7C
38
00
10
30
30
ENDCHAR
STARTCHAR uni022A
ENCODING 554
SWIDTH 812 0
DWIDTH 15 0
BBX 13 18 1 0
BITMAP
0F80
0F80
0D80
0900
0000
0F80
3FE0
6070
C030
C018
C018
8018
C018
C018
C030
6070
3FE0
0F80
ENDCHAR
STARTCHAR uni022B
ENCODING 555
SWIDTH 621 0
DWIDTH 11 0
BBX 9 16 1 0
BITMAP
3E00
3E00
0000
3600
1200
0000
3E00
7F00
C180
C080
8080
8080
C080
C180
7F00
3E00
ENDCHAR
STARTCHAR uni022C
ENCODING 556
SWIDTH 812 0
DWIDTH 15 0
BBX 13 18 1 0
BITMAP
0F80
0F80
0C80
0F80
0000
0F80
3FE0
6070
C030
C018
C018
8018
C018
C018
C030
6070
3FE0
0F80
ENDCHAR
STARTCHAR uni022D
ENCODING 557
SWIDTH 621 0
DWIDTH 11 0
BBX 9 16 1 0
BITMAP
3E00
3E00
0000
3A00
3E00
0000
3E00
7F00
C180
C080
8080
8080
C080
C180
7F00
3E00
ENDCHAR
STARTCHAR uni0230
ENCODING 560
SWIDTH 812 0
DWIDTH 15 0
BBX 13 18 1 0
BITMAP
07C0
07C0
0300
0300
0000
0F80
3FE0
6070
C030
C018
C018
8018
C018
C018
C030
6070
3FE0
0F80
ENDCHAR
STARTCHAR uni0231
ENCODING 561
SWIDTH 621 0
DWIDTH 11 0
BBX 9 16 1 0
BITMAP
3E00
3E00
0000
0800
0C00
0000
3E00
7F00
C180
C080
8080
8080
C080
C180
7F00
3E00
ENDCHAR
STARTCHAR uni0232
ENCODING 562
SWIDTH 630 0
DWIDTH 11 0
BBX 11 16 0 0
BITMAP
1F00
1F00
0000
C060
6040
60C0
3080
1180
1B00
0F00
0E00
0600
0600
0600
0600
0600
ENDCHAR
STARTCHAR uni0233
ENCODING 563
SWIDTH 514 0
DWIDTH 9 0
BBX 9 18 0 -4
BITMAP
3E00
3E00
0000
0000
C180
4180
6100
6300
2300
3200
3600
1600
1C00
0C00
0800
1800
F800
F000
ENDCHAR
STARTCHAR uni0237
ENCODING 567
SWIDTH 263 0
DWIDTH 5 0
BBX 4 14 -1 -4
BITMAP
10
10
10
10
10
10
10
10
10
10
10
30
B0
E0
ENDCHAR
STARTCHAR uni0259
ENCODING 601
SWIDTH 588 0
DWIDTH 11 0
BBX 9 10 1 0
BITMAP
3C00
FF00
4300
0180
FF80
FF80
8180
C300
7F00
3C00
ENDCHAR
STARTCHAR uni02BB
ENCODING 699
SWIDTH 189 0
DWIDTH 3 0
BBX 2 4 1 9
BITMAP
C0
C0
C0
40
ENDCHAR
STARTCHAR uni02BC
ENCODING 700
SWIDTH 138 0
DWIDTH 2 0
BBX 1 5 1 8
BITMAP
80
80
80
80
80
ENDCHAR
STARTCHAR uni02BE
ENCODING 702
SWIDTH 249 0
DWIDTH 4 0
BBX 2 5 1 11
BITMAP
80
C0
40
C0
80
ENDCHAR
STARTCHAR uni02BF
ENCODING 703
SWIDTH 248 0
DWIDTH 4 0
BBX 2 5 1 11
BITMAP
40
40
80
C0
40
ENDCHAR
STARTCHAR circumflex
ENCODING 710
SWIDTH 332 0
DWIDTH 6 0
BBX 6 3 0 12
BITMAP
30
78
CC
ENDCHAR
STARTCHAR caron
ENCODING 711
SWIDTH 332 0
DWIDTH 6 0
BBX 5 3 0 12
BITMAP
88
58
70
ENDCHAR
STARTCHAR uni02C8
ENCODING 712
SWIDTH 105 0
DWIDTH 2 0
BBX 2 3 0 10
BITMAP
C0
C0
C0
ENDCHAR
STARTCHAR uni02C9
ENCODING 713
SWIDTH 350 0
DWIDTH 6 0
BBX 5 2 1 12
BITMAP
F8
F8
ENDCHAR
STARTCHAR uni02CA
ENCODING 714
SWIDTH 350 0
DWIDTH 6 0
BBX 3 3 2 11
BITMAP
60
C0
80
ENDCHAR
STARTCHAR uni02CB
ENCODING 715
SWIDTH 350 0
DWIDTH 6 0
BBX 4 3 1 11
BITMAP
C0
60
30
ENDCHAR
STARTCHAR uni02CC
ENCODING 716
SWIDTH 104 0
DWIDTH 2 0
BBX 2 3 0 -4
BITMAP
C0
C0
C0
ENDCHAR
STARTCHAR breve
ENCODING 728
SWIDTH 328 0
DWIDTH 6 0
BBX 4 3 1 11
BITMAP
90
F0
E0
ENDCHAR
STARTCHAR dotaccent
ENCODING 729
SWIDTH 293 0
DWIDTH 5 0
BBX 2 2 2 12
BITMAP
C0
C0
ENDCHAR
STARTCHAR ring
ENCODING 730
SWIDTH 434 0
DWIDTH 8 0
BBX 4 4 1 11
BITMAP
60
F0
F0
60
ENDCHAR
STARTCHAR ogonek
ENCODING 731
SWIDTH 266 0
DWIDTH 5 0
BBX 4 5 0 -4
BITMAP
30
60
40
E0
70
ENDCHAR
STARTCHAR tilde
ENCODING 732
SWIDTH 371 0
DWIDTH 7 0
BBX 5 2 1 12
BITMAP
E8
F8
ENDCHAR
STARTCHAR hungarumlaut
ENCODING 733
SWIDTH 464 0
DWIDTH 8 0
BBX 6 3 1 11
BITMAP
6C
48
D8
ENDCHAR
STARTCHAR gravecomb
ENCODING 768
SWIDTH 0 0
DWIDTH 0 0
BBX 4 3 -5 11
BITMAP
E0
60
30
ENDCHAR
STARTCHAR acutecomb
ENCODING 769
SWIDTH 0 0
DWIDTH 0 0
BBX 4 3 -4 11
BITMAP
70
60
C0
ENDCHAR
STARTCHAR uni0302
ENCODING 770
SWIDTH 0 0
DWIDTH 0 0
BBX 6 3 -6 12
BITMAP
30
78
CC
ENDCHAR
STARTCHAR tildecomb
ENCODING 771
SWIDTH 0 0
DWIDTH 0 0
BBX 5 2 -6 12
BITMAP
E8
F8
ENDCHAR
STARTCHAR uni0304
ENCODING 772
SWIDTH 0 0
DWIDTH 0 0
BBX 5 2 -5 12
BITMAP
F8
F8
ENDCHAR
STARTCHAR uni0306
ENCODING 774
SWIDTH 0 0
DWIDTH 0 0
BBX 4 3 -5 11
BITMAP
90
F0
70
ENDCHAR
STARTCHAR uni0307
ENCODING 775
SWIDTH 0 0
DWIDTH 0 0
BBX 2 2 -3 12
BITMAP
C0
C0
ENDCHAR
STARTCHAR uni0308
ENCODING 776
SWIDTH 0 0
DWIDTH 0 0
BBX 5 2 -6 12
BITMAP
48
D8
ENDCHAR
STARTCHAR hookabovecomb
ENCODING 777
SWIDTH 0 0
DWIDTH 0 0
BBX 4 5 -4 10
BITMAP
40
E0
30
20
60
ENDCHAR
STARTCHAR uni030A
ENCODING 778
SWIDTH 0 0
DWIDTH 0 0
BBX 4 4 -5 11
BITMAP
60
F0
F0
60
ENDCHAR
STARTCHAR uni030B
ENCODING 779
SWIDTH 0 0
DWIDTH 0 0
BBX 6 3 -7 11
BITMAP
6C
68
D8
ENDCHAR
STARTCHAR uni030C
ENCODING 780
SWIDTH 0 0
DWIDTH 0 0
BBX 6 3 -6 12
BITMAP
CC
78
30
ENDCHAR
STARTCHAR uni030F
ENCODING 783
SWIDTH 0 0
DWIDTH 0 0
BBX 6 3 -7 11
BITMAP
D8
6C
48
ENDCHAR
STARTCHAR uni0311
ENCODING 785
SWIDTH 0 0
DWIDTH 0 0
BBX 4 3 -5 12
BITMAP
20
F0
90
ENDCHAR
STARTCHAR uni0312
ENCODING 786
SWIDTH 0 0
DWIDTH 0 0
BBX 2 3 -3 12
BITMAP
40
40
C0
ENDCHAR
STARTCHAR uni031B
ENCODING 795
SWIDTH 0 0
DWIDTH 0 0
BBX 2 4 -3 9
BITMAP
40
40
C0
C0
ENDCHAR
STARTCHAR dotbelowcomb
ENCODING 803
SWIDTH 0 0
DWIDTH 0 0
BBX 2 2 -3 -4
BITMAP
C0
C0
ENDCHAR
STARTCHAR uni0324
ENCODING 804
SWIDTH 0 0
DWIDTH 0 0
BBX 5 2 -6 -3
BITMAP
48
D8
ENDCHAR
STARTCHAR uni0326
ENCODING 806
SWIDTH 0 0
DWIDTH 0 0
BBX 2 3 -3 -4
BITMAP
40
C0
80
ENDCHAR
STARTCHAR uni0327
ENCODING 807
SWIDTH 0 0
DWIDTH 0 0
BBX 3 4 -4 -4
BITMAP
40
E0
E0
E0
ENDCHAR
STARTCHAR uni0328
ENCODING 808
SWIDTH 0 0
DWIDTH 0 0
BBX 3 5 -4 -4
BITMAP
20
60
C0
E0
60
ENDCHAR
STARTCHAR uni032E
ENCODING 814
SWIDTH 0 0
DWIDTH 0 0
BBX 4 3 -5 -3
BITMAP
90
F0
70
ENDCHAR
STARTCHAR uni0331
ENCODING 817
SWIDTH 0 0
DWIDTH 0 0
BBX 5 2 -6 -3
BITMAP
F8
F8
ENDCHAR
STARTCHAR uni0335
ENCODING 821
SWIDTH 0 0
DWIDTH 0 0
BBX 6 2 -6 8
BITMAP
FC
FC
ENDCHAR
STARTCHAR uni0336
ENCODING 822
SWIDTH 0 0
DWIDTH 0 0
BBX 7 2 -9 8
BITMAP
FE
FE
ENDCHAR
STARTCHAR uni0337
ENCODING 823
SWIDTH 0 0
DWIDTH 0 0
BBX 4 9 -5 2
BITMAP
10
10
30
20
20
60
40
40
C0
ENDCHAR
STARTCHAR uni0338
ENCODING 824
SWIDTH 0 0
DWIDTH 0 0
BBX 6 14 -5 0
BITMAP
0C
08
18
10
10
30
20
20
60
60
40
C0
C0
80
ENDCHAR
STARTCHAR uni0394
ENCODING 916
SWIDTH 726 0
DWIDTH 13 0
BBX 13 13 0 0
BITMAP
0700
0700
0580
0D80
0880
18C0
18C0
3060
3060
2030
6030
6010
FFF8
ENDCHAR
STARTCHAR uni03A9
ENCODING 937
SWIDTH 892 0
DWIDTH 16 0
BBX 16 13 0 0
BITMAP
07E0
1E78
1818
300C
2004
2004
2006
2004
3004
100C
1818
FC3F
FC3F
ENDCHAR
STARTCHAR uni03BC
ENCODING 956
SWIDTH 672 0
DWIDTH 12 0
BBX 8 14 2 -4
BITMAP
81
81
81
81
81
81
81
C3
FD
F9
80
80
80
80
ENDCHAR
STARTCHAR pi
ENCODING 960
SWIDTH 723 0
DWIDTH 13 0
BBX 13 10 0 0
BITMAP
7FF8
EC40
8840
8840
C840
0840
0840
0840
1840
1840
ENDCHAR
STARTCHAR uni1E08
ENCODING 7688
SWIDTH 699 0
DWIDTH 13 0
BBX 11 21 1 -4
BITMAP
0200
0300
0600
0000
0F80
3FC0
6060
C000
C000
C000
8000
8000
C000
C000
6040
70E0
1FC0
0600
0600
0700
0E00
ENDCHAR
STARTCHAR uni1E09
ENCODING 7689
SWIDTH 562 0
DWIDTH 10 0
BBX 8 18 1 -4
BITMAP
0E
1C
00
00
3E
7F
C1
C0
80
80
C0
C1
7F
3E
08
1C
1C
3C
ENDCHAR
STARTCHAR uni1E0C
ENCODING 7692
SWIDTH 783 0
DWIDTH 14 0
BBX 11 17 2 -4
BITMAP
FF00
FF80
C0C0
C060
C060
C020
C020
C020
C060
C060
C0C0
FF80
FF00
0000
0000
0C00
0C00
ENDCHAR
STARTCHAR uni1E0D
ENCODING 7693
SWIDTH 680 0
DWIDTH 12 0
BBX 10 18 1 -4
BITMAP
00C0
00C0
00C0
00C0
3CC0
7EC0
C1C0
C0C0
80C0
80C0
C0C0
C1C0
7EC0
3CC0
0000
0000
0C00
0C00
ENDCHAR
STARTCHAR uni1E0E
ENCODING 7694
SWIDTH 783 0
DWIDTH 14 0
BBX 11 16 2 -3
BITMAP
FF00
FF80
C0C0
C060
C060
C020
C020
C020
C060
C060
C0C0
FF80
FF00
0000
3E00
3E00
ENDCHAR
STARTCHAR uni1E0F
ENCODING 7695
SWIDTH 680 0
DWIDTH 12 0
BBX 10 17 1 -3
BITMAP
00C0
00C0
00C0
00C0
3CC0
7EC0
C1C0
C0C0
80C0
80C0
C0C0
C1C0
7EC0
3CC0
0000
1F00
1F00
ENDCHAR
STARTCHAR uni1E14
ENCODING 7700
SWIDTH 653 0
DWIDTH 12 0
BBX 9 19 2 0
BITMAP
1000
3800
0C00
3E00
3E00
0000
FF80
FF80
C000
C000
C000
FF00
FF00
C000
C000
C000
C000
FF80
FF80
ENDCHAR
STARTCHAR uni1E15
ENCODING 7701
SWIDTH 588 0
DWIDTH 11 0
BBX 9 16 1 0
BITMAP
1000
3800
0800
3E00
3E00
0000
3E00
7F00
C100
C180
FF80
FF80
C000
C100
7F00
3E00
ENDCHAR
STARTCHAR uni1E16
ENCODING 7702
SWIDTH 653 0
DWIDTH 12 0
BBX 9 19 2 0
BITMAP
0400
0E00
1800
3C00
3C00
0000
FF80
FF80
C000
C000
C000
FF00
FF00
C000
C000
C000
C000
FF80
FF80
ENDCHAR
STARTCHAR uni1E17
ENCODING 7703
SWIDTH 588 0
DWIDTH 11 0
BBX 9 16 1 0
BITMAP
0400
0E00
1800
3E00
3E00
0000
3E00
7F00
C100
C180
FF80
FF80
C000
C100
7F00
3E00
ENDCHAR
STARTCHAR uni1E1C
ENCODING 7708
SWIDTH 653 0
DWIDTH 12 0
BBX 9 21 2 -4
BITMAP
2400
3C00
1800
0000
FF80
FF80
C000
C000
C000
FF00
FF00
C000
C000
C000
C000
FF80
FF80
0800
1C00
1C00
1C00
ENDCHAR
STARTCHAR uni1E1D
ENCODING 7709
SWIDTH 588 0
DWIDTH 11 0
BBX 9 18 1 -4
BITMAP
2600
3C00
0800
0000
3E00
7F00
C180
8180
FF80
8000
C000
C100
6300
3E00
0800
0C00
1C00
1C00
ENDCHAR
STARTCHAR uni1E20
ENCODING 7712
SWIDTH 751 0
DWIDTH 14 0
BBX 11 16 1 0
BITMAP
1F80
1F80
0000
0700
3FC0
7060
6000
C000
C000
83E0
C3E0
C020
C020
6020
39E0
1F80
ENDCHAR
STARTCHAR uni1E21
ENCODING 7713
SWIDTH 638 0
DWIDTH 11 0
BBX 9 18 1 -4
BITMAP
3E00
3E00
0000
0000
3D80
7F80
C180
C180
8180
8180
C180
C180
7F80
3D80
0180
4180
FF00
3E00
ENDCHAR
STARTCHAR uni1E24
ENCODING 7716
SWIDTH 793 0
DWIDTH 14 0
BBX 10 17 2 -4
BITMAP
C040
C040
C040
C040
C040
C040
FFC0
FFC0
C040
C040
C040
C040
C040
0000
0000
0C00
0C00
ENDCHAR
STARTCHAR uni1E25
ENCODING 7717
SWIDTH 665 0
DWIDTH 12 0
BBX 9 18 2 -4
BITMAP
8000
8000
8000
8000
9E00
BF00
C300
C180
8180
8180
8180
8180
8180
8180
0000
0000
1800
1800
ENDCHAR
STARTCHAR uni1E2A
ENCODING 7722
SWIDTH 793 0
DWIDTH 14 0
BBX 10 16 2 -3
BITMAP
C040
C040
C040
C040
C040
C040
FFC0
FFC0
C040
C040
C040
C040
C040
1300
1E00
0E00
ENDCHAR
STARTCHAR uni1E2B
ENCODING 7723
SWIDTH 665 0
DWIDTH 12 0
BBX 9 17 2 -3
BITMAP
8000
8000
8000
8000
9E00
BF00
C300
C180
8180
8180
8180
8180
8180
8180
2600
3C00
1C00
ENDCHAR
STARTCHAR uni1E2E
ENCODING 7726
SWIDTH 296 0
DWIDTH 5 0
BBX 5 19 0 0
BITMAP
10
38
60
D8
48
00
30
30
30
30
30
30
30
30
30
30
30
30
30
ENDCHAR
STARTCHAR uni1E2F
ENCODING 7727
SWIDTH 274 0
DWIDTH 5 0
BBX 5 16 0 0
BITMAP
10
38
60
D8
90
00
20
20
20
20
20
20
20
20
20
20
ENDCHAR
STARTCHAR uni1E36
ENCODING 7734
SWIDTH 524 0
DWIDTH 9 0
BBX 7 17 2 -4
BITMAP
C0
C0
C0
C0
C0
C0
C0
C0
C0
C0
C0
FE
FE
00
00
30
10
ENDCHAR
STARTCHAR uni1E37
ENCODING 7735
SWIDTH 285 0
DWIDTH 5 0
BBX 2 18 2 -4
BITMAP
80
80
80
80
80
80
80
80
80
80
80
80
80
80
00
00
C0
80
ENDCHAR
STARTCHAR uni1E3A
ENCODING 7738
SWIDTH 524 0
DWIDTH 9 0
BBX 7 16 2 -3
BITMAP
C0
C0
C0
C0
C0
C0
C0
C0
C0
C0
C0
FE
FE
00
7C
7C
ENDCHAR
STARTCHAR uni1E3B
ENCODING 7739
SWIDTH 285 0
DWIDTH 5 0
BBX 5 17 0 -3
BITMAP
20
20
20
20
20
20
20
20
20
20
20
20
20
20
00
F8
F8
ENDCHAR
STARTCHAR uni1E42
ENCODING 7746
SWIDTH 939 0
DWIDTH 17 0
BBX 13 17 2 -4
BITMAP
C018
E038
E038
B078
B078
98D8
98D8
8D98
8D98
8718
8718
8218
8018
0000
0000
0600
0200
ENDCHAR
STARTCHAR uni1E43
ENCODING 7747
SWIDTH 1044 0
DWIDTH 19 0
BBX 15 14 2 -4
BITMAP
9E3C
BF7E
C386
C182
8102
8102
8102
8102
8102
8102
0000
0000
0380
0100
ENDCHAR
STARTCHAR uni1E44
ENCODING 7748
SWIDTH 794 0
DWIDTH 14 0
BBX 10 16 2 0
BITMAP
0C00
0C00
0000
C040
E040
E040
F040
D840
D840
CC40
C640
C740
C340
C1C0
C0C0
C0C0
ENDCHAR
STARTCHAR uni1E45
ENCODING 7749
SWIDTH 659 0
DWIDTH 12 0
BBX 9 14 2 0
BITMAP
1800
1800
0000
0000
9E00
BF00
C300
C180
8180
8180
8180
8180
8180
8180
ENDCHAR
STARTCHAR uni1E46
ENCODING 7750
SWIDTH 794 0
DWIDTH 14 0
BBX 10 17 2 -4
BITMAP
C040
E040
E040
F040
D840
D840
CC40
C640
C740
C340
C1C0
C0C0
C0C0
0000
0000
0C00
0C00
ENDCHAR
STARTCHAR uni1E47
ENCODING 7751
SWIDTH 659 0
DWIDTH 12 0
BBX 9 14 2 -4
BITMAP
9E00
BF00
C300
C180
8180
8180
8180
8180
8180
8180
0000
0000
1800
1800
ENDCHAR
STARTCHAR uni1E48
ENCODING 7752
SWIDTH 794 0
DWIDTH 14 0
BBX 10 16 2 -3
BITMAP
C040
E040
E040
F040
D840
D840
CC40
C640
C740
C340
C1C0
C0C0
C0C0
0000
1F00
1F00
ENDCHAR
STARTCHAR uni1E49
ENCODING 7753
SWIDTH 659 0
DWIDTH 12 0
BBX 9 13 2 -3
BITMAP
9E00
BF00
C300
C180
8180
8180
8180
8180
8180
8180
0000
7E00
7E00
ENDCHAR
STARTCHAR uni1E4C
ENCODING 7756
SWIDTH 812 0
DWIDTH 15 0
BBX 13 19 1 0
BITMAP
0100
0380
0600
0C80
0F80
0000
0F80
3FE0
6070
C030
C018
C018
8018
C018
C018
C030
6070
3FE0
0F80
ENDCHAR
STARTCHAR uni1E4D
ENCODING 7757
SWIDTH 621 0
DWIDTH 11 0
BBX 9 17 1 0
BITMAP
0400
0E00
1800
0000
3A00
3E00
0000
3E00
7F00
C180
C080
8080
8080
C080
C180
7F00
3E00
ENDCHAR
STARTCHAR uni1E4E
ENCODING 7758
SWIDTH 812 0
DWIDTH 15 0
BBX 13 18 1 0
BITMAP
0D00
0900
0C80
1F80
0000
0F80
3FE0
6070
C030
C018
C018
8018
C018
C018
C030
6070
3FE0
0F80
ENDCHAR
STARTCHAR uni1E4F
ENCODING 7759
SWIDTH 621 0
DWIDTH 11 0
BBX 9 16 1 0
BITMAP
3600
2400
0000
3200
3E00
0000
3E00
7F00
C180
C080
8080
8080
C080
C180
7F00
3E00
ENDCHAR
STARTCHAR uni1E50
ENCODING 7760
SWIDTH 812 0
DWIDTH 15 0
BBX 13 19 1 0
BITMAP
0400
0E00
0300
0F80
0F80
0000
0F80
3FE0
6070
C030
C018
C018
8018
C018
C018
C030
6070
3FE0
0F80
ENDCHAR
STARTCHAR uni1E51
ENCODING 7761
SWIDTH 621 0
DWIDTH 11 0
BBX 9 16 1 0
BITMAP
1000
3800
0C00
3E00
3E00
0000
3E00
7F00
C180
C080
8080
8080
C080
C180
7F00
3E00
ENDCHAR
STARTCHAR uni1E52
ENCODING 7762
SWIDTH 812 0
DWIDTH 15 0
BBX 13 19 1 0
BITMAP
0100
0380
0600
0F00
0F00
0000
0F80
3FE0
6070
C030
C018
C018
8018
C018
C018
C030
6070
3FE0
0F80
ENDCHAR
STARTCHAR uni1E53
ENCODING 7763
SWIDTH 621 0
DWIDTH 11 0
BBX 9 16 1 0
BITMAP
0400
0E00
1800
3E00
3E00
0000
3E00
7F00
C180
C080
8080
8080
C080
C180
7F00
3E00
ENDCHAR
STARTCHAR uni1E5A
ENCODING 7770
SWIDTH 723 0
DWIDTH 13 0
BBX 10 17 2 -4
BITMAP
FE00
FF80
C180
C0C0
C0C0
C0C0
C180
FF80
FE00
C300
C300
C180
C0C0
0000
0000
1C00
0800
ENDCHAR
STARTCHAR uni1E5B
ENCODING 7771
SWIDTH 382 0
DWIDTH 7 0
BBX 6 14 1 -4
BITMAP
4C
5C
60
60
40
40
40
40
40
40
00
00
C0
40
ENDCHAR
STARTCHAR uni1E5E
ENCODING 7774
SWIDTH 723 0
DWIDTH 13 0
BBX 10 16 2 -3
BITMAP
FE00
FF80
C180
C0C0
C0C0
C0C0
C180
FF80
FE00
C300
C300
C180
C0C0
0000
3E00
3E00
ENDCHAR
STARTCHAR uni1E5F
ENCODING 7775
SWIDTH 382 0
DWIDTH 7 0
BBX 7 13 0 -3
BITMAP
26
2E
30
30
20
20
20
20
20
20
00
FC
FC
ENDCHAR
STARTCHAR uni1E60
ENCODING 7776
SWIDTH 616 0
DWIDTH 11 0
BBX 9 16 1 0
BITMAP
0C00
0800
0000
3F00
7F80
C080
C000
E000
7800
3F00
0780
0180
0180
8180
FF00
3E00
ENDCHAR
STARTCHAR uni1E61
ENCODING 7777
SWIDTH 460 0
DWIDTH 8 0
BBX 8 14 0 0
BITMAP
18
18
00
00
3E
7E
60
60
3C
0E
03
43
FE
3C
ENDCHAR
STARTCHAR uni1E62
ENCODING 7778
SWIDTH 616 0
DWIDTH 11 0
BBX 9 17 1 -4
BITMAP
3F00
7F80
C080
C000
E000
7800
3F00
0780
0180
0180
8180
FF00
3E00
0000
0000
0C00
0C00
ENDCHAR
STARTCHAR uni1E63
ENCODING 7779
SWIDTH 460 0
DWIDTH 8 0
BBX 8 14 0 -4
BITMAP
3E
7E
60
60
3C
0E
03
43
FE
3C
00
00
18
18
ENDCHAR
STARTCHAR uni1E64
ENCODING 7780
SWIDTH 616 0
DWIDTH 11 0
BBX 9 18 1 0
BITMAP
0800
0C00
0E00
1000
0000
3F00
7F80
C080
C000
E000
7800
3F00
0780
0180
0180
8180
FF00
3E00
ENDCHAR
STARTCHAR uni1E65
ENCODING 7781
SWIDTH 460 0
DWIDTH 8 0
BBX 8 16 0 0
BITMAP
18
18
08
1C
30
00
3E
7E
60
60
3C
0E
03
43
FE
3C
ENDCHAR
STARTCHAR uni1E66
ENCODING 7782
SWIDTH 616 0
DWIDTH 11 0
BBX 9 18 1 0
BITMAP
0C00
0C00
3300
1C00
0000
3F00
7F80
C080
C000
E000
7800
3F00
0780
0180
0180
8180
FF00
3E00
ENDCHAR
STARTCHAR uni1E67
ENCODING 7783
SWIDTH 460 0
DWIDTH 8 0
BBX 8 15 0 0
BITMAP
08
18
77
1C
00
3E
7E
60
60
3C
0E
03
43
FE
3C
ENDCHAR
STARTCHAR uni1E68
ENCODING 7784
SWIDTH 616 0
DWIDTH 11 0
BBX 9 20 1 -4
BITMAP
0C00
0800
0000
3F00
7F80
C080
C000
E000
7800
3F00
0780
0180
0180
8180
FF00
3E00
0000
0000
0C00
0C00
ENDCHAR
STARTCHAR uni1E69
ENCODING 7785
SWIDTH 460 0
DWIDTH 8 0
BBX 8 18 0 -4
BITMAP
18
18
00
00
3E
7E
60
60
3C
0E
03
43
FE
3C
00
00
18
18
ENDCHAR
STARTCHAR uni1E6C
ENCODING 7788
SWIDTH 567 0
DWIDTH 10 0
BBX 10 17 0 -4
BITMAP
FFC0
FFC0
0C00
0C00
0C00
0C00
0C00
0C00
0C00
0C00
0C00
0C00
0C00
0000
0000
0C00
0C00
ENDCHAR
STARTCHAR uni1E6D
ENCODING 7789
SWIDTH 397 0
DWIDTH 7 0
BBX 6 17 1 -4
BITMAP
60
60
60
FC
FC
60
60
60
60
60
60
7C
38
00
00
38
10
ENDCHAR
STARTCHAR uni1E6E
ENCODING 7790
SWIDTH 567 0
DWIDTH 10 0
BBX 10 16 0 -3
BITMAP
FFC0
FFC0
0C00
0C00
0C00
0C00
0C00
0C00
0C00
0C00
0C00
0C00
0C00
0000
3F00
3F00
ENDCHAR
STARTCHAR uni1E6F
ENCODING 7791
SWIDTH 397 0
DWIDTH 7 0
BBX 6 16 1 -3
BITMAP
60
60
60
FC
FC
60
60
60
60
60
60
7C
38
00
7C
7C
ENDCHAR
STARTCHAR uni1E78
ENCODING 7800
SWIDTH 762 0
DWIDTH 14 0
BBX 10 19 2 0
BITMAP
0400
0E00
0800
1900
3E00
0000
80C0
80C0
80C0
80C0
80C0
80C0
80C0
80C0
80C0
C0C0
C1C0
7F80
3E00
ENDCHAR
STARTCHAR uni1E79
ENCODING 7801
SWIDTH 649 0
DWIDTH 12 0
BBX 9 17 1 0
BITMAP
0400
0E00
0800
0000
1900
3E00
0000
C180
C180
C180
C180
C180
C180
C180
C180
7F80
3D80
ENDCHAR
STARTCHAR uni1E7A
ENCODING 7802
SWIDTH 762 0
DWIDTH 14 0
BBX 10 18 2 0
BITMAP
3600
1200
3E00
3E00
0000
80C0
80C0
80C0
80C0
80C0
80C0
80C0
80C0
80C0
C0C0
C1C0
7F80
3E00
ENDCHAR
STARTCHAR uni1E7B
ENCODING 7803
SWIDTH 649 0
DWIDTH 12 0
BBX 9 15 1 0
BITMAP
3600
1400
3E00
3E00
0000
C180
C180
C180
C180
C180
C180
C180
C180
7F80
3D80
ENDCHAR
STARTCHAR Wgrave
ENCODING 7808
SWIDTH 1046 0
DWIDTH 19 0
BBX 19 17 0 0
BITMAP
018000
01C000
004000
000000
C0C060
40E040
60E0C0
60A0C0
21B080
313180
311180
131900
131B00
1A0B00
0E0A00
0E0E00
0C0600
ENDCHAR
STARTCHAR wgrave
ENCODING 7809
SWIDTH 876 0
DWIDTH 16 0
BBX 16 14 0 0
BITMAP
0600
0300
0180
0000
C183
4182
63C6
63C6
2244
366C
366C
1428
1C38
1838
ENDCHAR
STARTCHAR Wacute
ENCODING 7810
SWIDTH 1046 0
DWIDTH 19 0
BBX 19 17 0 0
BITMAP
003000
006000
00C000
000000
C0C060
40E040
60E0C0
60A0C0
21B080
313180
311180
131900
131B00
1A0B00
0E0A00
0E0E00
0C0600
ENDCHAR
STARTCHAR wacute
ENCODING 7811
SWIDTH 876 0
DWIDTH 16 0
BBX 16 14 0 0
BITMAP
00E0
00C0
0180
0000
C183
4182
63C6
63C6
2244
366C
366C
1428
1C38
1838
ENDCHAR
STARTCHAR Wdieresis
ENCODING 7812
SWIDTH 1046 0
DWIDTH 19 0
BBX 19 16 0 0
BITMAP
012000
01B000
000000
C0C060
40E040
60E0C0
60A0C0
21B080
313180
311180
131900
131B00
1A0B00
0E0A00
0E0E00
0C0600
ENDCHAR
STARTCHAR wdieresis
ENCODING 7813
SWIDTH 876 0
DWIDTH 16 0
BBX 16 14 0 0
BITMAP
0240
0640
0000
0000
C183
4182
63C6
63C6
2244
366C
366C
1428
1C38
1838
ENDCHAR
STARTCHAR uni1E8E
ENCODING 7822
SWIDTH 630 0
DWIDTH 11 0
BBX 11 16 0 0
BITMAP
0600
0600
0000
C060
6040
60C0
3080
1180
1B00
0F00
0E00
0600
0600
0600
0600
0600
ENDCHAR
STARTCHAR uni1E8F
ENCODING 7823
SWIDTH 514 0
DWIDTH 9 0
BBX 9 18 0 -4
BITMAP
0C00
0C00
0000
0000
C180
4180
6100
6300
2300
3200
3600
1600
1C00
0C00
0800
1800
F800
F000
ENDCHAR
STARTCHAR uni1E92
ENCODING 7826
SWIDTH 662 0
DWIDTH 12 0
BBX 10 17 1 -4
BITMAP
FFC0
FFC0
0180
0300
0700
0600
0C00
1800
3000
3000
6000
FFC0
FFC0
0000
0000
0C00
0C00
ENDCHAR
STARTCHAR uni1E93
ENCODING 7827
SWIDTH 531 0
DWIDTH 10 0
BBX 8 14 1 -4
BITMAP
FF
FF
06
0C
18
30
30
60
FF
FF
00
00
18
18
ENDCHAR
STARTCHAR uni1E97
ENCODING 7831
SWIDTH 397 0
DWIDTH 7 0
BBX 7 16 0 0
BITMAP
48
D8
00
30
30
30
7E
7E
30
30
30
30
30
30
3E
1C
ENDCHAR
STARTCHAR uni1E9E
ENCODING 7838
SWIDTH 676 0
DWIDTH 12 0
BBX 10 13 2 0
BITMAP
3E00
7F80
C180
8300
8600
8C00
8F00
8180
8080
80C0
8180
8F80
8F00
ENDCHAR
STARTCHAR uni1EA0
ENCODING 7840
SWIDTH 726 0
DWIDTH 13 0
BBX 13 17 0 -4
BITMAP
0700
0700
0580
0D80
0880
18C0
1840
3060
3FE0
3FF0
6030
4010
C018
0000
0000
0700
0200
ENDCHAR
STARTCHAR uni1EA1
ENCODING 7841
SWIDTH 581 0
DWIDTH 10 0
BBX 8 14 1 -4
BITMAP
3E
FF
43
03
7F
FF
83
C3
FF
7B
00
00
18
18
ENDCHAR
STARTCHAR uni1EA2
ENCODING 7842
SWIDTH 726 0
DWIDTH 13 0
BBX 13 19 0 0
BITMAP
0200
0700
0100
0300
0200
0000
0700
0700
0580
0D80
0880
18C0
1840
3060
3FE0
3FF0
6030
4010
C018
ENDCHAR
STARTCHAR uni1EA3
ENCODING 7843
SWIDTH 581 0
DWIDTH 10 0
BBX 8 15 1 0
BITMAP
08
3C
0C
08
08
3E
FF
43
03
7F
FF
83
C3
FF
7B
ENDCHAR
STARTCHAR uni1EA4
ENCODING 7844
SWIDTH 726 0
DWIDTH 13 0
BBX 13 19 0 0
BITMAP
0100
0380
0600
0700
1DC0
0000
0700
0700
0580
0D80
0880
18C0
1840
3060
3FE0
3FF0
6030
4010
C018
ENDCHAR
STARTCHAR uni1EA5
ENCODING 7845
SWIDTH 581 0
DWIDTH 10 0
BBX 8 16 1 0
BITMAP
04
0E
18
3C
66
00
3E
FF
43
03
7F
FF
83
C3
FF
7B
ENDCHAR
STARTCHAR uni1EA6
ENCODING 7846
SWIDTH 726 0
DWIDTH 13 0
BBX 13 19 0 0
BITMAP
0400
0E00
0300
0700
1DC0
0000
0700
0700
0580
0D80
0880
18C0
1840
3060
3FE0
3FF0
6030
4010
C018
ENDCHAR
STARTCHAR uni1EA7
ENCODING 7847
SWIDTH 581 0
DWIDTH 10 0
BBX 8 16 1 0
BITMAP
20
70
08
3C
66
00
3E
FF
43
03
7F
FF
83
C3
FF
7B
ENDCHAR
STARTCHAR uni1EA8
ENCODING 7848
SWIDTH 726 0
DWIDTH 13 0
BBX 13 19 0 0
BITMAP
0700
0100
0200
0700
0CC0
0000
0700
0700
0580
0D80
0880
18C0
1840
3060
3FE0
3FF0
6030
4010
C018
ENDCHAR
STARTCHAR uni1EA9
ENCODING 7849
SWIDTH 581 0
DWIDTH 10 0
BBX 8 16 1 0
BITMAP
1C
08
18
3C
66
00
3E
FF
43
03
7F
FF
83
C3
FF
7B
ENDCHAR
STARTCHAR uni1EAA
ENCODING 7850
SWIDTH 726 0
DWIDTH 13 0
BBX 13 18 0 0
BITMAP
0E80
0F80
0700
1DC0
0000
0700
0700
0580
0D80
0880
18C0
1840
3060
3FE0
3FF0
6030
4010
C018
ENDCHAR
STARTCHAR uni1EAB
ENCODING 7851
SWIDTH 581 0
DWIDTH 10 0
BBX 8 15 1 0
BITMAP
32
7E
1C
66
00
3E
FF
43
03
7F
FF
83
C3
FF
7B
ENDCHAR
STARTCHAR uni1EAC
ENCODING 7852
SWIDTH 726 0
DWIDTH 13 0
BBX 13 21 0 -4
BITMAP
0200
0700
0D80
0000
0700
0700
0580
0D80
0880
18C0
1840
3060
3FE0
3FF0
6030
4010
C018
0000
0000
0700
0200
ENDCHAR
STARTCHAR uni1EAD
ENCODING 7853
SWIDTH 581 0
DWIDTH 10 0
BBX 8 19 1 -4
BITMAP
18
3C
66
00
00
3E
FF
43
03
7F
FF
83
C3
FF
7B
00
00
18
18
ENDCHAR
STARTCHAR uni1EAE
ENCODING 7854
SWIDTH 726 0
DWIDTH 13 0
BBX 13 19 0 0
BITMAP
0100
0380
0E80
0700
0200
0000
0700
0700
0580
0D80
0880
18C0
1840
3060
3FE0
3FF0
6030
4010
C018
ENDCHAR
STARTCHAR uni1EAF
ENCODING 7855
SWIDTH 581 0
DWIDTH 10 0
BBX 8 16 1 0
BITMAP
04
0E
3E
3C
08
00
3E
FF
43
03
7F
FF
83
C3
FF
7B
ENDCHAR
STARTCHAR uni1EB0
ENCODING 7856
SWIDTH 726 0
DWIDTH 13 0
BBX 13 19 0 0
BITMAP
0400
0E00
0F80
0780
0200
0000
0700
0700
0580
0D80
0880
18C0
1840
3060
3FE0
3FF0
6030
4010
C018
ENDCHAR
STARTCHAR uni1EB1
ENCODING 7857
SWIDTH 581 0
DWIDTH 10 0
BBX 8 16 1 0
BITMAP
20
70
2E
3C
08
00
3E
FF
43
03
7F
FF
83
C3
FF
7B
ENDCHAR
STARTCHAR uni1EB2
ENCODING 7858
SWIDTH 726 0
DWIDTH 13 0
BBX 13 19 0 0
BITMAP
0700
0300
0A80
0780
0200
0000
0700
0700
0580
0D80
0880
18C0
1840
3060
3FE0
3FF0
6030
4010
C018
ENDCHAR
STARTCHAR uni1EB3
ENCODING 7859
SWIDTH 581 0
DWIDTH 10 0
BBX 8 16 1 0
BITMAP
1C
08
3E
3C
08
00
3E
FF
43
03
7F
FF
83
C3
FF
7B
ENDCHAR
STARTCHAR uni1EB4
ENCODING 7860
SWIDTH 726 0
DWIDTH 13 0
BBX 13 18 0 0
BITMAP
0E80
0F80
0700
0200
0000
0700
0700
0580
0D80
0880
18C0
1840
3060
3FE0
3FF0
6030
4010
C018
ENDCHAR
STARTCHAR uni1EB5
ENCODING 7861
SWIDTH 581 0
DWIDTH 10 0
BBX 8 16 1 0
BITMAP
32
7E
24
3C
08
00
3E
FF
43
03
7F
FF
83
C3
FF
7B
ENDCHAR
STARTCHAR uni1EB6
ENCODING 7862
SWIDTH 726 0
DWIDTH 13 0
BBX 13 21 0 -4
BITMAP
0880
0F80
0700
0000
0700
0700
0580
0D80
0880
18C0
1840
3060
3FE0
3FF0
6030
4010
C018
0000
0000
0700
0200
ENDCHAR
STARTCHAR uni1EB7
ENCODING 7863
SWIDTH 581 0
DWIDTH 10 0
BBX 8 18 1 -4
BITMAP
26
3C
1C
00
3E
FF
43
03
7F
FF
83
C3
FF
7B
00
00
18
18
ENDCHAR
STARTCHAR uni1EB8
ENCODING 7864
SWIDTH 653 0
DWIDTH 12 0
BBX 9 17 2 -4
BITMAP
FF80
FF80
C000
C000
C000
FF00
FF00
C000
C000
C000
C000
FF80
FF80
0000
0000
1800
1800
ENDCHAR
STARTCHAR uni1EB9
ENCODING 7865
SWIDTH 588 0
DWIDTH 11 0
BBX 9 14 1 -4
BITMAP
3E00
7F00
C100
C180
FF80
FF80
C000
C100
7F00
3E00
0000
0000
1800
1800
ENDCHAR
STARTCHAR uni1EBA
ENCODING 7866
SWIDTH 653 0
DWIDTH 12 0
BBX 9 19 2 0
BITMAP
0800
1C00
0400
0C00
0800
0000
FF80
FF80
C000
C000
C000
FF00
FF00
C000
C000
C000
C000
FF80
FF80
ENDCHAR
STARTCHAR uni1EBB
ENCODING 7867
SWIDTH 588 0
DWIDTH 11 0
BBX 9 15 1 0
BITMAP
0800
1C00
0400
0C00
0800
3E00
7F00
C100
C180
FF80
FF80
C000
C100
7F00
3E00
ENDCHAR
STARTCHAR uni1EBC
ENCODING 7868
SWIDTH 653 0
DWIDTH 12 0
BBX 9 17 2 0
BITMAP
3A00
3E00
0000
0000
FF80
FF80
C000
C000
C000
FF00
FF00
C000
C000
C000
C000
FF80
FF80
ENDCHAR
STARTCHAR uni1EBD
ENCODING 7869
SWIDTH 588 0
DWIDTH 11 0
BBX 9 14 1 0
BITMAP
3A00
3E00
0000
0000
3E00
7F00
C100
C180
FF80
FF80
C000
C100
7F00
3E00
ENDCHAR
STARTCHAR uni1EBE
ENCODING 7870
SWIDTH 653 0
DWIDTH 12 0
BBX 9 19 2 0
BITMAP
0400
0E00
1800
1C00
7600
0000
FF80
FF80
C000
C000
C000
FF00
FF00
C000
C000
C000
C000
FF80
FF80
ENDCHAR
STARTCHAR uni1EBF
ENCODING 7871
SWIDTH 588 0
DWIDTH 11 0
BBX 9 16 1 0
BITMAP
0400
0E00
1800
1C00
7600
0000
3E00
7F00
C100
C180
FF80
FF80
C000
C100
7F00
3E00
ENDCHAR
STARTCHAR uni1EC0
ENCODING 7872
SWIDTH 653 0
DWIDTH 12 0
BBX 9 19 2 0
BITMAP
1000
3800
0800
1C00
7600
0000
FF80
FF80
C000
C000
C000
FF00
FF00
C000
C000
C000
C000
FF80
FF80
ENDCHAR
STARTCHAR uni1EC1
ENCODING 7873
SWIDTH 588 0
DWIDTH 11 0
BBX 9 16 1 0
BITMAP
1000
3800
0800
1C00
7600
0000
3E00
7F00
C100
C180
FF80
FF80
C000
C100
7F00
3E00
ENDCHAR
STARTCHAR uni1EC2
ENCODING 7874
SWIDTH 653 0
DWIDTH 12 0
BBX 9 19 2 0
BITMAP
1C00
0400
0800
1C00
7700
0000
FF80
FF80
C000
C000
C000
FF00
FF00
C000
C000
C000
C000
FF80
FF80
ENDCHAR
STARTCHAR uni1EC3
ENCODING 7875
SWIDTH 588 0
DWIDTH 11 0
BBX 9 16 1 0
BITMAP
1C00
0C00
0800
1C00
7600
0000
3E00
7F00
C100
C180
FF80
FF80
C000
C100
7F00
3E00
ENDCHAR
STARTCHAR uni1EC4
ENCODING 7876
SWIDTH 653 0
DWIDTH 12 0
BBX 9 18 2 0
BITMAP
3200
3E00
1C00
7600
0000
FF80
FF80
C000
C000
C000
FF00
FF00
C000
C000
C000
C000
FF80
FF80
ENDCHAR
STARTCHAR uni1EC5
ENCODING 7877
SWIDTH 588 0
DWIDTH 11 0
BBX 9 15 1 0
BITMAP
3200
3E00
1C00
7600
0000
3E00
7F00
C100
C180
FF80
FF80
C000
C100
7F00
3E00
ENDCHAR
STARTCHAR uni1EC6
ENCODING 7878
SWIDTH 653 0
DWIDTH 12 0
BBX 9 21 2 -4
BITMAP
1800
1C00
3600
0000
FF80
FF80
C000
C000
C000
FF00
FF00
C000
C000
C000
C000
FF80
FF80
0000
0000
1800
1800
ENDCHAR
STARTCHAR uni1EC7
ENCODING 7879
SWIDTH 588 0
DWIDTH 11 0
BBX 9 19 1 -4
BITMAP
1800
1C00
3600
0000
0000
3E00
7F00
C100
C180
FF80
FF80
C000
C100
7F00
3E00
0000
0000
1800
1800
ENDCHAR
STARTCHAR uni1EC8
ENCODING 7880
SWIDTH 296 0
DWIDTH 5 0
BBX 3 19 1 0
BITMAP
40
E0
20
20
40
00
60
60
60
60
60
60
60
60
60
60
60
60
60
ENDCHAR
STARTCHAR uni1EC9
ENCODING 7881
SWIDTH 274 0
DWIDTH 5 0
BBX 3 15 1 0
BITMAP
40
E0
20
60
40
40
40
40
40
40
40
40
40
40
40
ENDCHAR
STARTCHAR uni1ECA
ENCODING 7882
SWIDTH 296 0
DWIDTH 5 0
BBX 2 17 2 -4
BITMAP
C0
C0
C0
C0
C0
C0
C0
C0
C0
C0
C0
C0
C0
00
00
C0
C0
ENDCHAR
STARTCHAR uni1ECB
ENCODING 7883
SWIDTH 274 0
DWIDTH 5 0
BBX 3 18 1 -4
BITMAP
E0
40
00
00
40
40
40
40
40
40
40
40
40
40
00
00
E0
40
ENDCHAR
STARTCHAR uni1ECC
ENCODING 7884
SWIDTH 812 0
DWIDTH 15 0
BBX 13 17 1 -4
BITMAP
0F80
3FE0
6070
C030
C018
C018
8018
C018
C018
C030
6070
3FE0
0F80
0000
0000
0600
0600
ENDCHAR
STARTCHAR uni1ECD
ENCODING 7885
SWIDTH 621 0
DWIDTH 11 0
BBX 9 14 1 -4
BITMAP
3E00
7F00
C180
C080
8080
8080
C080
C180
7F00
3E00
0000
0000
0C00
0800
ENDCHAR
STARTCHAR uni1ECE
ENCODING 7886
SWIDTH 812 0
DWIDTH 15 0
BBX 13 19 1 0
BITMAP
0200
0700
0100
0300
0200
0000
0F80
3FE0
6070
C030
C018
C018
8018
C018
C018
C030
6070
3FE0
0F80
ENDCHAR
STARTCHAR uni1ECF
ENCODING 7887
SWIDTH 621 0
DWIDTH 11 0
BBX 9 15 1 0
BITMAP
0800
1C00
0400
0C00
0800
3E00
7F00
C180
C080
8080
8080
C080
C180
7F00
3E00
ENDCHAR
STARTCHAR uni1ED0
ENCODING 7888
SWIDTH 812 0
DWIDTH 15 0
BBX 13 19 1 0
BITMAP
0100
0380
0600
0700
1D80
0000
0F80
3FE0
6070
C030
C018
C018
8018
C018
C018
C030
6070
3FE0
0F80
ENDCHAR
STARTCHAR uni1ED1
ENCODING 7889
SWIDTH 621 0
DWIDTH 11 0
BBX 9 16 1 0
BITMAP
0400
0E00
1800
1C00
7700
0000
3E00
7F00
C180
C080
8080
8080
C080
C180
7F00
3E00
ENDCHAR
STARTCHAR uni1ED2
ENCODING 7890
SWIDTH 812 0
DWIDTH 15 0
BBX 13 19 1 0
BITMAP
0400
0E00
0200
0700
1D80
0000
0F80
3FE0
6070
C030
C018
C018
8018
C018
C018
C030
6070
3FE0
0F80
ENDCHAR
STARTCHAR uni1ED3
ENCODING 7891
SWIDTH 621 0
DWIDTH 11 0
BBX 9 16 1 0
BITMAP
1000
3800
0C00
1C00
7700
0000
3E00
7F00
C180
C080
8080
8080
C080
C180
7F00
3E00
ENDCHAR
STARTCHAR uni1ED4
ENCODING 7892
SWIDTH 812 0
DWIDTH 15 0
BBX 13 19 1 0
BITMAP
0700
0100
0200
0700
1DC0
0000
0F80
3FE0
6070
C030
C018
C018
8018
C018
C018
C030
6070
3FE0
0F80
ENDCHAR
STARTCHAR uni1ED5
ENCODING 7893
SWIDTH 621 0
DWIDTH 11 0
BBX 9 16 1 0
BITMAP
1C00
0400
0800
1C00
7700
0000
3E00
7F00
C180
C080
8080
8080
C080
C180
7F00
3E00
ENDCHAR
STARTCHAR uni1ED6
ENCODING 7894
SWIDTH 812 0
DWIDTH 15 0
BBX 13 18 1 0
BITMAP
0C80
0F80
0700
1D80
0000
0F80
3FE0
6070
C030
C018
C018
8018
C018
C018
C030
6070
3FE0
0F80
ENDCHAR
STARTCHAR uni1ED7
ENCODING 7895
SWIDTH 621 0
DWIDTH 11 0
BBX 9 15 1 0
BITMAP
3A00
3E00
1C00
3700
0000
3E00
7F00
C180
C080
8080
8080
C080
C180
7F00
3E00
ENDCHAR
STARTCHAR uni1ED8
ENCODING 7896
SWIDTH 812 0
DWIDTH 15 0
BBX 13 21 1 -4
BITMAP
0600
0700
0D80
0000
0F80
3FE0
6070
C030
C018
C018
8018
C018
C018
C030
6070
3FE0
0F80
0000
0000
0600
0600
ENDCHAR
STARTCHAR uni1ED9
ENCODING 7897
SWIDTH 621 0
DWIDTH 11 0
BBX 9 19 1 -4
BITMAP
0800
1C00
3600
0000
0000
3E00
7F00
C180
C080
8080
8080
C080
C180
7F00
3E00
0000
0000
0C00
0800
ENDCHAR
STARTCHAR uni1EDA
ENCODING 7898
SWIDTH 837 0
DWIDTH 15 0
BBX 13 17 1 0
BITMAP
0180
0300
0610
0018
0F90
3FE0
6070
C030
C018
C018
8018
C018
C018
C030
6070
3FE0
0F80
ENDCHAR
STARTCHAR uni1EDB
ENCODING 7899
SWIDTH 651 0
DWIDTH 12 0
BBX 10 14 1 0
BITMAP
0600
0C00
0440
0040
3EC0
7F80
C180
C080
8080
8080
C080
C180
7F00
3E00
ENDCHAR
STARTCHAR uni1EDC
ENCODING 7900
SWIDTH 837 0
DWIDTH 15 0
BBX 13 17 1 0
BITMAP
0C00
0C00
0210
0018
0F90
3FE0
6070
C030
C018
C018
8018
C018
C018
C030
6070
3FE0
0F80
ENDCHAR
STARTCHAR uni1EDD
ENCODING 7901
SWIDTH 651 0
DWIDTH 12 0
BBX 10 14 1 0
BITMAP
3000
1800
0840
0040
3EC0
7F80
C180
C080
8080
8080
C080
C180
7F00
3E00
ENDCHAR
STARTCHAR uni1EDE
ENCODING 7902
SWIDTH 837 0
DWIDTH 15 0
BBX 13 19 1 0
BITMAP
0200
0700
0100
0300
0210
0018
0F90
3FE0
6070
C030
C018
C018
8018
C018
C018
C030
6070
3FE0
0F80
ENDCHAR
STARTCHAR uni1EDF
ENCODING 7903
SWIDTH 651 0
DWIDTH 12 0
BBX 10 15 1 0
BITMAP
0800
1C00
0400
0C40
0840
3EC0
7F80
C180
C080
8080
8080
C080
C180
7F00
3E00
ENDCHAR
STARTCHAR uni1EE0
ENCODING 7904
SWIDTH 837 0
DWIDTH 15 0
BBX 13 17 1 0
BITMAP
0E80
0F80
0010
0018
0F90
3FE0
6070
C030
C018
C018
8018
C018
C018
C030
6070
3FE0
0F80
ENDCHAR
STARTCHAR uni1EE1
ENCODING 7905
SWIDTH 651 0
DWIDTH 12 0
BBX 10 14 1 0
BITMAP
3A00
3E00
0040
0040
3EC0
7F80
C180
C080
8080
8080
C080
C180
7F00
3E00
ENDCHAR
STARTCHAR uni1EE2
ENCODING 7906
SWIDTH 837 0
DWIDTH 15 0
BBX 13 19 1 -4
BITMAP
0010
0018
0F90
3FE0
6070
C030
C018
C018
8018
C018
C018
C030
6070
3FE0
0F80
0000
0000
0600
0600
ENDCHAR
STARTCHAR uni1EE3
ENCODING 7907
SWIDTH 652 0
DWIDTH 12 0
BBX 10 16 1 -4
BITMAP
0040
0040
3EC0
7F80
C180
C080
8080
8080
C080
C180
7F00
3E00
0000
0000
0C00
0800
ENDCHAR
STARTCHAR uni1EE4
ENCODING 7908
SWIDTH 762 0
DWIDTH 14 0
BBX 10 17 2 -4
BITMAP
80C0
80C0
80C0
80C0
80C0
80C0
80C0
80C0
80C0
C0C0
C1C0
7F80
3E00
0000
0000
0C00
0C00
ENDCHAR
STARTCHAR uni1EE5
ENCODING 7909
SWIDTH 649 0
DWIDTH 12 0
BBX 9 14 1 -4
BITMAP
C180
C180
C180
C180
C180
C180
C180
C180
7F80
3D80
0000
0000
0C00
0C00
ENDCHAR
STARTCHAR uni1EE6
ENCODING 7910
SWIDTH 762 0
DWIDTH 14 0
BBX 10 19 2 0
BITMAP
0800
1C00
0600
0400
0C00
0000
80C0
80C0
80C0
80C0
80C0
80C0
80C0
80C0
80C0
C0C0
C1C0
7F80
3E00
ENDCHAR
STARTCHAR uni1EE7
ENCODING 7911
SWIDTH 649 0
DWIDTH 12 0
BBX 9 15 1 0
BITMAP
0800
1C00
0400
0400
0C00
C180
C180
C180
C180
C180
C180
C180
C180
7F80
3D80
ENDCHAR
STARTCHAR uni1EE8
ENCODING 7912
SWIDTH 787 0
DWIDTH 14 0
BBX 12 17 2 0
BITMAP
0300
0610
0C30
0010
80E0
80C0
80C0
80C0
80C0
80C0
80C0
80C0
80C0
C0C0
C1C0
7F80
3E00
ENDCHAR
STARTCHAR uni1EE9
ENCODING 7913
SWIDTH 654 0
DWIDTH 12 0
BBX 11 14 1 0
BITMAP
0700
0E20
0460
0060
C1C0
C180
C180
C180
C180
C180
C180
C180
7F80
3D80
ENDCHAR
STARTCHAR uni1EEA
ENCODING 7914
SWIDTH 787 0
DWIDTH 14 0
BBX 12 17 2 0
BITMAP
3000
1810
0C30
0010
80E0
80C0
80C0
80C0
80C0
80C0
80C0
80C0
80C0
C0C0
C1C0
7F80
3E00
ENDCHAR
STARTCHAR uni1EEB
ENCODING 7915
SWIDTH 654 0
DWIDTH 12 0
BBX 11 14 1 0
BITMAP
3000
1820
0C60
0060
C1C0
C180
C180
C180
C180
C180
C180
C180
7F80
3D80
ENDCHAR
STARTCHAR uni1EEC
ENCODING 7916
SWIDTH 787 0
DWIDTH 14 0
BBX 12 19 2 0
BITMAP
0800
1C00
0600
0410
0C30
0010
80E0
80C0
80C0
80C0
80C0
80C0
80C0
80C0
80C0
C0C0
C1C0
7F80
3E00
ENDCHAR
STARTCHAR uni1EED
ENCODING 7917
SWIDTH 654 0
DWIDTH 12 0
BBX 11 15 1 0
BITMAP
0800
1C00
0620
0460
0C60
C1C0
C180
C180
C180
C180
C180
C180
C180
7F80
3D80
ENDCHAR
STARTCHAR uni1EEE
ENCODING 7918
SWIDTH 787 0
DWIDTH 14 0
BBX 12 17 2 0
BITMAP
1B00
3E10
0030
0010
80E0
80C0
80C0
80C0
80C0
80C0
80C0
80C0
80C0
C0C0
C1C0
7F80
3E00
ENDCHAR
STARTCHAR uni1EEF
ENCODING 7919
SWIDTH 654 0
DWIDTH 12 0
BBX 11 14 1 0
BITMAP
1B00
3E20
0060
0060
C1C0
C180
C180
C180
C180
C180
C180
C180
7F80
3D80
ENDCHAR
STARTCHAR uni1EF0
ENCODING 7920
SWIDTH 787 0
DWIDTH 14 0
BBX 12 20 2 -4
BITMAP
0010
0030
0010
80E0
80C0
80C0
80C0
80C0
80C0
80C0
80C0
80C0
C0C0
C1C0
7F80
3E00
0000
0000
0C00
0C00
ENDCHAR
STARTCHAR uni1EF1
ENCODING 7921
SWIDTH 654 0
DWIDTH 12 0
BBX 11 17 1 -4
BITMAP
0020
0060
0060
C1C0
C180
C180
C180
C180
C180
C180
C180
7F80
3D80
0000
0000
0C00
0C00
ENDCHAR
STARTCHAR Ygrave
ENCODING 7922
SWIDTH 630 0
DWIDTH 11 0
BBX 11 17 0 0
BITMAP
1800
0C00
0600
0000
C060
6040
60C0
3080
1180
1B00
0F00
0E00
0600
0600
0600
0600
0600
ENDCHAR
STARTCHAR ygrave
ENCODING 7923
SWIDTH 514 0
DWIDTH 9 0
BBX 9 18 0 -4
BITMAP
3000
1800
0C00
0000
C180
4180
6100
6300
2300
3200
3600
1600
1C00
0C00
0800
1800
F800
F000
ENDCHAR
STARTCHAR uni1EF4
ENCODING 7924
SWIDTH 630 0
DWIDTH 11 0
BBX 11 17 0 -4
BITMAP
C060
6040
60C0
3080
1180
1B00
0F00
0E00
0600
0600
0600
0600
0600
0000
0000
0600
0600
ENDCHAR
STARTCHAR uni1EF5
ENCODING 7925
SWIDTH 514 0
DWIDTH 9 0
BBX 9 14 0 -4
BITMAP
C180
4180
6100
6300
2300
3200
3600
1600
1C00
0C00
0800
1800
FB00
F300
ENDCHAR
STARTCHAR uni1EF6
ENCODING 7926
SWIDTH 630 0
DWIDTH 11 0
BBX 11 19 0 0
BITMAP
0400
0E00
0200
0200
0400
0000
C060
6040
60C0
3080
1180
1B00
0F00
0E00
0600
0600
0600
0600
0600
ENDCHAR
STARTCHAR uni1EF7
ENCODING 7927
SWIDTH 514 0
DWIDTH 9 0
BBX 9 19 0 -4
BITMAP
0800
1C00
0400
0400
0800
C180
4180
6100
6300
2300
3200
3600
1600
1C00
0C00
0800
1800
F800
F000
ENDCHAR
STARTCHAR uni1EF8
ENCODING 7928
SWIDTH 630 0
DWIDTH 11 0
BBX 11 17 0 0
BITMAP
1D00
1F00
0000
0000
C060
6040
60C0
3080
1180
1B00
0F00
0E00
0600
0600
0600
0600
0600
ENDCHAR
STARTCHAR uni1EF9
ENCODING 7929
SWIDTH 514 0
DWIDTH 9 0
BBX 9 18 0 -4
BITMAP
3A00
3E00
0000
0000
C180
4180
6100
6300
2300
3200
3600
1600
1C00
0C00
0800
1800
F800
F000
ENDCHAR
STARTCHAR uni2007
ENCODING 8199
SWIDTH 700 0
DWIDTH 13 0
BBX 1 1 0 0
BITMAP
00
ENDCHAR
STARTCHAR uni2008
ENCODING 8200
SWIDTH 207 0
DWIDTH 4 0
BBX 1 1 0 0
BITMAP
00
ENDCHAR
STARTCHAR uni2009
ENCODING 8201
SWIDTH 200 0
DWIDTH 4 0
BBX 1 1 0 0
BITMAP
00
ENDCHAR
STARTCHAR uni200A
ENCODING 8202
SWIDTH 100 0
DWIDTH 2 0
BBX 1 1 0 0
BITMAP
00
ENDCHAR
STARTCHAR uni200B
ENCODING 8203
SWIDTH 0 0
DWIDTH 0 0
BBX 1 1 0 0
BITMAP
00
ENDCHAR
STARTCHAR uni2010
ENCODING 8208
SWIDTH 366 0
DWIDTH 7 0
BBX 4 2 1 5
BITMAP
F0
F0
ENDCHAR
STARTCHAR figuredash
ENCODING 8210
SWIDTH 617 0
DWIDTH 11 0
BBX 11 2 0 5
BITMAP
FFE0
FFE0
ENDCHAR
STARTCHAR endash
ENCODING 8211
SWIDTH 404 0
DWIDTH 7 0
BBX 7 2 0 5
BITMAP
FE
FE
ENDCHAR
STARTCHAR emdash
ENCODING 8212
SWIDTH 706 0
DWIDTH 13 0
BBX 13 2 0 5
BITMAP
FFF8
FFF8
ENDCHAR
STARTCHAR uni2015
ENCODING 8213
SWIDTH 706 0
DWIDTH 13 0
BBX 13 2 0 5
BITMAP
FFF8
FFF8
ENDCHAR
STARTCHAR quoteleft
ENCODING 8216
SWIDTH 204 0
DWIDTH 4 0
BBX 2 4 1 10
BITMAP
40
80
C0
80
ENDCHAR
STARTCHAR quoteright
ENCODING 8217
SWIDTH 204 0
DWIDTH 4 0
BBX 2 4 1 10
BITMAP
C0
C0
80
80
ENDCHAR
STARTCHAR quotesinglbase
ENCODING 8218
SWIDTH 204 0
DWIDTH 4 0
BBX 2 4 1 -2
BITMAP
C0
C0
80
80
ENDCHAR
STARTCHAR quotedblleft
ENCODING 8220
SWIDTH 340 0
DWIDTH 6 0
BBX 4 4 1 10
BITMAP
50
90
F0
B0
ENDCHAR
STARTCHAR quotedblright
ENCODING 8221
SWIDTH 340 0
DWIDTH 6 0
BBX 4 4 1 10
BITMAP
F0
F0
90
A0
ENDCHAR
STARTCHAR quotedblbase
ENCODING 8222
SWIDTH 340 0
DWIDTH 6 0
BBX 4 4 1 -2
BITMAP
F0
F0
90
A0
ENDCHAR
STARTCHAR dagger
ENCODING 8224
SWIDTH 524 0
DWIDTH 9 0
BBX 9 17 0 -4
BITMAP
0800
0800
0800
0800
FF80
FF80
0800
0800
0800
0800
0800
0800
0800
0800
0800
0800
0800
ENDCHAR
STARTCHAR daggerdbl
ENCODING 8225
SWIDTH 524 0
DWIDTH 9 0
BBX 9 17 0 -4
BITMAP
0800
0800
0800
0800
FF80
FF80
0800
0800
0800
0800
0800
FF80
FF80
0800
0800
0800
0800
ENDCHAR
STARTCHAR bullet
ENCODING 8226
SWIDTH 262 0
DWIDTH 5 0
BBX 3 3 1 3
BITMAP
C0
E0
C0
ENDCHAR
STARTCHAR ellipsis
ENCODING 8230
SWIDTH 582 0
DWIDTH 10 0
BBX 9 2 1 0
BITMAP
8900
D980
ENDCHAR
STARTCHAR perthousand
ENCODING 8240
SWIDTH 1399 0
DWIDTH 25 0
BBX 23 13 1 0
BITMAP
781800
FC3000
842000
844000
84C000
84BC3C
CD7E7E
7A4242
264242
044242
084242
183E7E
303C3C
ENDCHAR
STARTCHAR minute
ENCODING 8242
SWIDTH 187 0
DWIDTH 3 0
BBX 2 5 1 8
BITMAP
C0
80
80
80
80
ENDCHAR
STARTCHAR second
ENCODING 8243
SWIDTH 331 0
DWIDTH 6 0
BBX 4 5 1 8
BITMAP
D0
B0
B0
B0
B0
ENDCHAR
STARTCHAR guilsinglleft
ENCODING 8249
SWIDTH 274 0
DWIDTH 5 0
BBX 3 6 1 2
BITMAP
60
40
80
80
40
60
ENDCHAR
STARTCHAR guilsinglright
ENCODING 8250
SWIDTH 274 0
DWIDTH 5 0
BBX 3 6 1 2
BITMAP
C0
40
60
60
40
C0
ENDCHAR
STARTCHAR fraction
ENCODING 8260
SWIDTH 67 0
DWIDTH 1 0
BBX 11 13 -5 0
BITMAP
0060
00C0
0080
0100
0300
0200
0400
0800
1800
1000
2000
6000
C000
ENDCHAR
STARTCHAR uni2070
ENCODING 8304
SWIDTH 444 0
DWIDTH 8 0
BBX 6 8 1 6
BITMAP
78
FC
84
84
84
84
FC
78
ENDCHAR
STARTCHAR uni2074
ENCODING 8308
SWIDTH 352 0
DWIDTH 6 0
BBX 6 8 0 6
BITMAP
10
20
20
48
48
FC
08
08
ENDCHAR
STARTCHAR uni2075
ENCODING 8309
SWIDTH 382 0
DWIDTH 7 0
BBX 5 8 1 6
BITMAP
F8
F8
80
F0
F8
08
F8
70
ENDCHAR
STARTCHAR uni2076
ENCODING 8310
SWIDTH 402 0
DWIDTH 7 0
BBX 6 8 1 6
BITMAP
78
F8
80
B8
F8
8C
F8
78
ENDCHAR
STARTCHAR uni2077
ENCODING 8311
SWIDTH 319 0
DWIDTH 6 0
BBX 6 8 0 6
BITMAP
FC
FC
88
18
10
30
20
60
ENDCHAR
STARTCHAR uni2078
ENCODING 8312
SWIDTH 408 0
DWIDTH 7 0
BBX 6 8 1 6
BITMAP
70
F8
88
70
F8
8C
F8
78
ENDCHAR
STARTCHAR uni2079
ENCODING 8313
SWIDTH 402 0
DWIDTH 7 0
BBX 6 8 1 7
BITMAP
70
F8
88
8C
F8
28
F8
F0
ENDCHAR
STARTCHAR uni2080
ENCODING 8320
SWIDTH 444 0
DWIDTH 8 0
BBX 6 8 1 -2
BITMAP
78
FC
84
84
84
84
FC
78
ENDCHAR
STARTCHAR uni2081
ENCODING 8321
SWIDTH 232 0
DWIDTH 4 0
BBX 3 8 0 -2
BITMAP
E0
E0
20
20
20
20
20
20
ENDCHAR
STARTCHAR uni2082
ENCODING 8322
SWIDTH 351 0
DWIDTH 6 0
BBX 6 8 0 -2
BITMAP
78
F8
08
08
10
20
7C
FC
ENDCHAR
STARTCHAR uni2083
ENCODING 8323
SWIDTH 348 0
DWIDTH 6 0
BBX 6 8 0 -2
BITMAP
78
78
10
38
3C
0C
F8
78
ENDCHAR
STARTCHAR uni2084
ENCODING 8324
SWIDTH 352 0
DWIDTH 6 0
BBX 6 8 0 -2
BITMAP
10
20
20
48
48
FC
08
08
ENDCHAR
STARTCHAR uni2085
ENCODING 8325
SWIDTH 382 0
DWIDTH 7 0
BBX 5 8 1 -2
BITMAP
F8
F8
80
F0
F8
08
F8
70
ENDCHAR
STARTCHAR uni2086
ENCODING 8326
SWIDTH 402 0
DWIDTH 7 0
BBX 6 8 1 -2
BITMAP
78
F8
80
B8
F8
8C
F8
78
ENDCHAR
STARTCHAR uni2087
ENCODING 8327
SWIDTH 319 0
DWIDTH 6 0
BBX 6 8 0 -2
BITMAP
FC
FC
88
18
10
30
20
60
ENDCHAR
STARTCHAR uni2088
ENCODING 8328
SWIDTH 408 0
DWIDTH 7 0
BBX 6 8 1 -2
BITMAP
70
F8
88
70
F8
8C
F8
78
ENDCHAR
STARTCHAR uni2089
ENCODING 8329
SWIDTH 402 0
DWIDTH 7 0
BBX 6 8 1 -2
BITMAP
70
F8
88
8C
F8
28
F8
F0
ENDCHAR
STARTCHAR colonmonetary
ENCODING 8353
SWIDTH 699 0
DWIDTH 13 0
BBX 11 18 1 -2
BITMAP
0580
0500
0D00
1F80
3FC0
6060
C000
C000
C000
8000
C000
C000
C000
6040
3FE0
0F80
0B00
0B00
ENDCHAR
STARTCHAR franc
ENCODING 8355
SWIDTH 567 0
DWIDTH 10 0
BBX 10 13 0 0
BITMAP
3FC0
3FC0
3000
3000
3000
3000
3F80
3F80
3000
FF00
FF00
3000
3000
ENDCHAR
STARTCHAR lira
ENCODING 8356
SWIDTH 544 0
DWIDTH 10 0
BBX 8 13 1 0
BITMAP
1E
3F
61
60
FC
FC
60
FC
FC
60
60
FF
FF
ENDCHAR
STARTCHAR uni20A6
ENCODING 8358
SWIDTH 763 0
DWIDTH 14 0
BBX 13 13 0 0
BITMAP
3030
3830
3830
3C30
FFF8
FFF8
3330
FFF8
FFF8
30F0
30F0
3070
3030
ENDCHAR
STARTCHAR peseta
ENCODING 8359
SWIDTH 1480 0
DWIDTH 27 0
BBX 24 13 2 0
BITMAP
FE0000
FF1800
C19800
C1BF1E
C1BF3F
C19860
C19860
FF183C
FE180E
C01803
C01843
C00F7F
C00F3E
ENDCHAR
STARTCHAR uni20A9
ENCODING 8361
SWIDTH 960 0
DWIDTH 17 0
BBX 17 13 0 0
BITMAP
C0C180
61C180
61C100
616300
216300
FFFF80
322200
FFFF80
FFFF80
1E1400
1C1400
0C1C00
0C1800
ENDCHAR
STARTCHAR dong
ENCODING 8363
SWIDTH 678 0
DWIDTH 12 0
BBX 11 17 1 -3
BITMAP
00C0
07E0
07E0
00C0
3CC0
7EC0
C1C0
C0C0
80C0
80C0
C0C0
C1C0
7EC0
3CC0
0000
7F80
7F80
ENDCHAR
STARTCHAR Euro
ENCODING 8364
SWIDTH 792 0
DWIDTH 14 0
BBX 13 13 1 0
BITMAP
07E0
1FF8
3810
3000
FF00
FF00
6000
FF00
FF00
3000
1810
0FF8
07C0
ENDCHAR
STARTCHAR uni20AD
ENCODING 8365
SWIDTH 649 0
DWIDTH 12 0
BBX 11 13 0 0
BITMAP
60E0
61C0
6180
6300
6600
6C00
FFC0
6C00
6600
6300
6180
60C0
6060
ENDCHAR
STARTCHAR uni20B1
ENCODING 8369
SWIDTH 762 0
DWIDTH 14 0
BBX 12 13 1 0
BITMAP
7F80
7FC0
60C0
FFF0
FFF0
FFF0
FFF0
7FC0
7F80
6000
6000
6000
6000
ENDCHAR
STARTCHAR uni20B2
ENCODING 8370
SWIDTH 725 0
DWIDTH 13 0
BBX 11 18 1 -3
BITMAP
0200
0200
0700
1FC0
7060
6020
C000
C000
8000
8020
C020
C020
6020
7060
1FC0
0600
0200
0200
ENDCHAR
STARTCHAR uni20B5
ENCODING 8373
SWIDTH 699 0
DWIDTH 13 0
BBX 11 18 1 -3
BITMAP
0600
0600
0700
1FC0
70E0
6040
C000
C000
8000
8000
C000
C000
6040
70E0
1FC0
0700
0600
0600
ENDCHAR
STARTCHAR uni20B9
ENCODING 8377
SWIDTH 593 0
DWIDTH 11 0
BBX 9 13 1 0
BITMAP
FF80
FF80
0300
0300
FF80
0300
0700
FE00
FC00
0600
0300
0300
0180
ENDCHAR
STARTCHAR uni20BA
ENCODING 8378
SWIDTH 672 0
DWIDTH 12 0
BBX 11 13 1 0
BITMAP
6000
6180
6E00
F000
E380
7C00
E060
6060
6040
60C0
6180
7F00
7E00
ENDCHAR
STARTCHAR uni20BC
ENCODING 8380
SWIDTH 737 0
DWIDTH 13 0
BBX 12 13 1 0
BITMAP
0600
0600
1F80
77C0
6660
C660
C630
8630
8630
8630
8630
8630
8630
ENDCHAR
STARTCHAR uni20BD
ENCODING 8381
SWIDTH 671 0
DWIDTH 12 0
BBX 12 13 0 0
BITMAP
3F80
3FE0
3060
3030
3030
3020
3060
3FC0
3E00
FF00
FF00
3000
3000
ENDCHAR
STARTCHAR uni2113
ENCODING 8467
SWIDTH 466 0
DWIDTH 8 0
BBX 7 13 1 0
BITMAP
1C
32
22
24
24
28
78
70
60
C0
C2
6C
38
ENDCHAR
STARTCHAR uni2116
ENCODING 8470
SWIDTH 1193 0
DWIDTH 21 0
BBX 18 13 2 0
BITMAP
C04780
E047C0
E04C40
F04C40
D847C0
D84100
CC4000
C647C0
C747C0
C34000
C1C000
C0C000
C0C000
ENDCHAR
STARTCHAR trademark
ENCODING 8482
SWIDTH 880 0
DWIDTH 16 0
BBX 15 8 0 5
BITMAP
FD86
2186
21CA
214A
2172
2132
2122
2102
ENDCHAR
STARTCHAR uni2126
ENCODING 8486
SWIDTH 892 0
DWIDTH 16 0
BBX 16 13 0 0
BITMAP
07E0
1E78
1818
300C
2004
2004
2006
2004
3004
100C
1818
FC3F
FC3F
ENDCHAR
STARTCHAR estimated
ENCODING 8494
SWIDTH 809 0
DWIDTH 15 0
BBX 12 12 1 0
BITMAP
0F80
1040
2020
4030
C030
C030
FFC0
C000
4000
2020
1040
0F80
ENDCHAR
STARTCHAR uni2153
ENCODING 8531
SWIDTH 820 0
DWIDTH 15 0
BBX 14 13 0 0
BITMAP
E020
E040
20C0
2180
2100
22F8
26F8
2430
0838
1038
300C
20F8
4070
ENDCHAR
STARTCHAR uni2154
ENCODING 8532
SWIDTH 884 0
DWIDTH 16 0
BBX 15 13 0 0
BITMAP
7808
F810
0820
0860
1040
20BE
41BE
FF08
FE0E
040E
0C02
083E
101C
ENDCHAR
STARTCHAR oneeighth
ENCODING 8539
SWIDTH 790 0
DWIDTH 14 0
BBX 13 13 0 0
BITMAP
E060
E040
2080
2180
2100
2270
26F8
2C88
0870
10F8
3088
20F8
C078
ENDCHAR
STARTCHAR threeeighths
ENCODING 8540
SWIDTH 875 0
DWIDTH 16 0
BBX 15 13 0 0
BITMAP
7818
7830
1020
3840
0CC0
0DBC
F97E
7A22
063C
043E
0842
107E
303C
ENDCHAR
STARTCHAR fiveeighths
ENCODING 8541
SWIDTH 906 0
DWIDTH 16 0
BBX 15 13 1 0
BITMAP
F810
F820
8060
F0C0
F880
0938
8B7C
FA44
2438
087C
1846
107C
203C
ENDCHAR
STARTCHAR seveneighths
ENCODING 8542
SWIDTH 814 0
DWIDTH 15 0
BBX 14 13 0 0
BITMAP
FC30
FC60
88C0
1880
1100
3378
22FC
64C8
0C78
18FC
1084
20FC
6078
ENDCHAR
STARTCHAR arrowleft
ENCODING 8592
SWIDTH 600 0
DWIDTH 11 0
BBX 7 8 2 1
BITMAP
30
60
40
FE
FE
60
20
30
ENDCHAR
STARTCHAR arrowup
ENCODING 8593
SWIDTH 600 0
DWIDTH 11 0
BBX 7 8 2 1
BITMAP
10
7C
D6
92
10
10
10
10
ENDCHAR
STARTCHAR arrowright
ENCODING 8594
SWIDTH 600 0
DWIDTH 11 0
BBX 8 8 1 1
BITMAP
0C
04
06
FF
FE
06
04
08
ENDCHAR
STARTCHAR arrowdown
ENCODING 8595
SWIDTH 600 0
DWIDTH 11 0
BBX 7 8 2 1
BITMAP
18
18
18
18
DA
7E
3C
10
ENDCHAR
STARTCHAR arrowboth
ENCODING 8596
SWIDTH 693 0
DWIDTH 12 0
BBX 11 8 1 1
BITMAP
3100
6180
40C0
FFE0
FFC0
60C0
2180
3100
ENDCHAR
STARTCHAR arrowupdn
ENCODING 8597
SWIDTH 600 0
DWIDTH 11 0
BBX 7 11 2 1
BITMAP
30
7C
D6
92
10
10
10
92
FE
38
10
ENDCHAR
STARTCHAR uni2196
ENCODING 8598
SWIDTH 600 0
DWIDTH 11 0
BBX 7 7 2 2
BITMAP
1C
78
60
F0
D8
8E
44
ENDCHAR
STARTCHAR uni2197
ENCODING 8599
SWIDTH 600 0
DWIDTH 11 0
BBX 7 7 2 2
BITMAP
20
7C
0C
1E
36
62
C4
ENDCHAR
STARTCHAR uni2198
ENCODING 8600
SWIDTH 600 0
DWIDTH 11 0
BBX 7 7 2 2
BITMAP
40
C2
66
36
1C
0C
7C
ENDCHAR
STARTCHAR uni2199
ENCODING 8601
SWIDTH 600 0
DWIDTH 11 0
BBX 7 7 2 2
BITMAP
04
86
CC
D8
70
70
3C
ENDCHAR
STARTCHAR partialdiff
ENCODING 8706
SWIDTH 606 0
DWIDTH 11 0
BBX 9 13 1 0
BITMAP
7C00
C700
0300
0180
0180
7D80
C380
C180
8180
8180
C300
7F00
3C00
ENDCHAR
STARTCHAR emptyset
ENCODING 8709
SWIDTH 487 0
DWIDTH 9 0
BBX 9 8 0 2
BITMAP
1D80
3700
4500
4900
5100
6300
7600
9C00
ENDCHAR
STARTCHAR uni2206
ENCODING 8710
SWIDTH 675 0
DWIDTH 12 0
BBX 12 13 0 0
BITMAP
0600
0F00
0F00
0980
1980
1080
30C0
30C0
6060
6060
4030
FFF0
FFF0
ENDCHAR
STARTCHAR product
ENCODING 8719
SWIDTH 753 0
DWIDTH 14 0
BBX 10 18 2 -4
BITMAP
FFC0
FFC0
80C0
80C0
80C0
80C0
80C0
80C0
80C0
80C0
80C0
80C0
80C0
80C0
80C0
80C0
80C0
80C0
ENDCHAR
STARTCHAR summation
ENCODING 8721
SWIDTH 609 0
DWIDTH 11 0
BBX 10 17 1 -3
BITMAP
FFC0
FFC0
4000
6000
3000
1800
0C00
0400
0600
0C00
1800
1000
3000
6000
C000
FFC0
FFC0
ENDCHAR
STARTCHAR minus
ENCODING 8722
SWIDTH 494 0
DWIDTH 9 0
BBX 7 2 1 5
BITMAP
FE
FE
ENDCHAR
STARTCHAR uni2215
ENCODING 8725
SWIDTH 323 0
DWIDTH 6 0
BBX 7 18 0 -2
BITMAP
06
06
04
0C
0C
08
18
18
10
30
30
20
20
60
40
40
C0
80
ENDCHAR
STARTCHAR uni2219
ENCODING 8729
SWIDTH 262 0
DWIDTH 5 0
BBX 3 4 1 3
BITMAP
40
E0
E0
40
ENDCHAR
STARTCHAR radical
ENCODING 8730
SWIDTH 682 0
DWIDTH 12 0
BBX 12 17 0 -3
BITMAP
0030
0030
0020
0060
0060
0040
0040
F0C0
10C0
1880
1980
0980
0900
0D00
0700
0600
0600
ENDCHAR
STARTCHAR infinity
ENCODING 8734
SWIDTH 883 0
DWIDTH 16 0
BBX 14 7 1 2
BITMAP
7CF8
C58C
8304
8304
8304
CCCC
7878
ENDCHAR
STARTCHAR integral
ENCODING 8747
SWIDTH 325 0
DWIDTH 6 0
BBX 6 18 0 -2
BITMAP
1C
1C
30
20
20
20
20
30
30
30
30
30
30
30
10
30
30
E0
ENDCHAR
STARTCHAR approxequal
ENCODING 8776
SWIDTH 494 0
DWIDTH 9 0
BBX 7 6 1 3
BITMAP
F6
DC
00
00
76
DC
ENDCHAR
STARTCHAR notequal
ENCODING 8800
SWIDTH 494 0
DWIDTH 9 0
BBX 7 10 1 1
BITMAP
0C
08
FE
FE
10
10
FE
FE
20
60
ENDCHAR
STARTCHAR lessequal
ENCODING 8804
SWIDTH 494 0
DWIDTH 9 0
BBX 7 12 1 0
BITMAP
02
06
1C
70
80
E0
38
0E
02
00
FE
FE
ENDCHAR
STARTCHAR greaterequal
ENCODING 8805
SWIDTH 494 0
DWIDTH 9 0
BBX 7 12 1 0
BITMAP
80
C0
70
0C
02
0E
38
E0
80
00
FE
FE
ENDCHAR
STARTCHAR filledbox
ENCODING 9632
SWIDTH 600 0
DWIDTH 11 0
BBX 7 8 2 1
BITMAP
FE
FE
FE
FE
FE
FE
FE
FE
ENDCHAR
STARTCHAR uni25A1
ENCODING 9633
SWIDTH 600 0
DWIDTH 11 0
BBX 7 8 2 1
BITMAP
FE
FE
82
82
82
82
FE
FE
ENDCHAR
STARTCHAR triagup
ENCODING 9650
SWIDTH 600 0
DWIDTH 11 0
BBX 7 8 2 1
BITMAP
10
10
38
38
7C
7C
FE
FE
ENDCHAR
STARTCHAR uni25B3
ENCODING 9651
SWIDTH 600 0
DWIDTH 11 0
BBX 7 8 2 1
BITMAP
10
10
38
28
4C
44
86
FE
ENDCHAR
STARTCHAR uni25B6
ENCODING 9654
SWIDTH 600 0
DWIDTH 11 0
BBX 8 8 2 1
BITMAP
80
E0
F8
FE
FF
F8
E0
80
ENDCHAR
STARTCHAR uni25B7
ENCODING 9655
SWIDTH 600 0
DWIDTH 11 0
BBX 8 8 2 1
BITMAP
80
E0
B8
8E
8F
B8
E0
80
ENDCHAR
STARTCHAR triagdn
ENCODING 9660
SWIDTH 600 0
DWIDTH 11 0
BBX 7 8 2 1
BITMAP
FE
FE
7C
7C
38
38
10
10
ENDCHAR
STARTCHAR uni25BD
ENCODING 9661
SWIDTH 600 0
DWIDTH 11 0
BBX 7 8 2 1
BITMAP
FE
86
44
4C
28
38
10
10
ENDCHAR
STARTCHAR uni25C0
ENCODING 9664
SWIDTH 600 0
DWIDTH 11 0
BBX 8 8 1 1
BITMAP
01
07
1F
7F
FF
1F
07
01
ENDCHAR
STARTCHAR uni25C1
ENCODING 9665
SWIDTH 600 0
DWIDTH 11 0
BBX 8 8 1 1
BITMAP
01
07
19
71
E1
19
07
01
ENDCHAR
STARTCHAR uni25C6
ENCODING 9670
SWIDTH 600 0
DWIDTH 11 0
BBX 10 10 0 0
BITMAP
0400
0E00
1F00
3F80
7FC0
FFC0
3F80
1F00
0E00
0400
ENDCHAR
STARTCHAR uni25C7
ENCODING 9671
SWIDTH 600 0
DWIDTH 11 0
BBX 10 10 0 0
BITMAP
0400
0E00
1300
2180
60C0
E0C0
3180
1300
0E00
0400
ENDCHAR
STARTCHAR lozenge
ENCODING 9674
SWIDTH 528 0
DWIDTH 10 0
BBX 8 13 1 0
BITMAP
10
10
38
2C
64
46
83
C2
46
6C
38
18
10
ENDCHAR
STARTCHAR uniA78B
ENCODING 42891
SWIDTH 255 0
DWIDTH 5 0
BBX 2 7 1 6
BITMAP
C0
C0
C0
C0
C0
C0
C0
ENDCHAR
STARTCHAR uniA78C
ENCODING 42892
SWIDTH 253 0
DWIDTH 5 0
BBX 2 7 1 6
BITMAP
C0
C0
C0
C0
C0
C0
C0
ENDCHAR
STARTCHAR fi
ENCODING 64257
SWIDTH 616 0
DWIDTH 11 0
BBX 9 14 1 0
BITMAP
3D80
7980
6000
6000
F900
F900
6100
6100
6100
6100
6100
6100
6100
6100
ENDCHAR
STARTCHAR fl
ENCODING 64258
SWIDTH 638 0
DWIDTH 11 0
BBX 9 14 1 0
BITMAP
3D80
7980
6180
6180
F980
F980
6180
6180
6180
6180
6180
6180
6180
6180
ENDCHAR
STARTCHAR .notdef
ENCODING -1
SWIDTH 587 0
DWIDTH 11 0
BBX 9 13 1 0
BITMAP
FF80
8180
8180
8180
8180
8180
8180
8180
8180
8180
8180
8180
FF80
ENDCHAR
STARTCHAR .null
ENCODING -1
SWIDTH 0 0
DWIDTH 0 0
BBX 1 1 0 0
BITMAP
00
ENDCHAR
STARTCHAR A.ss01
ENCODING -1
SWIDTH 765 0
DWIDTH 14 0
BBX 10 13 2 0
BITMAP
3E00
7F80
C1C0
C0C0
80C0
80C0
80C0
80C0
FFC0
FFC0
80C0
80C0
80C0
ENDCHAR
STARTCHAR Aacute.ss01
ENCODING -1
SWIDTH 765 0
DWIDTH 14 0
BBX 10 17 2 0
BITMAP
0300
0600
0C00
0000
3E00
7F80
C1C0
C0C0
80C0
80C0
80C0
80C0
FFC0
FFC0
80C0
80C0
80C0
ENDCHAR
STARTCHAR Abreve.ss01
ENCODING -1
SWIDTH 765 0
DWIDTH 14 0
BBX 10 17 2 0
BITMAP
3200
1E00
1C00
0000
3E00
7F80
C1C0
C0C0
80C0
80C0
80C0
80C0
FFC0
FFC0
80C0
80C0
80C0
ENDCHAR
STARTCHAR uni1EAE.ss01
ENCODING -1
SWIDTH 765 0
DWIDTH 14 0
BBX 10 19 2 0
BITMAP
0400
0E00
3A00
1E00
0800
0000
3E00
7F80
C1C0
C0C0
80C0
80C0
80C0
80C0
FFC0
FFC0
80C0
80C0
80C0
ENDCHAR
STARTCHAR uni1EB6.ss01
ENCODING -1
SWIDTH 765 0
DWIDTH 14 0
BBX 10 21 2 -4
BITMAP
3200
1E00
1C00
0000
3E00
7F80
C1C0
C0C0
80C0
80C0
80C0
80C0
FFC0
FFC0
80C0
80C0
80C0
0000
0000
0C00
0C00
ENDCHAR
STARTCHAR uni1EB0.ss01
ENCODING -1
SWIDTH 765 0
DWIDTH 14 0
BBX 10 19 2 0
BITMAP
1000
3800
1E00
1E00
0800
0000
3E00
7F80
C1C0
C0C0
80C0
80C0
80C0
80C0
FFC0
FFC0
80C0
80C0
80C0
ENDCHAR
STARTCHAR uni1EB2.ss01
ENCODING -1
SWIDTH 765 0
DWIDTH 14 0
BBX 10 19 2 0
BITMAP
1C00
0400
3A00
1E00
0800
0000
3E00
7F80
C1C0
C0C0
80C0
80C0
80C0
80C0
FFC0
FFC0
80C0
80C0
80C0
ENDCHAR
STARTCHAR uni1EB4.ss01
ENCODING -1
SWIDTH 765 0
DWIDTH 14 0
BBX 10 18 2 0
BITMAP
1900
3E00
1E00
0800
0000
3E00
7F80
C1C0
C0C0
80C0
80C0
80C0
80C0
FFC0
FFC0
80C0
80C0
80C0
ENDCHAR
STARTCHAR Acircumflex.ss01
ENCODING -1
SWIDTH 765 0
DWIDTH 14 0
BBX 10 17 2 0
BITMAP
0C00
1E00
3300
0000
3E00
7F80
C1C0
C0C0
80C0
80C0
80C0
80C0
FFC0
FFC0
80C0
80C0
80C0
ENDCHAR
STARTCHAR uni1EA4.ss01
ENCODING -1
SWIDTH 765 0
DWIDTH 14 0
BBX 10 19 2 0
BITMAP
0200
0600
0800
1E00
3300
0000
3E00
7F80
C1C0
C0C0
80C0
80C0
80C0
80C0
FFC0
FFC0
80C0
80C0
80C0
ENDCHAR
STARTCHAR uni1EAC.ss01
ENCODING -1
SWIDTH 765 0
DWIDTH 14 0
BBX 10 21 2 -4
BITMAP
0C00
1E00
3300
0000
3E00
7F80
C1C0
C0C0
80C0
80C0
80C0
80C0
FFC0
FFC0
80C0
80C0
80C0
0000
0000
0C00
0C00
ENDCHAR
STARTCHAR uni1EA6.ss01
ENCODING -1
SWIDTH 765 0
DWIDTH 14 0
BBX 10 19 2 0
BITMAP
1000
3800
0C00
1E00
3300
0000
3E00
7F80
C1C0
C0C0
80C0
80C0
80C0
80C0
FFC0
FFC0
80C0
80C0
80C0
ENDCHAR
STARTCHAR uni1EA8.ss01
ENCODING -1
SWIDTH 765 0
DWIDTH 14 0
BBX 10 19 2 0
BITMAP
0E00
0400
0C00
1E00
3300
0000
3E00
7F80
C1C0
C0C0
80C0
80C0
80C0
80C0
FFC0
FFC0
80C0
80C0
80C0
ENDCHAR
STARTCHAR uni1EAA.ss01
ENCODING -1
SWIDTH 765 0
DWIDTH 14 0
BBX 10 18 2 0
BITMAP
1900
3E00
1E00
3300
0000
3E00
7F80
C1C0
C0C0
80C0
80C0
80C0
80C0
FFC0
FFC0
80C0
80C0
80C0
ENDCHAR
STARTCHAR uni0200.ss01
ENCODING -1
SWIDTH 765 0
DWIDTH 14 0
BBX 10 17 2 0
BITMAP
6C00
3600
1200
0000
3E00
7F80
C1C0
C0C0
80C0
80C0
80C0
80C0
FFC0
FFC0
80C0
80C0
80C0
ENDCHAR
STARTCHAR Adieresis.alt
ENCODING -1
SWIDTH 726 0
DWIDTH 13 0
BBX 13 13 0 0
BITMAP
3760
3760
0580
0D80
0880
18C0
18C0
3060
3FE0
3FF0
6030
4010
C018
ENDCHAR
STARTCHAR Adieresis.ss01
ENCODING -1
SWIDTH 765 0
DWIDTH 14 0
BBX 10 16 2 0
BITMAP
1200
3600
0000
3E00
7F80
C1C0
C0C0
80C0
80C0
80C0
80C0
FFC0
FFC0
80C0
80C0
80C0
ENDCHAR
STARTCHAR uni1EA0.ss01
ENCODING -1
SWIDTH 765 0
DWIDTH 14 0
BBX 10 17 2 -4
BITMAP
3E00
7F80
C1C0
C0C0
80C0
80C0
80C0
80C0
FFC0
FFC0
80C0
80C0
80C0
0000
0000
0C00
0C00
ENDCHAR
STARTCHAR Agrave.ss01
ENCODING -1
SWIDTH 765 0
DWIDTH 14 0
BBX 10 17 2 0
BITMAP
3000
1800
0C00
0000
3E00
7F80
C1C0
C0C0
80C0
80C0
80C0
80C0
FFC0
FFC0
80C0
80C0
80C0
ENDCHAR
STARTCHAR uni1EA2.ss01
ENCODING -1
SWIDTH 765 0
DWIDTH 14 0
BBX 10 19 2 0
BITMAP
0800
1C00
0600
0400
0C00
0000
3E00
7F80
C1C0
C0C0
80C0
80C0
80C0
80C0
FFC0
FFC0
80C0
80C0
80C0
ENDCHAR
STARTCHAR uni0202.ss01
ENCODING -1
SWIDTH 765 0
DWIDTH 14 0
BBX 10 18 2 0
BITMAP
0800
1E00
1200
2000
0000
3E00
7F80
C1C0
C0C0
80C0
80C0
80C0
80C0
FFC0
FFC0
80C0
80C0
80C0
ENDCHAR
STARTCHAR Amacron.ss01
ENCODING -1
SWIDTH 765 0
DWIDTH 14 0
BBX 10 16 2 0
BITMAP
3F00
3F00
0000
3E00
7F80
C1C0
C0C0
80C0
80C0
80C0
80C0
FFC0
FFC0
80C0
80C0
80C0
ENDCHAR
STARTCHAR Aogonek.ss01
ENCODING -1
SWIDTH 765 0
DWIDTH 14 0
BBX 10 17 2 -4
BITMAP
3E00
7F80
C0C0
C0C0
80C0
80C0
80C0
FFC0
FFC0
80C0
80C0
80C0
80C0
00C0
0180
01C0
01C0
ENDCHAR
STARTCHAR Aring.ss01
ENCODING -1
SWIDTH 765 0
DWIDTH 14 0
BBX 10 18 2 0
BITMAP
0C00
1E00
1E00
0C00
0000
3E00
7F80
C1C0
C0C0
80C0
80C0
80C0
80C0
FFC0
FFC0
80C0
80C0
80C0
ENDCHAR
STARTCHAR Aringacute.ss01
ENCODING -1
SWIDTH 765 0
DWIDTH 14 0
BBX 10 21 2 0
BITMAP
0400
0E00
0800
0C00
1E00
1E00
0C00
0000
3E00
7F80
C1C0
C0C0
80C0
80C0
80C0
80C0
FFC0
FFC0
80C0
80C0
80C0
ENDCHAR
STARTCHAR Atilde.ss01
ENCODING -1
SWIDTH 765 0
DWIDTH 14 0
BBX 10 17 2 0
BITMAP
1B00
3E00
0000
0000
3E00
7F80
C1C0
C0C0
80C0
80C0
80C0
80C0
FFC0
FFC0
80C0
80C0
80C0
ENDCHAR
STARTCHAR uni01C4.ss01
ENCODING -1
SWIDTH 1445 0
DWIDTH 26 0
BBX 23 17 2 0
BITMAP
000198
0000B0
0000E0
000000
FF07FE
FF87FE
C0C00C
C06018
C06030
C023FC
C023FC
C020C0
C06180
C06180
C0C300
FF87FE
FF07FE
ENDCHAR
STARTCHAR uni01C5.ss01
ENCODING -1
SWIDTH 1314 0
DWIDTH 24 0
BBX 21 15 2 0
BITMAP
000330
0001E0
FF00C0
FF8000
C0C000
C067F8
C067F8
C02030
C02060
C023F0
C063F0
C06180
C0C300
FF87F8
FF07F8
ENDCHAR
STARTCHAR E.ss01
ENCODING -1
SWIDTH 581 0
DWIDTH 10 0
BBX 9 13 1 0
BITMAP
3F80
7F00
4000
C000
4000
3E00
3E00
6000
C000
C000
C000
7F80
3F00
ENDCHAR
STARTCHAR Eacute.ss01
ENCODING -1
SWIDTH 581 0
DWIDTH 10 0
BBX 9 17 1 0
BITMAP
0300
0600
0C00
0000
3F80
7F00
4000
C000
4000
3E00
3E00
6000
C000
C000
C000
7F80
3F00
ENDCHAR
STARTCHAR Ebreve.ss01
ENCODING -1
SWIDTH 581 0
DWIDTH 10 0
BBX 9 17 1 0
BITMAP
3200
1E00
1C00
0000
3F80
7F00
4000
C000
4000
3E00
3E00
6000
C000
C000
C000
7F80
3F00
ENDCHAR
STARTCHAR Ecaron.ss01
ENCODING -1
SWIDTH 581 0
DWIDTH 10 0
BBX 9 17 1 0
BITMAP
2200
3400
1C00
0000
3F80
7F00
4000
C000
4000
3E00
3E00
6000
C000
C000
C000
7F80
3F00
ENDCHAR
STARTCHAR uni1E1C.ss01
ENCODING -1
SWIDTH 581 0
DWIDTH 10 0
BBX 9 21 1 -4
BITMAP
2200
3E00
1C00
0000
3F80
7F00
4000
C000
4000
3E00
3E00
6000
C000
C000
C000
7F80
3F00
0800
0400
1E00
1C00
ENDCHAR
STARTCHAR Ecircumflex.ss01
ENCODING -1
SWIDTH 581 0
DWIDTH 10 0
BBX 9 17 1 0
BITMAP
0C00
1E00
3300
0000
3F80
7F00
4000
C000
4000
3E00
3E00
6000
C000
C000
C000
7F80
3F00
ENDCHAR
STARTCHAR uni1EBE.ss01
ENCODING -1
SWIDTH 581 0
DWIDTH 10 0
BBX 9 19 1 0
BITMAP
0200
0600
0800
1E00
3300
0000
3F80
7F00
4000
C000
4000
3E00
3E00
6000
C000
C000
C000
7F80
3F00
ENDCHAR
STARTCHAR uni1EC6.ss01
ENCODING -1
SWIDTH 581 0
DWIDTH 10 0
BBX 9 21 1 -4
BITMAP
0C00
1C00
3700
0000
3F80
7F00
4000
C000
4000
3E00
3E00
6000
C000
C000
C000
7F80
3F00
0000
0000
0C00
0C00
ENDCHAR
STARTCHAR uni1EC0.ss01
ENCODING -1
SWIDTH 581 0
DWIDTH 10 0
BBX 9 19 1 0
BITMAP
1000
3800
0C00
1C00
3300
0000
3F80
7F00
4000
C000
4000
3E00
3E00
6000
C000
C000
C000
7F80
3F00
ENDCHAR
STARTCHAR uni1EC2.ss01
ENCODING -1
SWIDTH 581 0
DWIDTH 10 0
BBX 9 19 1 0
BITMAP
0C00
0400
0C00
1E00
3300
0000
3F80
7F00
4000
C000
4000
3E00
3E00
6000
C000
C000
C000
7F80
3F00
ENDCHAR
STARTCHAR uni1EC4.ss01
ENCODING -1
SWIDTH 581 0
DWIDTH 10 0
BBX 9 18 1 0
BITMAP
1900
3E00
1E00
3300
0000
3F80
7F00
4000
C000
4000
3E00
3E00
6000
C000
C000
C000
7F80
3F00
ENDCHAR
STARTCHAR uni0204.ss01
ENCODING -1
SWIDTH 581 0
DWIDTH 10 0
BBX 9 17 1 0
BITMAP
6C00
3400
1200
0000
3F80
7F00
4000
C000
4000
3E00
3E00
6000
C000
C000
C000
7F80
3F00
ENDCHAR
STARTCHAR Edieresis.ss01
ENCODING -1
SWIDTH 581 0
DWIDTH 10 0
BBX 9 16 1 0
BITMAP
1200
3600
0000
3F80
7F00
4000
C000
4000
3E00
3E00
6000
C000
C000
C000
7F80
3F00
ENDCHAR
STARTCHAR Edotaccent.ss01
ENCODING -1
SWIDTH 581 0
DWIDTH 10 0
BBX 9 16 1 0
BITMAP
0C00
0C00
0000
3F80
7F00
4000
C000
4000
3E00
3E00
6000
C000
C000
C000
7F80
3F00
ENDCHAR
STARTCHAR uni1EB8.ss01
ENCODING -1
SWIDTH 581 0
DWIDTH 10 0
BBX 9 17 1 -4
BITMAP
3F80
7F00
4000
C000
4000
3E00
3E00
6000
C000
C000
C000
7F80
3F00
0000
0000
0C00
0C00
ENDCHAR
STARTCHAR Egrave.ss01
ENCODING -1
SWIDTH 581 0
DWIDTH 10 0
BBX 9 17 1 0
BITMAP
3000
1800
0C00
0000
3F80
7F00
4000
C000
4000
3E00
3E00
6000
C000
C000
C000
7F80
3F00
ENDCHAR
STARTCHAR uni1EBA.ss01
ENCODING -1
SWIDTH 581 0
DWIDTH 10 0
BBX 9 19 1 0
BITMAP
0800
1C00
0600
0400
0C00
0000
3F80
7F00
4000
C000
4000
3E00
3E00
6000
C000
C000
C000
7F80
3F00
ENDCHAR
STARTCHAR uni0206.ss01
ENCODING -1
SWIDTH 581 0
DWIDTH 10 0
BBX 9 18 1 0
BITMAP
0800
1E00
1200
2000
0000
3F80
7F00
4000
C000
4000
3E00
3E00
6000
C000
C000
C000
7F80
3F00
ENDCHAR
STARTCHAR Emacron.ss01
ENCODING -1
SWIDTH 581 0
DWIDTH 10 0
BBX 9 16 1 0
BITMAP
3F00
3F00
0000
3F80
7F00
4000
C000
4000
3E00
3E00
6000
C000
C000
C000
7F80
3F00
ENDCHAR
STARTCHAR uni1E16.ss01
ENCODING -1
SWIDTH 581 0
DWIDTH 10 0
BBX 9 19 1 0
BITMAP
0400
0E00
1800
3E00
3E00
0000
3F80
7F00
4000
C000
4000
3E00
3E00
6000
C000
C000
C000
7F80
3F00
ENDCHAR
STARTCHAR uni1E14.ss01
ENCODING -1
SWIDTH 581 0
DWIDTH 10 0
BBX 9 19 1 0
BITMAP
1000
3800
0400
1E00
1E00
0000
3F80
7F00
4000
C000
4000
3E00
3E00
6000
C000
C000
C000
7F80
3F00
ENDCHAR
STARTCHAR Eogonek.ss01
ENCODING -1
SWIDTH 581 0
DWIDTH 10 0
BBX 9 17 1 -4
BITMAP
3F80
7F00
4000
C000
4000
3E00
3E00
6000
C000
C000
C000
7F80
3F80
0300
0200
0380
0380
ENDCHAR
STARTCHAR uni1EBC.ss01
ENCODING -1
SWIDTH 581 0
DWIDTH 10 0
BBX 9 17 1 0
BITMAP
1B00
3E00
0000
0000
3F80
7F00
4000
C000
4000
3E00
3E00
6000
C000
C000
C000
7F80
3F00
ENDCHAR
STARTCHAR F.ss01
ENCODING -1
SWIDTH 523 0
DWIDTH 9 0
BBX 7 13 2 0
BITMAP
7E
FE
C0
80
80
80
FC
FC
80
80
80
80
80
ENDCHAR
STARTCHAR G.ss01
ENCODING -1
SWIDTH 752 0
DWIDTH 14 0
BBX 11 13 1 0
BITMAP
0F80
3FE0
6020
C000
C000
C000
8020
C020
C020
C020
6060
3FE0
0F20
ENDCHAR
STARTCHAR Gbreve.ss01
ENCODING -1
SWIDTH 752 0
DWIDTH 14 0
BBX 11 17 1 0
BITMAP
1900
0F00
0E00
0000
0F80
3FE0
6020
C000
C000
C000
8020
C020
C020
C020
6060
3FE0
0F20
ENDCHAR
STARTCHAR Gcaron.ss01
ENCODING -1
SWIDTH 752 0
DWIDTH 14 0
BBX 11 17 1 0
BITMAP
1300
1A00
0E00
0000
0F80
3FE0
6020
C000
C000
C000
8020
C020
C020
C020
6060
3FE0
0F20
ENDCHAR
STARTCHAR Gcircumflex.ss01
ENCODING -1
SWIDTH 752 0
DWIDTH 14 0
BBX 11 17 1 0
BITMAP
0600
0E00
1B80
0000
0F80
3FE0
6020
C000
C000
C000
8020
C020
C020
C020
6060
3FE0
0F20
ENDCHAR
STARTCHAR Gcommaaccent.ss01
ENCODING -1
SWIDTH 752 0
DWIDTH 14 0
BBX 11 17 1 -4
BITMAP
0F80
3FE0
6020
C000
C000
C000
8020
C020
C020
C020
6060
3FE0
0F20
0000
0600
0400
0C00
ENDCHAR
STARTCHAR Gdotaccent.ss01
ENCODING -1
SWIDTH 752 0
DWIDTH 14 0
BBX 11 16 1 0
BITMAP
0600
0600
0000
0F80
3FE0
6020
C000
C000
C000
8020
C020
C020
C020
6060
3FE0
0F20
ENDCHAR
STARTCHAR uni1E20.ss01
ENCODING -1
SWIDTH 752 0
DWIDTH 14 0
BBX 11 16 1 0
BITMAP
1F80
1F80
0000
0F80
3FE0
6020
C000
C000
C000
8020
C020
C020
C020
6060
3FE0
0F20
ENDCHAR
STARTCHAR I.ss01
ENCODING -1
SWIDTH 476 0
DWIDTH 9 0
BBX 7 13 1 0
BITMAP
FE
FE
30
30
30
30
30
30
30
30
30
FE
FE
ENDCHAR
STARTCHAR IJ.ss01
ENCODING -1
SWIDTH 966 0
DWIDTH 17 0
BBX 15 15 1 -2
BITMAP
FE7E
FE7E
3006
3006
3006
3006
3006
3006
3006
3006
3006
FE06
FE86
00FC
0078
ENDCHAR
STARTCHAR Iacute.ss01
ENCODING -1
SWIDTH 476 0
DWIDTH 9 0
BBX 7 17 1 0
BITMAP
0C
18
30
00
FE
FE
30
30
30
30
30
30
30
30
30
FE
FE
ENDCHAR
STARTCHAR Iacute_J.loclNLD
ENCODING -1
SWIDTH 786 0
DWIDTH 14 0
BBX 11 17 2 0
BITMAP
60C0
6180
8100
0000
CFE0
CFE0
C060
C060
C060
C060
C060
C060
C060
C060
C840
DFC0
C780
ENDCHAR
STARTCHAR Iacute_J.loclNLD.ss01
ENCODING -1
SWIDTH 966 0
DWIDTH 17 0
BBX 15 19 1 -2
BITMAP
0C06
180C
3018
0000
FE7E
FE7E
3006
3006
3006
3006
3006
3006
3006
3006
3006
FE06
FE86
00FC
0078
ENDCHAR
STARTCHAR Ibreve.ss01
ENCODING -1
SWIDTH 476 0
DWIDTH 9 0
BBX 7 17 1 0
BITMAP
4C
78
38
00
FE
FE
30
30
30
30
30
30
30
30
30
FE
FE
ENDCHAR
STARTCHAR Icircumflex.ss01
ENCODING -1
SWIDTH 476 0
DWIDTH 9 0
BBX 7 17 1 0
BITMAP
30
38
6C
00
FE
FE
30
30
30
30
30
30
30
30
30
FE
FE
ENDCHAR
STARTCHAR uni0208.ss01
ENCODING -1
SWIDTH 476 0
DWIDTH 9 0
BBX 7 17 1 0
BITMAP
D0
D8
6C
00
FE
FE
30
30
30
30
30
30
30
30
30
FE
FE
ENDCHAR
STARTCHAR Idieresis.ss01
ENCODING -1
SWIDTH 476 0
DWIDTH 9 0
BBX 7 16 1 0
BITMAP
48
6C
00
FE
FE
30
30
30
30
30
30
30
30
30
FE
FE
ENDCHAR
STARTCHAR uni1E2E.ss01
ENCODING -1
SWIDTH 476 0
DWIDTH 9 0
BBX 7 19 1 0
BITMAP
08
1C
30
6C
48
00
FE
FE
30
30
30
30
30
30
30
30
30
FE
FE
ENDCHAR
STARTCHAR Idotaccent.ss01
ENCODING -1
SWIDTH 476 0
DWIDTH 9 0
BBX 7 16 1 0
BITMAP
30
30
00
FE
FE
30
30
30
30
30
30
30
30
30
FE
FE
ENDCHAR
STARTCHAR uni1ECA.ss01
ENCODING -1
SWIDTH 476 0
DWIDTH 9 0
BBX 7 17 1 -4
BITMAP
FE
FE
30
30
30
30
30
30
30
30
30
FE
FE
00
00
30
30
ENDCHAR
STARTCHAR Igrave.ss01
ENCODING -1
SWIDTH 476 0
DWIDTH 9 0
BBX 7 17 1 0
BITMAP
60
60
10
00
FE
FE
30
30
30
30
30
30
30
30
30
FE
FE
ENDCHAR
STARTCHAR uni1EC8.ss01
ENCODING -1
SWIDTH 476 0
DWIDTH 9 0
BBX 7 19 1 0
BITMAP
10
38
18
10
10
00
FE
FE
30
30
30
30
30
30
30
30
30
FE
FE
ENDCHAR
STARTCHAR uni020A.ss01
ENCODING -1
SWIDTH 476 0
DWIDTH 9 0
BBX 7 18 1 0
BITMAP
10
78
4C
00
00
FE
FE
30
30
30
30
30
30
30
30
30
FE
FE
ENDCHAR
STARTCHAR Imacron.ss01
ENCODING -1
SWIDTH 476 0
DWIDTH 9 0
BBX 7 16 1 0
BITMAP
7C
7C
00
FE
FE
30
30
30
30
30
30
30
30
30
FE
FE
ENDCHAR
STARTCHAR Iogonek.ss01
ENCODING -1
SWIDTH 476 0
DWIDTH 9 0
BBX 7 17 1 -4
BITMAP
FE
FE
30
30
30
30
30
30
30
30
30
FE
FE
20
60
70
70
ENDCHAR
STARTCHAR Itilde.ss01
ENCODING -1
SWIDTH 476 0
DWIDTH 9 0
BBX 7 17 1 0
BITMAP
74
7C
80
00
FE
FE
30
30
30
30
30
30
30
30
30
FE
FE
ENDCHAR
STARTCHAR J.ss01
ENCODING -1
SWIDTH 490 0
DWIDTH 9 0
BBX 7 15 0 -2
BITMAP
7E
7E
02
02
02
02
02
02
02
02
02
02
86
FE
7C
ENDCHAR
STARTCHAR Jacute
ENCODING -1
SWIDTH 490 0
DWIDTH 9 0
BBX 7 17 0 0
BITMAP
06
0C
18
00
7E
7E
02
02
02
02
02
02
02
02
86
FE
7C
ENDCHAR
STARTCHAR Jacute.ss01
ENCODING -1
SWIDTH 490 0
DWIDTH 9 0
BBX 7 19 0 -2
BITMAP
06
0C
18
00
7E
7E
02
02
02
02
02
02
02
02
02
02
86
FE
7C
ENDCHAR
STARTCHAR Jcircumflex.ss01
ENCODING -1
SWIDTH 490 0
DWIDTH 9 0
BBX 7 19 0 -2
BITMAP
18
1C
36
00
7E
7E
02
02
02
02
02
02
02
02
02
02
86
FE
7C
ENDCHAR
STARTCHAR uni01C7.ss01
ENCODING -1
SWIDTH 1014 0
DWIDTH 18 0
BBX 15 15 2 -2
BITMAP
C07E
C07E
C006
C006
C006
C006
C006
C006
C006
C006
C006
FE06
FE86
01FC
0078
ENDCHAR
STARTCHAR M.ss01
ENCODING -1
SWIDTH 1202 0
DWIDTH 22 0
BBX 18 13 2 0
BITMAP
DF0F00
FFBF80
E1A0C0
C0C0C0
C0C0C0
C0C0C0
C0C0C0
C0C0C0
C0C0C0
C0C0C0
C0C0C0
C0C0C0
C0C0C0
ENDCHAR
STARTCHAR uni1E42.ss01
ENCODING -1
SWIDTH 1202 0
DWIDTH 22 0
BBX 18 17 2 -4
BITMAP
DF0F00
FFBF80
E1A0C0
C0C0C0
C0C0C0
C0C0C0
C0C0C0
C0C0C0
C0C0C0
C0C0C0
C0C0C0
C0C0C0
C0C0C0
000000
000000
00C000
00C000
ENDCHAR
STARTCHAR N.ss01
ENCODING -1
SWIDTH 774 0
DWIDTH 14 0
BBX 10 13 2 0
BITMAP
CF00
FF80
E0C0
C0C0
C040
C040
C040
C040
C040
C040
C040
C040
C040
ENDCHAR
STARTCHAR uni01CA.ss01
ENCODING -1
SWIDTH 1264 0
DWIDTH 23 0
BBX 19 15 2 -2
BITMAP
CF07E0
FF87E0
E0C060
C0C060
C04060
C04060
C04060
C04060
C04060
C04060
C04060
C04060
C04860
000FE0
0007C0
ENDCHAR
STARTCHAR Nacute.ss01
ENCODING -1
SWIDTH 774 0
DWIDTH 14 0
BBX 10 17 2 0
BITMAP
0300
0300
0400
0000
CF00
FF80
E0C0
C0C0
C040
C040
C040
C040
C040
C040
C040
C040
C040
ENDCHAR
STARTCHAR Ncaron.ss01
ENCODING -1
SWIDTH 774 0
DWIDTH 14 0
BBX 10 17 2 0
BITMAP
3300
1E00
0E00
0000
CF00
FF80
E0C0
C0C0
C040
C040
C040
C040
C040
C040
C040
C040
C040
ENDCHAR
STARTCHAR Ncommaaccent.ss01
ENCODING -1
SWIDTH 774 0
DWIDTH 14 0
BBX 10 17 2 -4
BITMAP
CF00
FF80
E0C0
C0C0
C040
C040
C040
C040
C040
C040
C040
C040
C040
0000
0C00
0800
0800
ENDCHAR
STARTCHAR uni1E44.ss01
ENCODING -1
SWIDTH 774 0
DWIDTH 14 0
BBX 10 16 2 0
BITMAP
0600
0600
0000
CF00
FF80
E0C0
C0C0
C040
C040
C040
C040
C040
C040
C040
C040
C040
ENDCHAR
STARTCHAR uni1E46.ss01
ENCODING -1
SWIDTH 774 0
DWIDTH 14 0
BBX 10 17 2 -4
BITMAP
CF00
FF80
E0C0
C0C0
C040
C040
C040
C040
C040
C040
C040
C040
C040
0000
0000
0C00
0C00
ENDCHAR
STARTCHAR Eng.ss01
ENCODING -1
SWIDTH 775 0
DWIDTH 14 0
BBX 10 17 2 -4
BITMAP
CF00
FF80
E0C0
C0C0
C040
C040
C040
C040
C040
C040
C040
C040
C040
0040
08C0
1FC0
0F80
ENDCHAR
STARTCHAR uni01CB.ss01
ENCODING -1
SWIDTH 1037 0
DWIDTH 19 0
BBX 15 18 2 -4
BITMAP
0006
CF06
FF80
E0C0
C0C2
C042
C042
C042
C042
C042
C042
C042
C042
C042
0002
0006
001E
001C
ENDCHAR
STARTCHAR uni1E48.ss01
ENCODING -1
SWIDTH 774 0
DWIDTH 14 0
BBX 10 16 2 -3
BITMAP
CF00
FF80
E0C0
C0C0
C040
C040
C040
C040
C040
C040
C040
C040
C040
0000
3F00
3F00
ENDCHAR
STARTCHAR Ntilde.ss01
ENCODING -1
SWIDTH 774 0
DWIDTH 14 0
BBX 10 17 2 0
BITMAP
1D00
1F00
0000
0000
CF00
FF80
E0C0
C0C0
C040
C040
C040
C040
C040
C040
C040
C040
C040
ENDCHAR
STARTCHAR Q.ss01
ENCODING -1
SWIDTH 812 0
DWIDTH 15 0
BBX 13 15 1 -2
BITMAP
0F80
3FE0
6070
C030
C018
C018
8018
C018
C218
E230
7260
3FC0
0F80
0200
0200
ENDCHAR
STARTCHAR uni018F.ss01
ENCODING -1
SWIDTH 760 0
DWIDTH 14 0
BBX 12 13 1 0
BITMAP
1F00
7FC0
60E0
0060
0070
01F0
0F30
3C30
E030
C060
6060
3FC0
1F00
ENDCHAR
STARTCHAR T.ss01
ENCODING -1
SWIDTH 642 0
DWIDTH 12 0
BBX 10 13 1 0
BITMAP
3F00
FFC0
8CC0
0C00
0C00
0C00
0C00
0C00
0C00
0C00
0C00
0C00
0C00
ENDCHAR
STARTCHAR Tbar.ss01
ENCODING -1
SWIDTH 642 0
DWIDTH 12 0
BBX 10 13 1 0
BITMAP
7F00
FFC0
8C40
0C00
0C00
0C00
7F00
0C00
0C00
0C00
0C00
0C00
0C00
ENDCHAR
STARTCHAR Tcaron.ss01
ENCODING -1
SWIDTH 642 0
DWIDTH 12 0
BBX 10 17 1 0
BITMAP
2600
3400
1C00
0000
3F00
FFC0
8CC0
0C00
0C00
0C00
0C00
0C00
0C00
0C00
0C00
0C00
0C00
ENDCHAR
STARTCHAR uni0162.ss01
ENCODING -1
SWIDTH 642 0
DWIDTH 12 0
BBX 10 17 1 -4
BITMAP
3F00
FFC0
8CC0
0C00
0C00
0C00
0C00
0C00
0C00
0C00
0C00
0C00
0C00
0800
0400
1E00
1C00
ENDCHAR
STARTCHAR uni021A.ss01
ENCODING -1
SWIDTH 642 0
DWIDTH 12 0
BBX 10 17 1 -4
BITMAP
3F00
FFC0
8CC0
0C00
0C00
0C00
0C00
0C00
0C00
0C00
0C00
0C00
0C00
0000
0C00
0800
1800
ENDCHAR
STARTCHAR uni1E6C.ss01
ENCODING -1
SWIDTH 642 0
DWIDTH 12 0
BBX 10 17 1 -4
BITMAP
3F00
FFC0
8CC0
0C00
0C00
0C00
0C00
0C00
0C00
0C00
0C00
0C00
0C00
0000
0000
0C00
0C00
ENDCHAR
STARTCHAR uni1E6E.ss01
ENCODING -1
SWIDTH 642 0
DWIDTH 12 0
BBX 10 16 1 -3
BITMAP
3F00
FFC0
8CC0
0C00
0C00
0C00
0C00
0C00
0C00
0C00
0C00
0C00
0C00
0000
3E00
3E00
ENDCHAR
STARTCHAR U.ss01
ENCODING -1
SWIDTH 774 0
DWIDTH 14 0
BBX 10 13 2 0
BITMAP
80C0
80C0
80C0
80C0
80C0
80C0
80C0
80C0
80C0
C0C0
C1C0
7FC0
3CC0
ENDCHAR
STARTCHAR Uacute.ss01
ENCODING -1
SWIDTH 774 0
DWIDTH 14 0
BBX 10 17 2 0
BITMAP
0300
0600
0C00
0000
80C0
80C0
80C0
80C0
80C0
80C0
80C0
80C0
80C0
C0C0
C1C0
7FC0
3CC0
ENDCHAR
STARTCHAR Ubreve.ss01
ENCODING -1
SWIDTH 774 0
DWIDTH 14 0
BBX 10 17 2 0
BITMAP
1200
1E00
1C00
0000
80C0
80C0
80C0
80C0
80C0
80C0
80C0
80C0
80C0
C0C0
C1C0
7FC0
3CC0
ENDCHAR
STARTCHAR Ucircumflex.ss01
ENCODING -1
SWIDTH 774 0
DWIDTH 14 0
BBX 10 17 2 0
BITMAP
0C00
1E00
3300
0000
80C0
80C0
80C0
80C0
80C0
80C0
80C0
80C0
80C0
C0C0
C1C0
7FC0
3CC0
ENDCHAR
STARTCHAR uni0214.ss01
ENCODING -1
SWIDTH 774 0
DWIDTH 14 0
BBX 10 17 2 0
BITMAP
6C00
3600
1200
0000
80C0
80C0
80C0
80C0
80C0
80C0
80C0
80C0
80C0
C0C0
C1C0
7FC0
3CC0
ENDCHAR
STARTCHAR Udieresis.alt
ENCODING -1
SWIDTH 762 0
DWIDTH 14 0
BBX 10 13 2 0
BITMAP
B6C0
92C0
80C0
80C0
80C0
80C0
80C0
80C0
80C0
C0C0
C1C0
7F80
3F00
ENDCHAR
STARTCHAR Udieresis.ss01
ENCODING -1
SWIDTH 774 0
DWIDTH 14 0
BBX 10 16 2 0
BITMAP
1200
3200
0000
80C0
80C0
80C0
80C0
80C0
80C0
80C0
80C0
80C0
C0C0
C1C0
7FC0
3CC0
ENDCHAR
STARTCHAR Udieresis.ss01.alt
ENCODING -1
SWIDTH 774 0
DWIDTH 14 0
BBX 10 13 2 0
BITMAP
B6C0
92C0
80C0
80C0
80C0
80C0
80C0
80C0
80C0
C0C0
C1C0
7FC0
3EC0
ENDCHAR
STARTCHAR uni1EE4.ss01
ENCODING -1
SWIDTH 774 0
DWIDTH 14 0
BBX 10 17 2 -4
BITMAP
80C0
80C0
80C0
80C0
80C0
80C0
80C0
80C0
80C0
C0C0
C1C0
7FC0
3CC0
0000
0000
0C00
0C00
ENDCHAR
STARTCHAR Ugrave.ss01
ENCODING -1
SWIDTH 774 0
DWIDTH 14 0
BBX 10 17 2 0
BITMAP
3000
1800
0C00
0000
80C0
80C0
80C0
80C0
80C0
80C0
80C0
80C0
80C0
C0C0
C1C0
7FC0
3CC0
ENDCHAR
STARTCHAR uni1EE6.ss01
ENCODING -1
SWIDTH 774 0
DWIDTH 14 0
BBX 10 19 2 0
BITMAP
0800
1E00
0600
0400
0C00
0000
80C0
80C0
80C0
80C0
80C0
80C0
80C0
80C0
80C0
C0C0
C1C0
7FC0
3CC0
ENDCHAR
STARTCHAR Uhorn.ss01
ENCODING -1
SWIDTH 792 0
DWIDTH 14 0
BBX 12 16 2 0
BITMAP
0010
0030
0010
80F0
80C0
80C0
80C0
80C0
80C0
80C0
80C0
80C0
C0C0
C1C0
7FC0
3CC0
ENDCHAR
STARTCHAR uni1EE8.ss01
ENCODING -1
SWIDTH 792 0
DWIDTH 14 0
BBX 12 17 2 0
BITMAP
0300
0610
0C30
0010
80F0
80C0
80C0
80C0
80C0
80C0
80C0
80C0
80C0
C0C0
C1C0
7FC0
3CC0
ENDCHAR
STARTCHAR uni1EF0.ss01
ENCODING -1
SWIDTH 792 0
DWIDTH 14 0
BBX 12 20 2 -4
BITMAP
0010
0030
0010
80F0
80C0
80C0
80C0
80C0
80C0
80C0
80C0
80C0
C0C0
C1C0
7FC0
3CC0
0000
0000
0C00
0C00
ENDCHAR
STARTCHAR uni1EEA.ss01
ENCODING -1
SWIDTH 792 0
DWIDTH 14 0
BBX 12 17 2 0
BITMAP
3000
1810
0C30
0010
80F0
80C0
80C0
80C0
80C0
80C0
80C0
80C0
80C0
C0C0
C1C0
7FC0
3CC0
ENDCHAR
STARTCHAR uni1EEC.ss01
ENCODING -1
SWIDTH 792 0
DWIDTH 14 0
BBX 12 19 2 0
BITMAP
0800
1E00
0600
0410
0C30
0010
80F0
80C0
80C0
80C0
80C0
80C0
80C0
80C0
80C0
C0C0
C1C0
7FC0
3CC0
ENDCHAR
STARTCHAR uni1EEE.ss01
ENCODING -1
SWIDTH 792 0
DWIDTH 14 0
BBX 12 17 2 0
BITMAP
1B00
3E10
0030
0010
80F0
80C0
80C0
80C0
80C0
80C0
80C0
80C0
80C0
C0C0
C1C0
7FC0
3CC0
ENDCHAR
STARTCHAR Uhungarumlaut.ss01
ENCODING -1
SWIDTH 774 0
DWIDTH 14 0
BBX 10 17 2 0
BITMAP
0D00
1B00
1600
0000
80C0
80C0
80C0
80C0
80C0
80C0
80C0
80C0
80C0
C0C0
C1C0
7FC0
3CC0
ENDCHAR
STARTCHAR uni0216.ss01
ENCODING -1
SWIDTH 774 0
DWIDTH 14 0
BBX 10 18 2 0
BITMAP
0800
1E00
1200
0000
0000
80C0
80C0
80C0
80C0
80C0
80C0
80C0
80C0
80C0
C0C0
C1C0
7FC0
3CC0
ENDCHAR
STARTCHAR Umacron.ss01
ENCODING -1
SWIDTH 774 0
DWIDTH 14 0
BBX 10 16 2 0
BITMAP
3F00
3F00
0000
80C0
80C0
80C0
80C0
80C0
80C0
80C0
80C0
80C0
C0C0
C1C0
7FC0
3CC0
ENDCHAR
STARTCHAR uni1E7A.ss01
ENCODING -1
SWIDTH 774 0
DWIDTH 14 0
BBX 10 18 2 0
BITMAP
3600
1200
3E00
3E00
0000
80C0
80C0
80C0
80C0
80C0
80C0
80C0
80C0
80C0
C0C0
C1C0
7FC0
3CC0
ENDCHAR
STARTCHAR Uogonek.ss01
ENCODING -1
SWIDTH 774 0
DWIDTH 14 0
BBX 10 17 2 -4
BITMAP
80C0
80C0
80C0
80C0
80C0
80C0
80C0
80C0
80C0
C0C0
C1C0
7FC0
3CC0
0080
0180
01C0
01C0
ENDCHAR
STARTCHAR Uring.ss01
ENCODING -1
SWIDTH 774 0
DWIDTH 14 0
BBX 10 18 2 0
BITMAP
0C00
1E00
1E00
0C00
0000
80C0
80C0
80C0
80C0
80C0
80C0
80C0
80C0
80C0
C0C0
C1C0
7FC0
3CC0
ENDCHAR
STARTCHAR Utilde.ss01
ENCODING -1
SWIDTH 774 0
DWIDTH 14 0
BBX 10 17 2 0
BITMAP
1B00
3E00
0000
0000
80C0
80C0
80C0
80C0
80C0
80C0
80C0
80C0
80C0
C0C0
C1C0
7FC0
3CC0
ENDCHAR
STARTCHAR uni1E78.ss01
ENCODING -1
SWIDTH 774 0
DWIDTH 14 0
BBX 10 19 2 0
BITMAP
0200
0700
0800
1900
3E00
0000
80C0
80C0
80C0
80C0
80C0
80C0
80C0
80C0
80C0
C0C0
C1C0
7FC0
3CC0
ENDCHAR
STARTCHAR W.ss01
ENCODING -1
SWIDTH 1178 0
DWIDTH 21 0
BBX 18 13 2 0
BITMAP
8080C0
8080C0
8080C0
8080C0
8080C0
8080C0
8080C0
8080C0
8080C0
80C0C0
C1C180
7F7F80
3E1E00
ENDCHAR
STARTCHAR Wacute.ss01
ENCODING -1
SWIDTH 1178 0
DWIDTH 21 0
BBX 18 17 2 0
BITMAP
006000
00E000
008000
000000
8080C0
8080C0
8080C0
8080C0
8080C0
8080C0
8080C0
8080C0
8080C0
80C0C0
C1C180
7F7F80
3E1E00
ENDCHAR
STARTCHAR Wcircumflex.ss01
ENCODING -1
SWIDTH 1178 0
DWIDTH 21 0
BBX 18 17 2 0
BITMAP
008000
01C000
036000
000000
8080C0
8080C0
8080C0
8080C0
8080C0
8080C0
8080C0
8080C0
8080C0
80C0C0
C1C180
7F7F80
3E1E00
ENDCHAR
STARTCHAR Wdieresis.ss01
ENCODING -1
SWIDTH 1178 0
DWIDTH 21 0
BBX 18 16 2 0
BITMAP
012000
036000
000000
8080C0
8080C0
8080C0
8080C0
8080C0
8080C0
8080C0
8080C0
8080C0
80C0C0
C1C180
7F7F80
3E1E00
ENDCHAR
STARTCHAR Wgrave.ss01
ENCODING -1
SWIDTH 1178 0
DWIDTH 21 0
BBX 18 17 2 0
BITMAP
030000
018000
008000
000000
8080C0
8080C0
8080C0
8080C0
8080C0
8080C0
8080C0
8080C0
8080C0
80C0C0
C1C180
7F7F80
3E1E00
ENDCHAR
STARTCHAR Y.ss01
ENCODING -1
SWIDTH 738 0
DWIDTH 13 0
BBX 10 15 2 -2
BITMAP
80C0
80C0
80C0
80C0
80C0
80C0
C0C0
C1C0
7FC0
3CC0
00C0
00C0
8180
FF00
3E00
ENDCHAR
STARTCHAR Yacute.ss01
ENCODING -1
SWIDTH 738 0
DWIDTH 13 0
BBX 10 19 2 -2
BITMAP
0600
0E00
0800
0000
80C0
80C0
80C0
80C0
80C0
80C0
C0C0
C1C0
7FC0
3CC0
00C0
00C0
8180
FF00
3E00
ENDCHAR
STARTCHAR Ycircumflex.ss01
ENCODING -1
SWIDTH 738 0
DWIDTH 13 0
BBX 10 19 2 -2
BITMAP
0C00
1C00
3600
0000
80C0
80C0
80C0
80C0
80C0
80C0
C0C0
C1C0
7FC0
3CC0
00C0
00C0
8180
FF00
3E00
ENDCHAR
STARTCHAR Ydieresis.ss01
ENCODING -1
SWIDTH 738 0
DWIDTH 13 0
BBX 10 18 2 -2
BITMAP
1200
3600
0000
80C0
80C0
80C0
80C0
80C0
80C0
C0C0
C1C0
7FC0
3CC0
00C0
00C0
8180
FF00
3E00
ENDCHAR
STARTCHAR uni1E8E.ss01
ENCODING -1
SWIDTH 738 0
DWIDTH 13 0
BBX 10 18 2 -2
BITMAP
0C00
0C00
0000
80C0
80C0
80C0
80C0
80C0
80C0
C0C0
C1C0
7FC0
3CC0
00C0
00C0
8180
FF00
3E00
ENDCHAR
STARTCHAR uni1EF4.ss01
ENCODING -1
SWIDTH 738 0
DWIDTH 13 0
BBX 10 19 2 -6
BITMAP
80C0
80C0
80C0
80C0
80C0
80C0
C0C0
C1C0
7FC0
3CC0
00C0
00C0
8180
FF00
3E00
0000
0000
0C00
0C00
ENDCHAR
STARTCHAR Ygrave.ss01
ENCODING -1
SWIDTH 738 0
DWIDTH 13 0
BBX 10 19 2 -2
BITMAP
3000
1800
0C00
0000
80C0
80C0
80C0
80C0
80C0
80C0
C0C0
C1C0
7FC0
3CC0
00C0
00C0
8180
FF00
3E00
ENDCHAR
STARTCHAR uni1EF6.ss01
ENCODING -1
SWIDTH 738 0
DWIDTH 13 0
BBX 10 21 2 -2
BITMAP
0800
1C00
0400
0400
0800
0000
80C0
80C0
80C0
80C0
80C0
80C0
C0C0
C1C0
7FC0
3CC0
00C0
00C0
8180
FF00
3E00
ENDCHAR
STARTCHAR uni0232.ss01
ENCODING -1
SWIDTH 738 0
DWIDTH 13 0
BBX 10 18 2 -2
BITMAP
3E00
3E00
0000
80C0
80C0
80C0
80C0
80C0
80C0
C0C0
C1C0
7FC0
3CC0
00C0
00C0
8180
FF00
3E00
ENDCHAR
STARTCHAR uni1EF8.ss01
ENCODING -1
SWIDTH 738 0
DWIDTH 13 0
BBX 10 19 2 -2
BITMAP
3A00
3E00
0000
0000
80C0
80C0
80C0
80C0
80C0
80C0
C0C0
C1C0
7FC0
3CC0
00C0
00C0
8180
FF00
3E00
ENDCHAR
STARTCHAR Z.ss01
ENCODING -1
SWIDTH 662 0
DWIDTH 12 0
BBX 10 13 1 0
BITMAP
FFC0
FFC0
0180
0300
0600
7F80
7F80
1800
3000
6000
6000
FFC0
FFC0
ENDCHAR
STARTCHAR Zacute.ss01
ENCODING -1
SWIDTH 662 0
DWIDTH 12 0
BBX 10 17 1 0
BITMAP
0300
0600
0C00
0000
FFC0
FFC0
0180
0300
0600
7F80
7F80
1800
3000
6000
6000
FFC0
FFC0
ENDCHAR
STARTCHAR Zcaron.ss01
ENCODING -1
SWIDTH 662 0
DWIDTH 12 0
BBX 10 17 1 0
BITMAP
3200
1600
1C00
0000
FFC0
FFC0
0180
0300
0600
7F80
7F80
1800
3000
6000
6000
FFC0
FFC0
ENDCHAR
STARTCHAR Zdotaccent.ss01
ENCODING -1
SWIDTH 662 0
DWIDTH 12 0
BBX 10 16 1 0
BITMAP
0C00
0C00
0000
FFC0
FFC0
0180
0300
0600
7F80
7F80
1800
3000
6000
6000
FFC0
FFC0
ENDCHAR
STARTCHAR uni1E92.ss01
ENCODING -1
SWIDTH 662 0
DWIDTH 12 0
BBX 10 17 1 -4
BITMAP
FFC0
FFC0
0180
0300
0600
7F80
7F80
1800
3000
6000
6000
FFC0
FFC0
0000
0000
0C00
0C00
ENDCHAR
STARTCHAR a.ss01
ENCODING -1
SWIDTH 673 0
DWIDTH 12 0
BBX 10 10 1 0
BITMAP
3CC0
7EC0
C1C0
C0C0
80C0
80C0
C0C0
C1C0
7EC0
3CC0
ENDCHAR
STARTCHAR aacute.ss01
ENCODING -1
SWIDTH 673 0
DWIDTH 12 0
BBX 10 14 1 0
BITMAP
0700
0600
0C00
0000
3CC0
7EC0
C1C0
C0C0
80C0
80C0
C0C0
C1C0
7EC0
3CC0
ENDCHAR
STARTCHAR abreve.ss01
ENCODING -1
SWIDTH 673 0
DWIDTH 12 0
BBX 10 14 1 0
BITMAP
1200
1E00
0C00
0000
3CC0
7EC0
C1C0
C0C0
80C0
80C0
C0C0
C1C0
7EC0
3CC0
ENDCHAR
STARTCHAR uni1EAF.ss01
ENCODING -1
SWIDTH 673 0
DWIDTH 12 0
BBX 10 16 1 0
BITMAP
0200
0700
1A00
1E00
0800
0000
3CC0
7EC0
C1C0
C0C0
80C0
80C0
C0C0
C1C0
7EC0
3CC0
ENDCHAR
STARTCHAR uni1EB7.ss01
ENCODING -1
SWIDTH 673 0
DWIDTH 12 0
BBX 10 18 1 -4
BITMAP
1200
1E00
0C00
0000
3CC0
7EC0
C1C0
C0C0
80C0
80C0
C0C0
C1C0
7EC0
3CC0
0000
0000
0C00
0C00
ENDCHAR
STARTCHAR uni1EB1.ss01
ENCODING -1
SWIDTH 673 0
DWIDTH 12 0
BBX 10 16 1 0
BITMAP
1000
3800
1E00
1E00
0800
0000
3CC0
7EC0
C1C0
C0C0
80C0
80C0
C0C0
C1C0
7EC0
3CC0
ENDCHAR
STARTCHAR uni1EB3.ss01
ENCODING -1
SWIDTH 673 0
DWIDTH 12 0
BBX 10 16 1 0
BITMAP
1C00
0400
1E00
1E00
0800
0000
3CC0
7EC0
C1C0
C0C0
80C0
80C0
C0C0
C1C0
7EC0
3CC0
ENDCHAR
STARTCHAR uni1EB5.ss01
ENCODING -1
SWIDTH 673 0
DWIDTH 12 0
BBX 10 16 1 0
BITMAP
1900
3E00
1200
1E00
0800
0000
3CC0
7EC0
C1C0
C0C0
80C0
80C0
C0C0
C1C0
7EC0
3CC0
ENDCHAR
STARTCHAR acircumflex.ss01
ENCODING -1
SWIDTH 673 0
DWIDTH 12 0
BBX 10 15 1 0
BITMAP
0C00
1E00
3300
0000
0000
3CC0
7EC0
C1C0
C0C0
80C0
80C0
C0C0
C1C0
7EC0
3CC0
ENDCHAR
STARTCHAR uni1EA5.ss01
ENCODING -1
SWIDTH 673 0
DWIDTH 12 0
BBX 10 16 1 0
BITMAP
0200
0700
0800
1E00
3300
0000
3CC0
7EC0
C1C0
C0C0
80C0
80C0
C0C0
C1C0
7EC0
3CC0
ENDCHAR
STARTCHAR uni1EAD.ss01
ENCODING -1
SWIDTH 673 0
DWIDTH 12 0
BBX 10 19 1 -4
BITMAP
0C00
1E00
3300
0000
0000
3CC0
7EC0
C1C0
C0C0
80C0
80C0
C0C0
C1C0
7EC0
3CC0
0000
0000
0C00
0C00
ENDCHAR
STARTCHAR uni1EA7.ss01
ENCODING -1
SWIDTH 673 0
DWIDTH 12 0
BBX 10 16 1 0
BITMAP
1000
3800
0C00
1E00
3300
0000
3CC0
7EC0
C1C0
C0C0
80C0
80C0
C0C0
C1C0
7EC0
3CC0
ENDCHAR
STARTCHAR uni1EA9.ss01
ENCODING -1
SWIDTH 673 0
DWIDTH 12 0
BBX 10 16 1 0
BITMAP
1C00
0400
0C00
1E00
3300
0000
3CC0
7EC0
C1C0
C0C0
80C0
80C0
C0C0
C1C0
7EC0
3CC0
ENDCHAR
STARTCHAR uni1EAB.ss01
ENCODING -1
SWIDTH 673 0
DWIDTH 12 0
BBX 10 15 1 0
BITMAP
1900
3E00
1E00
3300
0000
3CC0
7EC0
C1C0
C0C0
80C0
80C0
C0C0
C1C0
7EC0
3CC0
ENDCHAR
STARTCHAR uni0201.ss01
ENCODING -1
SWIDTH 673 0
DWIDTH 12 0
BBX 10 14 1 0
BITMAP
6C00
3600
1400
0000
3CC0
7EC0
C1C0
C0C0
80C0
80C0
C0C0
C1C0
7EC0
3CC0
ENDCHAR
STARTCHAR adieresis.ss01
ENCODING -1
SWIDTH 673 0
DWIDTH 12 0
BBX 10 14 1 0
BITMAP
1200
3300
0000
0000
3CC0
7EC0
C1C0
C0C0
80C0
80C0
C0C0
C1C0
7EC0
3CC0
ENDCHAR
STARTCHAR uni1EA1.ss01
ENCODING -1
SWIDTH 673 0
DWIDTH 12 0
BBX 10 14 1 -4
BITMAP
3CC0
7EC0
C1C0
C0C0
80C0
80C0
C0C0
C1C0
7EC0
3CC0
0000
0000
0C00
0C00
ENDCHAR
STARTCHAR agrave.ss01
ENCODING -1
SWIDTH 673 0
DWIDTH 12 0
BBX 10 14 1 0
BITMAP
3000
1800
0C00
0000
3CC0
7EC0
C1C0
C0C0
80C0
80C0
C0C0
C1C0
7EC0
3CC0
ENDCHAR
STARTCHAR uni1EA3.ss01
ENCODING -1
SWIDTH 673 0
DWIDTH 12 0
BBX 10 15 1 0
BITMAP
0800
1E00
0600
0400
0C00
3CC0
7EC0
C1C0
C0C0
80C0
80C0
C0C0
C1C0
7EC0
3CC0
ENDCHAR
STARTCHAR uni0203.ss01
ENCODING -1
SWIDTH 673 0
DWIDTH 12 0
BBX 10 15 1 0
BITMAP
0800
1E00
1200
0000
0000
3CC0
7EC0
C1C0
C0C0
80C0
80C0
C0C0
C1C0
7EC0
3CC0
ENDCHAR
STARTCHAR amacron.ss01
ENCODING -1
SWIDTH 673 0
DWIDTH 12 0
BBX 10 14 1 0
BITMAP
3F00
3F00
0000
0000
3CC0
7EC0
C1C0
C0C0
80C0
80C0
C0C0
C1C0
7EC0
3CC0
ENDCHAR
STARTCHAR aogonek.ss01
ENCODING -1
SWIDTH 673 0
DWIDTH 12 0
BBX 10 14 1 -4
BITMAP
3CC0
7EC0
C1C0
C0C0
80C0
80C0
C0C0
C1C0
7EC0
3CC0
0180
0300
0340
0180
ENDCHAR
STARTCHAR aring.ss01
ENCODING -1
SWIDTH 673 0
DWIDTH 12 0
BBX 10 15 1 0
BITMAP
0C00
1E00
1E00
0C00
0000
3CC0
7EC0
C1C0
C0C0
80C0
80C0
C0C0
C1C0
7EC0
3CC0
ENDCHAR
STARTCHAR aringacute.ss01
ENCODING -1
SWIDTH 673 0
DWIDTH 12 0
BBX 10 18 1 0
BITMAP
0200
0700
0800
0C00
1E00
1E00
0C00
0000
3CC0
7EC0
C1C0
C0C0
80C0
80C0
C0C0
C1C0
7EC0
3CC0
ENDCHAR
STARTCHAR atilde.ss01
ENCODING -1
SWIDTH 673 0
DWIDTH 12 0
BBX 10 14 1 0
BITMAP
1900
3E00
0000
0000
3CC0
7EC0
C1C0
C0C0
80C0
80C0
C0C0
C1C0
7EC0
3CC0
ENDCHAR
STARTCHAR ae.ss01
ENCODING -1
SWIDTH 968 0
DWIDTH 17 0
BBX 16 10 1 0
BITMAP
3C7C
FFFE
4382
0387
7F3C
FFE0
8380
C382
FEFF
787C
ENDCHAR
STARTCHAR aeacute.ss01
ENCODING -1
SWIDTH 968 0
DWIDTH 17 0
BBX 16 14 1 0
BITMAP
00C0
0180
0080
0000
3C7C
FFFE
4382
0387
7F3C
FFE0
8380
C382
FEFF
787C
ENDCHAR
STARTCHAR uni01C6.ss01
ENCODING -1
SWIDTH 1211 0
DWIDTH 22 0
BBX 20 15 1 0
BITMAP
000660
00C3C0
00C180
00C000
00C000
3CCFF0
7ECFF0
C1C060
C0C0C0
80C7E0
80C7E0
C0C300
C1C600
7ECFF0
3CCFF0
ENDCHAR
STARTCHAR e.ss01
ENCODING -1
SWIDTH 578 0
DWIDTH 10 0
BBX 9 10 1 0
BITMAP
3E00
7F00
C100
C380
9F00
F800
C000
C180
7F00
3E00
ENDCHAR
STARTCHAR eacute.ss01
ENCODING -1
SWIDTH 578 0
DWIDTH 10 0
BBX 9 14 1 0
BITMAP
0600
0C00
1800
0000
3E00
7F00
C100
C380
9F00
F800
C000
C180
7F00
3E00
ENDCHAR
STARTCHAR ebreve.ss01
ENCODING -1
SWIDTH 578 0
DWIDTH 10 0
BBX 9 14 1 0
BITMAP
2200
3E00
1C00
0000
3E00
7F00
C100
C380
9F00
F800
C000
C180
7F00
3E00
ENDCHAR
STARTCHAR ecaron.ss01
ENCODING -1
SWIDTH 578 0
DWIDTH 10 0
BBX 9 15 1 0
BITMAP
2600
3400
1C00
0000
0000
3E00
7F00
C100
C380
9F00
F800
C000
C180
7F00
3E00
ENDCHAR
STARTCHAR uni1E1D.ss01
ENCODING -1
SWIDTH 578 0
DWIDTH 10 0
BBX 9 18 1 -4
BITMAP
2600
3C00
0800
0000
3E00
7F00
C100
C180
8F00
F800
E000
C100
6380
3E00
0800
0C00
1C00
1C00
ENDCHAR
STARTCHAR ecircumflex.ss01
ENCODING -1
SWIDTH 578 0
DWIDTH 10 0
BBX 9 15 1 0
BITMAP
0800
1C00
3600
0000
0000
3E00
7F00
C100
C380
9F00
F800
C000
C180
7F00
3E00
ENDCHAR
STARTCHAR uni1EBF.ss01
ENCODING -1
SWIDTH 578 0
DWIDTH 10 0
BBX 9 16 1 0
BITMAP
0400
0E00
1800
1C00
7600
0000
3E00
7F00
C100
C380
9F00
F800
C000
C180
7F00
3E00
ENDCHAR
STARTCHAR uni1EC7.ss01
ENCODING -1
SWIDTH 578 0
DWIDTH 10 0
BBX 9 19 1 -4
BITMAP
0800
1C00
3600
0000
0000
3E00
7F00
C100
C380
9F00
F800
C000
C180
7F00
3E00
0000
0000
1800
0800
ENDCHAR
STARTCHAR uni1EC1.ss01
ENCODING -1
SWIDTH 578 0
DWIDTH 10 0
BBX 9 16 1 0
BITMAP
1000
3800
0C00
1C00
7600
0000
3E00
7F00
C100
C380
9F00
F800
C000
C180
7F00
3E00
ENDCHAR
STARTCHAR uni1EC3.ss01
ENCODING -1
SWIDTH 578 0
DWIDTH 10 0
BBX 9 16 1 0
BITMAP
1C00
0C00
0800
1C00
7600
0000
3E00
7F00
C100
C380
9F00
F800
C000
C180
7F00
3E00
ENDCHAR
STARTCHAR uni1EC5.ss01
ENCODING -1
SWIDTH 578 0
DWIDTH 10 0
BBX 9 15 1 0
BITMAP
3200
3E00
1C00
7700
0000
3E00
7F00
C100
C380
9F00
F800
C000
C180
7F00
3E00
ENDCHAR
STARTCHAR uni0205.ss01
ENCODING -1
SWIDTH 578 0
DWIDTH 10 0
BBX 9 14 1 0
BITMAP
6C00
2400
3600
0000
3E00
7F00
C100
C380
9F00
F800
C000
C180
7F00
3E00
ENDCHAR
STARTCHAR edieresis.ss01
ENCODING -1
SWIDTH 578 0
DWIDTH 10 0
BBX 9 14 1 0
BITMAP
2400
3600
0000
0000
3E00
7F00
C100
C380
9F00
F800
C000
C180
7F00
3E00
ENDCHAR
STARTCHAR edotaccent.ss01
ENCODING -1
SWIDTH 578 0
DWIDTH 10 0
BBX 9 14 1 0
BITMAP
1800
0800
0000
0000
3E00
7F00
C100
C380
9F00
F800
C000
C180
7F00
3E00
ENDCHAR
STARTCHAR uni1EB9.ss01
ENCODING -1
SWIDTH 578 0
DWIDTH 10 0
BBX 9 14 1 -4
BITMAP
3E00
7F00
C100
C380
9F00
F800
C000
C180
7F00
3E00
0000
0000
1800
0800
ENDCHAR
STARTCHAR egrave.ss01
ENCODING -1
SWIDTH 578 0
DWIDTH 10 0
BBX 9 14 1 0
BITMAP
3000
1800
1000
0000
3E00
7F00
C100
C380
9F00
F800
C000
C180
7F00
3E00
ENDCHAR
STARTCHAR uni1EBB.ss01
ENCODING -1
SWIDTH 578 0
DWIDTH 10 0
BBX 9 15 1 0
BITMAP
0800
1C00
0400
0C00
0800
3E00
7F00
C100
C380
9F00
F800
C000
C180
7F00
3E00
ENDCHAR
STARTCHAR uni0207.ss01
ENCODING -1
SWIDTH 578 0
DWIDTH 10 0
BBX 9 15 1 0
BITMAP
0800
1C00
3600
0000
0000
3E00
7F00
C100
C380
9F00
F800
C000
C180
7F00
3E00
ENDCHAR
STARTCHAR emacron.ss01
ENCODING -1
SWIDTH 578 0
DWIDTH 10 0
BBX 9 14 1 0
BITMAP
3E00
3E00
0000
0000
3E00
7F00
C100
C380
9F00
F800
C000
C180
7F00
3E00
ENDCHAR
STARTCHAR uni1E17.ss01
ENCODING -1
SWIDTH 578 0
DWIDTH 10 0
BBX 9 16 1 0
BITMAP
0400
0E00
1800
3E00
3E00
0000
3E00
7F00
C100
C380
9F00
F800
C000
C180
7F00
3E00
ENDCHAR
STARTCHAR uni1E15.ss01
ENCODING -1
SWIDTH 578 0
DWIDTH 10 0
BBX 9 16 1 0
BITMAP
1000
3800
0800
3E00
3E00
0000
3E00
7F00
C100
C380
9F00
F800
C000
C180
7F00
3E00
ENDCHAR
STARTCHAR eogonek.ss01
ENCODING -1
SWIDTH 578 0
DWIDTH 10 0
BBX 9 14 1 -4
BITMAP
3E00
7F00
C100
C380
9F00
F800
C000
C180
7F00
3E00
0400
0C00
0E00
0700
ENDCHAR
STARTCHAR uni1EBD.ss01
ENCODING -1
SWIDTH 578 0
DWIDTH 10 0
BBX 9 14 1 0
BITMAP
3A00
3E00
0000
0000
3E00
7F00
C100
C380
9F00
F800
C000
C180
7F00
3E00
ENDCHAR
STARTCHAR uni0259.ss01
ENCODING -1
SWIDTH 578 0
DWIDTH 10 0
BBX 9 10 1 0
BITMAP
3C00
FE00
8300
0180
0F80
7980
C180
C300
7E00
3C00
ENDCHAR
STARTCHAR f.orig
ENCODING -1
SWIDTH 332 0
DWIDTH 6 0
BBX 6 14 1 0
BITMAP
3C
7C
60
60
F8
F8
60
60
60
60
60
60
60
60
ENDCHAR
STARTCHAR f.ss01
ENCODING -1
SWIDTH 312 0
DWIDTH 6 0
BBX 5 14 1 0
BITMAP
38
78
40
C0
F8
F8
C0
C0
C0
C0
C0
C0
C0
C0
ENDCHAR
STARTCHAR iacute_j.loclNLD
ENCODING -1
SWIDTH 547 0
DWIDTH 10 0
BBX 8 18 2 -4
BITMAP
63
C6
8C
00
84
84
84
84
84
84
84
84
84
84
04
0C
3C
38
ENDCHAR
STARTCHAR i.loclTRK
ENCODING -1
SWIDTH 274 0
DWIDTH 5 0
BBX 3 14 1 0
BITMAP
E0
40
00
00
40
40
40
40
40
40
40
40
40
40
ENDCHAR
STARTCHAR uni0237.orig
ENCODING -1
SWIDTH 262 0
DWIDTH 5 0
BBX 5 14 -2 -4
BITMAP
08
08
08
08
08
08
08
08
08
08
08
18
F8
70
ENDCHAR
STARTCHAR jacute
ENCODING -1
SWIDTH 263 0
DWIDTH 5 0
BBX 6 18 -1 -4
BITMAP
0C
18
30
00
10
10
10
10
10
10
10
10
10
10
10
30
B0
E0
ENDCHAR
STARTCHAR l.ss01
ENCODING -1
SWIDTH 298 0
DWIDTH 5 0
BBX 4 14 1 0
BITMAP
C0
C0
C0
C0
C0
C0
C0
C0
C0
C0
C0
C0
70
70
ENDCHAR
STARTCHAR lacute.ss01
ENCODING -1
SWIDTH 298 0
DWIDTH 5 0
BBX 4 18 1 0
BITMAP
30
60
C0
00
C0
C0
C0
C0
C0
C0
C0
C0
C0
C0
C0
C0
70
70
ENDCHAR
STARTCHAR lcaron.ss01
ENCODING -1
SWIDTH 335 0
DWIDTH 6 0
BBX 5 14 1 0
BITMAP
C8
C8
C8
C8
C0
C0
C0
C0
C0
C0
C0
C0
70
70
ENDCHAR
STARTCHAR lcommaaccent.ss01
ENCODING -1
SWIDTH 298 0
DWIDTH 5 0
BBX 4 18 1 -4
BITMAP
C0
C0
C0
C0
C0
C0
C0
C0
C0
C0
C0
C0
70
70
00
20
60
40
ENDCHAR
STARTCHAR ldot.ss01
ENCODING -1
SWIDTH 298 0
DWIDTH 5 0
BBX 5 14 1 0
BITMAP
C0
C0
C0
C0
C0
D8
D8
C0
C0
C0
C0
C0
70
70
ENDCHAR
STARTCHAR uni1E37.ss01
ENCODING -1
SWIDTH 298 0
DWIDTH 5 0
BBX 4 18 1 -4
BITMAP
C0
C0
C0
C0
C0
C0
C0
C0
C0
C0
C0
C0
70
70
00
00
70
20
ENDCHAR
STARTCHAR uni01C9.ss01
ENCODING -1
SWIDTH 560 0
DWIDTH 10 0
BBX 8 18 1 -4
BITMAP
C3
C3
C0
C0
C3
C3
C3
C3
C3
C3
C3
C3
73
73
03
03
16
1E
ENDCHAR
STARTCHAR uni1E3B.ss01
ENCODING -1
SWIDTH 298 0
DWIDTH 5 0
BBX 5 17 1 -3
BITMAP
C0
C0
C0
C0
C0
C0
C0
C0
C0
C0
C0
C0
70
70
00
F8
F8
ENDCHAR
STARTCHAR lslash.ss01
ENCODING -1
SWIDTH 376 0
DWIDTH 7 0
BBX 5 14 1 0
BITMAP
60
60
60
60
60
68
70
E0
E0
60
60
60
38
38
ENDCHAR
STARTCHAR oe.ss01
ENCODING -1
SWIDTH 1027 0
DWIDTH 18 0
BBX 17 10 1 0
BITMAP
3E3E00
7F7F00
C1C180
C0C180
809F00
80F800
C0C000
C1C180
7F7F00
3E1E00
ENDCHAR
STARTCHAR t.ss01
ENCODING -1
SWIDTH 364 0
DWIDTH 7 0
BBX 5 13 1 0
BITMAP
C0
C0
C0
F8
F8
C0
C0
C0
C0
C0
C0
78
78
ENDCHAR
STARTCHAR tbar.ss01
ENCODING -1
SWIDTH 364 0
DWIDTH 7 0
BBX 5 13 1 0
BITMAP
C0
C0
C0
F8
F8
C0
F8
F8
C0
C0
C0
78
78
ENDCHAR
STARTCHAR tcaron.ss01
ENCODING -1
SWIDTH 364 0
DWIDTH 7 0
BBX 5 14 1 0
BITMAP
18
D8
D8
C0
F8
F8
C0
C0
C0
C0
C0
C0
78
78
ENDCHAR
STARTCHAR uni0163.ss01
ENCODING -1
SWIDTH 364 0
DWIDTH 7 0
BBX 5 17 1 -4
BITMAP
C0
C0
C0
F8
F8
C0
C0
C0
C0
C0
C0
48
78
10
30
38
78
ENDCHAR
STARTCHAR uni021B.ss01
ENCODING -1
SWIDTH 364 0
DWIDTH 7 0
BBX 5 17 1 -4
BITMAP
C0
C0
C0
F8
F8
C0
C0
C0
C0
C0
C0
78
78
00
30
20
20
ENDCHAR
STARTCHAR uni1E97.ss01
ENCODING -1
SWIDTH 364 0
DWIDTH 7 0
BBX 6 16 0 0
BITMAP
48
D8
00
60
60
60
7C
7C
60
60
60
60
60
60
3C
3C
ENDCHAR
STARTCHAR uni1E6D.ss01
ENCODING -1
SWIDTH 364 0
DWIDTH 7 0
BBX 5 17 1 -4
BITMAP
C0
C0
C0
F8
F8
C0
C0
C0
C0
C0
C0
78
78
00
00
30
30
ENDCHAR
STARTCHAR uni1E6F.ss01
ENCODING -1
SWIDTH 364 0
DWIDTH 7 0
BBX 6 16 1 -3
BITMAP
C0
C0
C0
F8
F8
C0
C0
C0
C0
C0
C0
78
78
00
FC
FC
ENDCHAR
STARTCHAR w.ss01
ENCODING -1
SWIDTH 967 0
DWIDTH 17 0
BBX 15 10 1 0
BITMAP
C186
C186
C186
C186
C186
C186
C186
4386
7EFC
3C78
ENDCHAR
STARTCHAR wacute.ss01
ENCODING -1
SWIDTH 967 0
DWIDTH 17 0
BBX 15 14 1 0
BITMAP
00C0
0180
0080
0000
C186
C186
C186
C186
C186
C186
C186
4386
7EFC
3C78
ENDCHAR
STARTCHAR wcircumflex.ss01
ENCODING -1
SWIDTH 967 0
DWIDTH 17 0
BBX 15 15 1 0
BITMAP
0180
0380
06C0
0000
0000
C186
C186
C186
C186
C186
C186
C186
4386
7EFC
3C78
ENDCHAR
STARTCHAR wdieresis.ss01
ENCODING -1
SWIDTH 967 0
DWIDTH 17 0
BBX 15 14 1 0
BITMAP
0240
06C0
0000
0000
C186
C186
C186
C186
C186
C186
C186
4386
7EFC
3C78
ENDCHAR
STARTCHAR wgrave.ss01
ENCODING -1
SWIDTH 967 0
DWIDTH 17 0
BBX 15 14 1 0
BITMAP
0600
0300
0180
0000
C186
C186
C186
C186
C186
C186
C186
4386
7EFC
3C78
ENDCHAR
STARTCHAR y.ss01
ENCODING -1
SWIDTH 646 0
DWIDTH 12 0
BBX 9 14 1 -4
BITMAP
C080
C080
C080
C080
C080
C180
C180
6380
7E80
0880
0180
4180
FF00
3E00
ENDCHAR
STARTCHAR yacute.ss01
ENCODING -1
SWIDTH 646 0
DWIDTH 12 0
BBX 9 18 1 -4
BITMAP
0600
0C00
0400
0000
C080
C080
C080
C080
C080
C180
C180
6380
7E80
0880
0180
4180
FF00
3E00
ENDCHAR
STARTCHAR ycircumflex.ss01
ENCODING -1
SWIDTH 646 0
DWIDTH 12 0
BBX 9 19 1 -4
BITMAP
0C00
1C00
3700
0000
0000
C080
C080
C080
C080
C080
C180
C180
6380
7E80
0880
0180
4180
FF00
3E00
ENDCHAR
STARTCHAR ydieresis.ss01
ENCODING -1
SWIDTH 646 0
DWIDTH 12 0
BBX 9 18 1 -4
BITMAP
1200
3600
0000
0000
C080
C080
C080
C080
C080
C180
C180
6380
7E80
0880
0180
4180
FF00
3E00
ENDCHAR
STARTCHAR uni1EF5.ss01
ENCODING -1
SWIDTH 646 0
DWIDTH 12 0
BBX 9 17 1 -7
BITMAP
C080
C080
C080
C080
C080
C180
C180
6380
7E80
0880
0180
4180
FF00
3E00
0000
1800
1800
ENDCHAR
STARTCHAR ygrave.ss01
ENCODING -1
SWIDTH 646 0
DWIDTH 12 0
BBX 9 18 1 -4
BITMAP
3000
1800
0C00
0000
C080
C080
C080
C080
C080
C180
C180
6380
7E80
0880
0180
4180
FF00
3E00
ENDCHAR
STARTCHAR uni1EF7.ss01
ENCODING -1
SWIDTH 646 0
DWIDTH 12 0
BBX 9 19 1 -4
BITMAP
0800
1C00
0400
0400
0C00
C080
C080
C080
C080
C080
C180
C180
6380
7E80
0880
0180
4180
FF00
3E00
ENDCHAR
STARTCHAR uni0233.ss01
ENCODING -1
SWIDTH 646 0
DWIDTH 12 0
BBX 9 18 1 -4
BITMAP
3E00
3E00
0000
0000
C080
C080
C080
C080
C080
C180
C180
6380
7E80
0880
0180
4180
FF00
3E00
ENDCHAR
STARTCHAR uni1EF9.ss01
ENCODING -1
SWIDTH 646 0
DWIDTH 12 0
BBX 9 18 1 -4
BITMAP
3B00
3E00
0000
0000
C080
C080
C080
C080
C080
C180
C180
6380
7E80
0880
0180
4180
FF00
3E00
ENDCHAR
STARTCHAR z.ss01
ENCODING -1
SWIDTH 531 0
DWIDTH 10 0
BBX 8 10 1 0
BITMAP
FF
FE
06
0C
7E
7E
20
60
FF
FF
ENDCHAR
STARTCHAR zacute.ss01
ENCODING -1
SWIDTH 531 0
DWIDTH 10 0
BBX 8 14 1 0
BITMAP
0E
0C
18
00
FF
FE
06
0C
7E
7E
20
60
FF
FF
ENDCHAR
STARTCHAR zcaron.ss01
ENCODING -1
SWIDTH 531 0
DWIDTH 10 0
BBX 8 15 1 0
BITMAP
66
3C
18
00
00
FF
FE
06
0C
7E
7E
20
60
FF
FF
ENDCHAR
STARTCHAR zdotaccent.ss01
ENCODING -1
SWIDTH 531 0
DWIDTH 10 0
BBX 8 14 1 0
BITMAP
18
18
00
00
FF
FE
06
0C
7E
7E
20
60
FF
FF
ENDCHAR
STARTCHAR uni1E93.ss01
ENCODING -1
SWIDTH 531 0
DWIDTH 10 0
BBX 8 14 1 -4
BITMAP
FF
FE
06
0C
7E
7E
20
60
FF
FF
00
00
18
18
ENDCHAR
STARTCHAR T_h
ENCODING -1
SWIDTH 1139 0
DWIDTH 21 0
BBX 19 13 0 0
BITMAP
FFF000
FFF000
0C1000
0C13C0
0C1FE0
0C1860
0C1060
0C1060
0C1060
0C1060
0C1060
0C1060
0C1060
ENDCHAR
STARTCHAR fi.ss01
ENCODING -1
SWIDTH 586 0
DWIDTH 11 0
BBX 8 14 1 0
BITMAP
3B
7B
40
C0
FB
FB
C3
C3
C3
C3
C3
C3
C3
C3
ENDCHAR
STARTCHAR fl.ss01
ENCODING -1
SWIDTH 640 0
DWIDTH 12 0
BBX 10 16 1 -2
BITMAP
3E00
7F00
6300
6100
F900
F900
6100
6100
6100
6100
6100
6100
6100
6100
01C0
01C0
ENDCHAR
STARTCHAR a.sc
ENCODING -1
SWIDTH 610 0
DWIDTH 11 0
BBX 11 10 0 0
BITMAP
0E00
0E00
1B00
1B00
1100
3180
3F80
60C0
4040
C060
ENDCHAR
STARTCHAR a.sc.ss01
ENCODING -1
SWIDTH 659 0
DWIDTH 12 0
BBX 9 11 1 0
BITMAP
1E00
7F00
6180
4080
C080
C080
FF80
FF80
C080
C080
C080
ENDCHAR
STARTCHAR aacute.sc
ENCODING -1
SWIDTH 610 0
DWIDTH 11 0
BBX 11 14 0 0
BITMAP
0300
0600
0C00
0000
0E00
0E00
1B00
1B00
1100
3180
3F80
60C0
4040
C060
ENDCHAR
STARTCHAR aacute.sc.ss01
ENCODING -1
SWIDTH 659 0
DWIDTH 12 0
BBX 9 14 1 0
BITMAP
0700
0C00
0400
1E00
7F00
6180
4080
C080
C080
FF80
FF80
C080
C080
C080
ENDCHAR
STARTCHAR abreve.sc
ENCODING -1
SWIDTH 610 0
DWIDTH 11 0
BBX 11 14 0 0
BITMAP
1100
1F00
0E00
0000
0E00
0E00
1B00
1B00
1100
3180
3F80
60C0
4040
C060
ENDCHAR
STARTCHAR abreve.sc.ss01
ENCODING -1
SWIDTH 659 0
DWIDTH 12 0
BBX 9 14 1 0
BITMAP
1200
1E00
1C00
1E00
7F00
6180
4080
C080
C080
FF80
FF80
C080
C080
C080
ENDCHAR
STARTCHAR uni1EAF.sc
ENCODING -1
SWIDTH 610 0
DWIDTH 11 0
BBX 11 16 0 0
BITMAP
0200
0700
1F00
1E00
0400
0000
0E00
0E00
1B00
1B00
1100
3180
3F80
60C0
4040
C060
ENDCHAR
STARTCHAR uni1EAF.sc.ss01
ENCODING -1
SWIDTH 659 0
DWIDTH 12 0
BBX 9 17 1 0
BITMAP
0400
0E00
0800
3200
1E00
0800
1E00
7F00
6180
4080
C080
C080
FF80
FF80
C080
C080
C080
ENDCHAR
STARTCHAR uni1EB7.sc
ENCODING -1
SWIDTH 610 0
DWIDTH 11 0
BBX 11 17 0 -3
BITMAP
1100
1F00
0E00
0000
0E00
0E00
1B00
1B00
1100
3180
3F80
60C0
4040
C060
0000
0C00
0400
ENDCHAR
STARTCHAR uni1EB7.sc.ss01
ENCODING -1
SWIDTH 659 0
DWIDTH 12 0
BBX 9 17 1 -3
BITMAP
1200
1E00
1C00
1E00
7F00
6180
4080
C080
C080
FF80
FF80
C080
C080
C080
0000
0C00
0C00
ENDCHAR
STARTCHAR uni1EB1.sc
ENCODING -1
SWIDTH 610 0
DWIDTH 11 0
BBX 11 16 0 0
BITMAP
0800
1C00
1F00
0F00
0400
0000
0E00
0E00
1B00
1B00
1100
3180
3F80
60C0
4040
C060
ENDCHAR
STARTCHAR uni1EB1.sc.ss01
ENCODING -1
SWIDTH 659 0
DWIDTH 12 0
BBX 9 17 1 0
BITMAP
1000
3800
0C00
1200
1E00
0400
1E00
7F00
6180
4080
C080
C080
FF80
FF80
C080
C080
C080
ENDCHAR
STARTCHAR uni1EB3.sc
ENCODING -1
SWIDTH 610 0
DWIDTH 11 0
BBX 11 16 0 0
BITMAP
0E00
0600
1500
0E00
0400
0000
0E00
0E00
1B00
1B00
1100
3180
3F80
60C0
4040
C060
ENDCHAR
STARTCHAR uni1EB3.sc.ss01
ENCODING -1
SWIDTH 659 0
DWIDTH 12 0
BBX 9 17 1 0
BITMAP
1C00
0400
0800
3200
1E00
0800
1E00
7F00
6180
4080
C080
C080
FF80
FF80
C080
C080
C080
ENDCHAR
STARTCHAR uni1EB5.sc
ENCODING -1
SWIDTH 610 0
DWIDTH 11 0
BBX 11 16 0 0
BITMAP
1D00
1F00
1300
1E00
0400
0000
0E00
0E00
1B00
1B00
1100
3180
3F80
60C0
4040
C060
ENDCHAR
STARTCHAR uni1EB5.sc.ss01
ENCODING -1
SWIDTH 659 0
DWIDTH 12 0
BBX 9 16 1 0
BITMAP
1900
3E00
1200
1E00
0800
1E00
7F00
6180
4080
C080
C080
FF80
FF80
C080
C080
C080
ENDCHAR
STARTCHAR acircumflex.sc
ENCODING -1
SWIDTH 610 0
DWIDTH 11 0
BBX 11 14 0 0
BITMAP
0400
0E00
1B00
0000
0E00
0E00
1B00
1B00
1100
3180
3F80
60C0
4040
C060
ENDCHAR
STARTCHAR acircumflex.sc.ss01
ENCODING -1
SWIDTH 659 0
DWIDTH 12 0
BBX 9 14 1 0
BITMAP
0C00
1E00
3300
1E00
7F00
6180
4080
C080
C080
FF80
FF80
C080
C080
C080
ENDCHAR
STARTCHAR uni1EA5.sc
ENCODING -1
SWIDTH 610 0
DWIDTH 11 0
BBX 11 16 0 0
BITMAP
0200
0700
0C00
0E00
3B80
0000
0E00
0E00
1B00
1B00
1100
3180
3F80
60C0
4040
C060
ENDCHAR
STARTCHAR uni1EA5.sc.ss01
ENCODING -1
SWIDTH 659 0
DWIDTH 12 0
BBX 9 17 1 0
BITMAP
0200
0600
0800
0000
1E00
3300
1E00
7F00
6180
4080
C080
C080
FF80
FF80
C080
C080
C080
ENDCHAR
STARTCHAR uni1EAD.sc
ENCODING -1
SWIDTH 610 0
DWIDTH 11 0
BBX 11 17 0 -3
BITMAP
0400
0E00
1B00
0000
0E00
0E00
1B00
1B00
1100
3180
3F80
60C0
4040
C060
0000
0C00
0400
ENDCHAR
STARTCHAR uni1EAD.sc.ss01
ENCODING -1
SWIDTH 659 0
DWIDTH 12 0
BBX 9 17 1 -3
BITMAP
0C00
1E00
3300
1E00
7F00
6180
4080
C080
C080
FF80
FF80
C080
C080
C080
0000
0C00
0C00
ENDCHAR
STARTCHAR uni1EA7.sc
ENCODING -1
SWIDTH 610 0
DWIDTH 11 0
BBX 11 16 0 0
BITMAP
0800
1C00
0600
0E00
3B80
0000
0E00
0E00
1B00
1B00
1100
3180
3F80
60C0
4040
C060
ENDCHAR
STARTCHAR uni1EA7.sc.ss01
ENCODING -1
SWIDTH 659 0
DWIDTH 12 0
BBX 9 17 1 0
BITMAP
1000
3800
0C00
0000
1E00
3300
1E00
7F00
6180
4080
C080
C080
FF80
FF80
C080
C080
C080
ENDCHAR
STARTCHAR uni1EA9.sc
ENCODING -1
SWIDTH 610 0
DWIDTH 11 0
BBX 11 16 0 0
BITMAP
0E00
0600
0400
0E00
3B80
0000
0E00
0E00
1B00
1B00
1100
3180
3F80
60C0
4040
C060
ENDCHAR
STARTCHAR uni1EA9.sc.ss01
ENCODING -1
SWIDTH 659 0
DWIDTH 12 0
BBX 9 17 1 0
BITMAP
1C00
0400
0800
0000
1E00
3300
1E00
7F00
6180
4080
C080
C080
FF80
FF80
C080
C080
C080
ENDCHAR
STARTCHAR uni1EAB.sc
ENCODING -1
SWIDTH 610 0
DWIDTH 11 0
BBX 11 15 0 0
BITMAP
1D00
1F00
0E00
3B80
0000
0E00
0E00
1B00
1B00
1100
3180
3F80
60C0
4040
C060
ENDCHAR
STARTCHAR uni1EAB.sc.ss01
ENCODING -1
SWIDTH 659 0
DWIDTH 12 0
BBX 9 16 1 0
BITMAP
1900
3E00
0000
1E00
3300
1E00
7F00
6180
4080
C080
C080
FF80
FF80
C080
C080
C080
ENDCHAR
STARTCHAR uni0201.sc
ENCODING -1
SWIDTH 610 0
DWIDTH 11 0
BBX 11 14 0 0
BITMAP
3600
1A00
1300
0000
0E00
0E00
1B00
1B00
1100
3180
3F80
60C0
4040
C060
ENDCHAR
STARTCHAR uni0201.sc.ss01
ENCODING -1
SWIDTH 659 0
DWIDTH 12 0
BBX 9 14 1 0
BITMAP
6C00
3600
1400
1E00
7F00
6180
4080
C080
C080
FF80
FF80
C080
C080
C080
ENDCHAR
STARTCHAR adieresis.alt.sc
ENCODING -1
SWIDTH 610 0
DWIDTH 11 0
BBX 11 13 0 0
BITMAP
1200
1B00
0000
0E00
0E00
1B00
1B00
1100
3180
3F80
60C0
4040
C060
ENDCHAR
STARTCHAR adieresis.sc
ENCODING -1
SWIDTH 610 0
DWIDTH 11 0
BBX 11 13 0 0
BITMAP
1200
1B00
0000
0E00
0E00
1B00
1B00
1100
3180
3F80
60C0
4040
C060
ENDCHAR
STARTCHAR adieresis.sc.ss01
ENCODING -1
SWIDTH 659 0
DWIDTH 12 0
BBX 9 13 1 0
BITMAP
1200
3600
1E00
7F00
6180
4080
C080
C080
FF80
FF80
C080
C080
C080
ENDCHAR
STARTCHAR uni1EA1.sc
ENCODING -1
SWIDTH 610 0
DWIDTH 11 0
BBX 11 13 0 -3
BITMAP
0E00
0E00
1B00
1B00
1100
3180
3F80
60C0
4040
C060
0000
0C00
0400
ENDCHAR
STARTCHAR uni1EA1.sc.ss01
ENCODING -1
SWIDTH 659 0
DWIDTH 12 0
BBX 9 14 1 -3
BITMAP
1E00
7F00
6180
4080
C080
C080
FF80
FF80
C080
C080
C080
0000
0C00
0C00
ENDCHAR
STARTCHAR agrave.sc
ENCODING -1
SWIDTH 610 0
DWIDTH 11 0
BBX 11 14 0 0
BITMAP
1800
0C00
0600
0000
0E00
0E00
1B00
1B00
1100
3180
3F80
60C0
4040
C060
ENDCHAR
STARTCHAR agrave.sc.ss01
ENCODING -1
SWIDTH 659 0
DWIDTH 12 0
BBX 9 14 1 0
BITMAP
3800
1800
0C00
1E00
7F00
6180
4080
C080
C080
FF80
FF80
C080
C080
C080
ENDCHAR
STARTCHAR uni1EA3.sc
ENCODING -1
SWIDTH 610 0
DWIDTH 11 0
BBX 11 15 0 0
BITMAP
0400
0E00
0200
0600
0000
0E00
0E00
1B00
1B00
1100
3180
3F80
60C0
4040
C060
ENDCHAR
STARTCHAR uni1EA3.sc.ss01
ENCODING -1
SWIDTH 659 0
DWIDTH 12 0
BBX 9 15 1 0
BITMAP
0800
1C00
0600
0400
1E00
7F00
6180
4080
C080
C080
FF80
FF80
C080
C080
C080
ENDCHAR
STARTCHAR uni0203.sc
ENCODING -1
SWIDTH 610 0
DWIDTH 11 0
BBX 11 14 0 0
BITMAP
0400
0E00
1100
0000
0E00
0E00
1B00
1B00
1100
3180
3F80
60C0
4040
C060
ENDCHAR
STARTCHAR uni0203.sc.ss01
ENCODING -1
SWIDTH 659 0
DWIDTH 12 0
BBX 9 14 1 0
BITMAP
0800
1E00
1200
1E00
7F00
6180
4080
C080
C080
FF80
FF80
C080
C080
C080
ENDCHAR
STARTCHAR amacron.sc
ENCODING -1
SWIDTH 610 0
DWIDTH 11 0
BBX 11 13 0 0
BITMAP
1F00
1F00
0000
0E00
0E00
1B00
1B00
1100
3180
3F80
60C0
4040
C060
ENDCHAR
STARTCHAR amacron.sc.ss01
ENCODING -1
SWIDTH 659 0
DWIDTH 12 0
BBX 9 13 1 0
BITMAP
3F00
3F00
1E00
7F00
6180
4080
C080
C080
FF80
FF80
C080
C080
C080
ENDCHAR
STARTCHAR aogonek.sc
ENCODING -1
SWIDTH 610 0
DWIDTH 11 0
BBX 11 14 0 -4
BITMAP
0E00
0E00
1B00
1B00
1100
3180
3F80
60C0
4040
C060
00C0
0080
00E0
00E0
ENDCHAR
STARTCHAR aogonek.sc.ss01
ENCODING -1
SWIDTH 659 0
DWIDTH 12 0
BBX 9 15 1 -4
BITMAP
1E00
7F00
6180
4080
C080
C080
FF80
FF80
C080
C080
C080
0180
0300
0380
0180
ENDCHAR
STARTCHAR aring.sc
ENCODING -1
SWIDTH 610 0
DWIDTH 11 0
BBX 11 16 0 0
BITMAP
0E00
0E00
0E00
0E00
0000
0000
0E00
0E00
1B00
1B00
1100
3180
3F80
60C0
4040
C060
ENDCHAR
STARTCHAR aring.sc.ss01
ENCODING -1
SWIDTH 659 0
DWIDTH 12 0
BBX 9 16 1 0
BITMAP
0C00
1E00
1E00
0C00
0000
1E00
7F00
6180
4080
C080
C080
FF80
FF80
C080
C080
C080
ENDCHAR
STARTCHAR aringacute.sc
ENCODING -1
SWIDTH 610 0
DWIDTH 11 0
BBX 11 19 0 0
BITMAP
0200
0700
0C00
0E00
0E00
0E00
0E00
0000
0000
0E00
0E00
1B00
1B00
1100
3180
3F80
60C0
4040
C060
ENDCHAR
STARTCHAR aringacute.sc.ss01
ENCODING -1
SWIDTH 659 0
DWIDTH 12 0
BBX 9 19 1 0
BITMAP
0200
0600
0800
0C00
1E00
1E00
0C00
0000
1E00
7F00
6180
4080
C080
C080
FF80
FF80
C080
C080
C080
ENDCHAR
STARTCHAR atilde.sc
ENCODING -1
SWIDTH 610 0
DWIDTH 11 0
BBX 11 13 0 0
BITMAP
1D00
1F00
0000
0E00
0E00
1B00
1B00
1100
3180
3F80
60C0
4040
C060
ENDCHAR
STARTCHAR atilde.sc.ss01
ENCODING -1
SWIDTH 659 0
DWIDTH 12 0
BBX 9 13 1 0
BITMAP
1B00
3E00
1E00
7F00
6180
4080
C080
C080
FF80
FF80
C080
C080
C080
ENDCHAR
STARTCHAR ae.sc
ENCODING -1
SWIDTH 864 0
DWIDTH 16 0
BBX 15 10 0 0
BITMAP
03FC
07FC
0D80
0980
19FC
11FC
3F80
7F80
61FE
C1FE
ENDCHAR
STARTCHAR aeacute.sc
ENCODING -1
SWIDTH 864 0
DWIDTH 16 0
BBX 15 14 0 0
BITMAP
0030
0060
00C0
0000
03FC
07FC
0D80
0980
19FC
11FC
3F80
7F80
61FE
C1FE
ENDCHAR
STARTCHAR b.sc
ENCODING -1
SWIDTH 626 0
DWIDTH 11 0
BBX 8 10 2 0
BITMAP
FE
FF
83
83
FC
FF
83
83
FF
FE
ENDCHAR
STARTCHAR c.sc
ENCODING -1
SWIDTH 592 0
DWIDTH 11 0
BBX 9 10 1 0
BITMAP
1E00
7F80
6080
C000
C000
C000
C000
6080
7F80
1E00
ENDCHAR
STARTCHAR cacute.sc
ENCODING -1
SWIDTH 592 0
DWIDTH 11 0
BBX 9 14 1 0
BITMAP
0300
0600
0C00
0000
1E00
7F80
6080
C000
C000
C000
C000
6080
7F80
1E00
ENDCHAR
STARTCHAR ccaron.sc
ENCODING -1
SWIDTH 592 0
DWIDTH 11 0
BBX 9 14 1 0
BITMAP
3300
1A00
0E00
0000
1E00
7F80
6080
C000
C000
C000
C000
6080
7F80
1E00
ENDCHAR
STARTCHAR ccedilla.sc
ENCODING -1
SWIDTH 592 0
DWIDTH 11 0
BBX 9 15 1 -5
BITMAP
1F00
7F80
6080
C000
C000
C000
C000
C000
6180
3F00
0C00
0C00
0200
1E00
0800
ENDCHAR
STARTCHAR uni1E09.sc
ENCODING -1
SWIDTH 592 0
DWIDTH 11 0
BBX 9 19 1 -5
BITMAP
0400
0700
0C00
0000
1F00
7F80
6080
C000
C000
C000
C000
C000
6180
3F00
0C00
0C00
0200
1E00
0800
ENDCHAR
STARTCHAR ccircumflex.sc
ENCODING -1
SWIDTH 592 0
DWIDTH 11 0
BBX 9 14 1 0
BITMAP
0C00
0E00
1B00
2000
1E00
7F80
6080
C000
C000
C000
C000
6080
7F80
1E00
ENDCHAR
STARTCHAR cdotaccent.sc
ENCODING -1
SWIDTH 592 0
DWIDTH 11 0
BBX 9 13 1 0
BITMAP
0C00
0C00
0000
1E00
7F80
6080
C000
C000
C000
C000
6080
7F80
1E00
ENDCHAR
STARTCHAR d.sc
ENCODING -1
SWIDTH 679 0
DWIDTH 12 0
BBX 9 10 2 0
BITMAP
FC00
FF00
8180
8180
8080
8080
8180
8180
FF00
FC00
ENDCHAR
STARTCHAR eth.sc
ENCODING -1
SWIDTH 679 0
DWIDTH 12 0
BBX 10 10 1 0
BITMAP
7E00
7F80
40C0
40C0
FC40
FC40
40C0
40C0
7F80
7E00
ENDCHAR
STARTCHAR dcaron.sc
ENCODING -1
SWIDTH 679 0
DWIDTH 12 0
BBX 9 14 2 0
BITMAP
6400
2C00
3800
0000
FC00
FF00
8180
8180
8080
8080
8180
8180
FF00
FC00
ENDCHAR
STARTCHAR dcroat.sc
ENCODING -1
SWIDTH 689 0
DWIDTH 12 0
BBX 11 10 1 0
BITMAP
7F00
7F80
60C0
6040
FC60
FC60
6040
60C0
7F80
7F00
ENDCHAR
STARTCHAR uni1E0D.sc
ENCODING -1
SWIDTH 679 0
DWIDTH 12 0
BBX 9 13 2 -3
BITMAP
FC00
FF00
8180
8180
8080
8080
8180
8180
FF00
FC00
0000
1800
1800
ENDCHAR
STARTCHAR uni1E0F.sc
ENCODING -1
SWIDTH 679 0
DWIDTH 12 0
BBX 9 13 2 -3
BITMAP
FC00
FF00
8180
8180
8080
8080
8180
8180
FF00
FC00
0000
7C00
7C00
ENDCHAR
STARTCHAR uni01C6.sc
ENCODING -1
SWIDTH 1223 0
DWIDTH 22 0
BBX 19 14 2 0
BITMAP
000CC0
000780
000300
000000
FC1FE0
FF1FE0
8180C0
818180
808380
808300
818600
818C00
FF1FE0
FC1FE0
ENDCHAR
STARTCHAR uni01C6.sc.ss01
ENCODING -1
SWIDTH 1251 0
DWIDTH 23 0
BBX 20 14 2 0
BITMAP
000440
000680
000380
001FF0
FC1FF0
FF0060
8180C0
818180
808FE0
808FE0
818600
818C00
FF1FF0
FC1FF0
ENDCHAR
STARTCHAR e.sc
ENCODING -1
SWIDTH 568 0
DWIDTH 10 0
BBX 7 10 2 0
BITMAP
FE
FE
80
80
FE
FE
80
80
FE
FE
ENDCHAR
STARTCHAR e.sc.ss01
ENCODING -1
SWIDTH 522 0
DWIDTH 9 0
BBX 8 11 1 0
BITMAP
3E
7E
C0
40
7C
3C
C0
C0
C0
FF
3E
ENDCHAR
STARTCHAR eacute.sc
ENCODING -1
SWIDTH 568 0
DWIDTH 10 0
BBX 7 14 2 0
BITMAP
0C
18
30
00
FE
FE
80
80
FE
FE
80
80
FE
FE
ENDCHAR
STARTCHAR eacute.sc.ss01
ENCODING -1
SWIDTH 522 0
DWIDTH 9 0
BBX 8 14 1 0
BITMAP
06
0C
18
3E
7E
C0
40
7C
3C
C0
C0
C0
FF
3E
ENDCHAR
STARTCHAR ebreve.sc
ENCODING -1
SWIDTH 568 0
DWIDTH 10 0
BBX 7 14 2 0
BITMAP
44
7C
38
00
FE
FE
80
80
FE
FE
80
80
FE
FE
ENDCHAR
STARTCHAR ebreve.sc.ss01
ENCODING -1
SWIDTH 522 0
DWIDTH 9 0
BBX 8 14 1 0
BITMAP
26
3C
1C
3E
7E
C0
40
7C
3C
C0
C0
C0
FF
3E
ENDCHAR
STARTCHAR ecaron.sc
ENCODING -1
SWIDTH 568 0
DWIDTH 10 0
BBX 7 14 2 0
BITMAP
44
2C
38
00
FE
FE
80
80
FE
FE
80
80
FE
FE
ENDCHAR
STARTCHAR ecaron.sc.ss01
ENCODING -1
SWIDTH 522 0
DWIDTH 9 0
BBX 8 14 1 0
BITMAP
66
3C
1C
3E
7E
C0
40
7C
3C
C0
C0
C0
FF
3E
ENDCHAR
STARTCHAR uni1E1D.sc
ENCODING -1
SWIDTH 568 0
DWIDTH 10 0
BBX 7 18 2 -4
BITMAP
44
7C
38
00
FE
FE
80
80
FE
FE
80
80
FE
FE
10
18
38
38
ENDCHAR
STARTCHAR uni1E1D.sc.ss01
ENCODING -1
SWIDTH 522 0
DWIDTH 9 0
BBX 8 19 1 -4
BITMAP
24
24
3C
08
3E
7E
C0
40
60
3C
60
C0
C0
F7
7E
08
1C
1C
3C
ENDCHAR
STARTCHAR ecircumflex.sc
ENCODING -1
SWIDTH 568 0
DWIDTH 10 0
BBX 7 14 2 0
BITMAP
10
38
6C
00
FE
FE
80
80
FE
FE
80
80
FE
FE
ENDCHAR
STARTCHAR ecircumflex.sc.ss01
ENCODING -1
SWIDTH 522 0
DWIDTH 9 0
BBX 8 14 1 0
BITMAP
18
1C
76
3E
7E
C0
40
7C
3C
C0
C0
C0
FF
3E
ENDCHAR
STARTCHAR uni1EBF.sc
ENCODING -1
SWIDTH 568 0
DWIDTH 10 0
BBX 7 17 2 0
BITMAP
08
1C
30
00
38
EE
00
FE
FE
80
80
FE
FE
80
80
FE
FE
ENDCHAR
STARTCHAR uni1EBF.sc.ss01
ENCODING -1
SWIDTH 522 0
DWIDTH 9 0
BBX 8 17 1 0
BITMAP
04
0E
18
00
1C
66
3E
7E
C0
40
7C
3C
C0
C0
C0
FF
3E
ENDCHAR
STARTCHAR uni1EC7.sc
ENCODING -1
SWIDTH 568 0
DWIDTH 10 0
BBX 7 17 2 -3
BITMAP
10
38
6C
00
FE
FE
80
80
FE
FE
80
80
FE
FE
00
38
10
ENDCHAR
STARTCHAR uni1EC7.sc.ss01
ENCODING -1
SWIDTH 522 0
DWIDTH 9 0
BBX 8 17 1 -3
BITMAP
18
1C
76
3E
7E
C0
40
7C
3C
C0
C0
C0
FF
3E
00
18
18
ENDCHAR
STARTCHAR uni1EC1.sc
ENCODING -1
SWIDTH 568 0
DWIDTH 10 0
BBX 7 17 2 0
BITMAP
20
70
18
00
38
EE
00
FE
FE
80
80
FE
FE
80
80
FE
FE
ENDCHAR
STARTCHAR uni1EC1.sc.ss01
ENCODING -1
SWIDTH 522 0
DWIDTH 9 0
BBX 8 17 1 0
BITMAP
20
30
08
00
1C
66
3E
7E
C0
40
7C
3C
C0
C0
C0
FF
3E
ENDCHAR
STARTCHAR uni1EC3.sc
ENCODING -1
SWIDTH 568 0
DWIDTH 10 0
BBX 7 17 2 0
BITMAP
38
08
10
00
38
EE
00
FE
FE
80
80
FE
FE
80
80
FE
FE
ENDCHAR
STARTCHAR uni1EC3.sc.ss01
ENCODING -1
SWIDTH 522 0
DWIDTH 9 0
BBX 8 17 1 0
BITMAP
1C
08
08
00
1C
66
3E
7E
C0
40
7C
3C
C0
C0
C0
FF
3E
ENDCHAR
STARTCHAR uni1EC5.sc
ENCODING -1
SWIDTH 568 0
DWIDTH 10 0
BBX 7 16 2 0
BITMAP
74
7C
00
38
EE
00
FE
FE
80
80
FE
FE
80
80
FE
FE
ENDCHAR
STARTCHAR uni1EC5.sc.ss01
ENCODING -1
SWIDTH 522 0
DWIDTH 9 0
BBX 8 16 1 0
BITMAP
32
3E
40
1C
76
3E
7E
C0
40
7C
3C
C0
C0
C0
FF
3E
ENDCHAR
STARTCHAR uni0205.sc
ENCODING -1
SWIDTH 568 0
DWIDTH 10 0
BBX 7 14 2 0
BITMAP
D8
68
4C
00
FE
FE
80
80
FE
FE
80
80
FE
FE
ENDCHAR
STARTCHAR uni0205.sc.ss01
ENCODING -1
SWIDTH 522 0
DWIDTH 9 0
BBX 8 14 1 0
BITMAP
68
2C
36
3E
7E
C0
40
7C
3C
C0
C0
C0
FF
3E
ENDCHAR
STARTCHAR edieresis.sc
ENCODING -1
SWIDTH 568 0
DWIDTH 10 0
BBX 7 13 2 0
BITMAP
44
6C
00
FE
FE
80
80
FE
FE
80
80
FE
FE
ENDCHAR
STARTCHAR edieresis.sc.ss01
ENCODING -1
SWIDTH 522 0
DWIDTH 9 0
BBX 8 13 1 0
BITMAP
24
36
3E
7E
C0
40
7C
3C
C0
C0
C0
FF
3E
ENDCHAR
STARTCHAR edotaccent.sc
ENCODING -1
SWIDTH 568 0
DWIDTH 10 0
BBX 7 13 2 0
BITMAP
18
10
00
FE
FE
80
80
FE
FE
80
80
FE
FE
ENDCHAR
STARTCHAR edotaccent.sc.ss01
ENCODING -1
SWIDTH 522 0
DWIDTH 9 0
BBX 8 13 1 0
BITMAP
18
18
3E
7E
C0
40
7C
3C
C0
C0
C0
FF
3E
ENDCHAR
STARTCHAR uni1EB9.sc
ENCODING -1
SWIDTH 568 0
DWIDTH 10 0
BBX 7 13 2 -3
BITMAP
FE
FE
80
80
FE
FE
80
80
FE
FE
00
38
10
ENDCHAR
STARTCHAR uni1EB9.sc.ss01
ENCODING -1
SWIDTH 522 0
DWIDTH 9 0
BBX 8 14 1 -3
BITMAP
3E
7E
C0
40
7C
3C
C0
C0
C0
FF
3E
00
18
18
ENDCHAR
STARTCHAR egrave.sc
ENCODING -1
SWIDTH 568 0
DWIDTH 10 0
BBX 7 14 2 0
BITMAP
60
30
18
00
FE
FE
80
80
FE
FE
80
80
FE
FE
ENDCHAR
STARTCHAR egrave.sc.ss01
ENCODING -1
SWIDTH 522 0
DWIDTH 9 0
BBX 8 14 1 0
BITMAP
30
18
10
3E
7E
C0
40
7C
3C
C0
C0
C0
FF
3E
ENDCHAR
STARTCHAR uni1EBB.sc
ENCODING -1
SWIDTH 568 0
DWIDTH 10 0
BBX 7 15 2 0
BITMAP
10
38
08
18
00
FE
FE
80
80
FE
FE
80
80
FE
FE
ENDCHAR
STARTCHAR uni1EBB.sc.ss01
ENCODING -1
SWIDTH 522 0
DWIDTH 9 0
BBX 8 15 1 0
BITMAP
08
1C
0C
08
3E
7E
C0
40
7C
3C
C0
C0
C0
FF
3E
ENDCHAR
STARTCHAR uni0207.sc
ENCODING -1
SWIDTH 568 0
DWIDTH 10 0
BBX 7 14 2 0
BITMAP
10
3C
64
00
FE
FE
80
80
FE
FE
80
80
FE
FE
ENDCHAR
STARTCHAR uni0207.sc.ss01
ENCODING -1
SWIDTH 522 0
DWIDTH 9 0
BBX 8 14 1 0
BITMAP
08
3C
26
3E
7E
C0
40
7C
3C
C0
C0
C0
FF
3E
ENDCHAR
STARTCHAR emacron.sc
ENCODING -1
SWIDTH 568 0
DWIDTH 10 0
BBX 7 13 2 0
BITMAP
7C
7C
00
FE
FE
80
80
FE
FE
80
80
FE
FE
ENDCHAR
STARTCHAR emacron.sc.ss01
ENCODING -1
SWIDTH 522 0
DWIDTH 9 0
BBX 8 13 1 0
BITMAP
3E
3E
3E
7E
C0
40
7C
3C
C0
C0
C0
FF
3E
ENDCHAR
STARTCHAR uni1E17.sc
ENCODING -1
SWIDTH 568 0
DWIDTH 10 0
BBX 7 16 2 0
BITMAP
08
1C
30
7C
7C
00
FE
FE
80
80
FE
FE
80
80
FE
FE
ENDCHAR
STARTCHAR uni1E17.sc.ss01
ENCODING -1
SWIDTH 522 0
DWIDTH 9 0
BBX 8 16 1 0
BITMAP
04
0E
10
3C
3C
3E
7E
C0
40
7C
3C
C0
C0
C0
FF
3E
ENDCHAR
STARTCHAR uni1E15.sc
ENCODING -1
SWIDTH 568 0
DWIDTH 10 0
BBX 7 16 2 0
BITMAP
20
70
18
3C
3C
00
FE
FE
80
80
FE
FE
80
80
FE
FE
ENDCHAR
STARTCHAR uni1E15.sc.ss01
ENCODING -1
SWIDTH 522 0
DWIDTH 9 0
BBX 8 16 1 0
BITMAP
10
38
0C
3E
3E
3E
7E
C0
40
7C
3C
C0
C0
C0
FF
3E
ENDCHAR
STARTCHAR eogonek.sc
ENCODING -1
SWIDTH 568 0
DWIDTH 10 0
BBX 7 14 2 -4
BITMAP
FE
FE
80
80
FE
FE
80
80
FE
FE
06
0C
0E
0E
ENDCHAR
STARTCHAR eogonek.sc.ss01
ENCODING -1
SWIDTH 522 0
DWIDTH 9 0
BBX 8 15 1 -4
BITMAP
3E
7E
C0
40
7C
3C
C0
C0
C0
FF
3E
06
04
06
07
ENDCHAR
STARTCHAR uni1EBD.sc
ENCODING -1
SWIDTH 568 0
DWIDTH 10 0
BBX 7 13 2 0
BITMAP
74
7C
00
FE
FE
80
80
FE
FE
80
80
FE
FE
ENDCHAR
STARTCHAR uni1EBD.sc.ss01
ENCODING -1
SWIDTH 522 0
DWIDTH 9 0
BBX 8 13 1 0
BITMAP
3A
3E
7E
7E
C0
40
7C
3C
C0
C0
C0
FF
3E
ENDCHAR
STARTCHAR uni0259.sc
ENCODING -1
SWIDTH 667 0
DWIDTH 12 0
BBX 10 10 1 0
BITMAP
1E00
7F80
40C0
00C0
FFC0
FFC0
C0C0
61C0
7F80
1E00
ENDCHAR
STARTCHAR uni0259.sc.ss01
ENCODING -1
SWIDTH 648 0
DWIDTH 12 0
BBX 10 11 1 0
BITMAP
3E00
7F00
4180
00C0
03C0
1EC0
78C0
C0C0
C180
7F00
3E00
ENDCHAR
STARTCHAR f.sc
ENCODING -1
SWIDTH 514 0
DWIDTH 9 0
BBX 7 10 2 0
BITMAP
FE
FE
80
80
FC
FC
80
80
80
80
ENDCHAR
STARTCHAR f.sc.ss01
ENCODING -1
SWIDTH 478 0
DWIDTH 9 0
BBX 6 11 2 0
BITMAP
7C
FC
C0
80
80
F8
F8
80
80
80
80
ENDCHAR
STARTCHAR g.sc
ENCODING -1
SWIDTH 640 0
DWIDTH 12 0
BBX 9 10 1 0
BITMAP
1F00
7F80
6080
C000
C000
C080
C080
6080
7F80
1F00
ENDCHAR
STARTCHAR g.sc.ss01
ENCODING -1
SWIDTH 646 0
DWIDTH 12 0
BBX 9 11 1 0
BITMAP
1F00
3F80
6080
C000
C000
C000
C080
C080
6080
7F80
1E80
ENDCHAR
STARTCHAR gbreve.sc
ENCODING -1
SWIDTH 640 0
DWIDTH 12 0
BBX 9 14 1 0
BITMAP
1200
1E00
0E00
0000
1F00
7F80
6080
C000
C000
C080
C080
6080
7F80
1F00
ENDCHAR
STARTCHAR gbreve.sc.ss01
ENCODING -1
SWIDTH 646 0
DWIDTH 12 0
BBX 9 14 1 0
BITMAP
1200
1E00
0C00
1F00
3F80
6080
C000
C000
C000
C080
C080
6080
7F80
1E80
ENDCHAR
STARTCHAR gcaron.sc
ENCODING -1
SWIDTH 640 0
DWIDTH 12 0
BBX 9 14 1 0
BITMAP
3300
1E00
0C00
0000
1F00
7F80
6080
C000
C000
C080
C080
6080
7F80
1F00
ENDCHAR
STARTCHAR gcaron.sc.ss01
ENCODING -1
SWIDTH 646 0
DWIDTH 12 0
BBX 9 14 1 0
BITMAP
3300
1E00
0C00
1F00
3F80
6080
C000
C000
C000
C080
C080
6080
7F80
1E80
ENDCHAR
STARTCHAR gcircumflex.sc
ENCODING -1
SWIDTH 640 0
DWIDTH 12 0
BBX 9 14 1 0
BITMAP
0C00
1E00
3300
0000
1F00
7F80
6080
C000
C000
C080
C080
6080
7F80
1F00
ENDCHAR
STARTCHAR gcircumflex.sc.ss01
ENCODING -1
SWIDTH 646 0
DWIDTH 12 0
BBX 9 14 1 0
BITMAP
0C00
1E00
3200
1F00
3F80
6080
C000
C000
C000
C080
C080
6080
7F80
1E80
ENDCHAR
STARTCHAR gcommaaccent.sc
ENCODING -1
SWIDTH 640 0
DWIDTH 12 0
BBX 9 14 1 -4
BITMAP
1F00
7F80
6080
C000
C000
C080
C080
6080
7F80
1F00
0000
0C00
0800
0800
ENDCHAR
STARTCHAR gcommaaccent.sc.ss01
ENCODING -1
SWIDTH 646 0
DWIDTH 12 0
BBX 9 15 1 -4
BITMAP
1F00
3F80
6080
C000
C000
C000
C080
C080
6080
7F80
1E80
0000
0C00
0800
0800
ENDCHAR
STARTCHAR gdotaccent.sc
ENCODING -1
SWIDTH 640 0
DWIDTH 12 0
BBX 9 13 1 0
BITMAP
0C00
0C00
0000
1F00
7F80
6080
C000
C000
C080
C080
6080
7F80
1F00
ENDCHAR
STARTCHAR gdotaccent.sc.ss01
ENCODING -1
SWIDTH 646 0
DWIDTH 12 0
BBX 9 13 1 0
BITMAP
0C00
0C00
1F00
3F80
6080
C000
C000
C000
C080
C080
6080
7F80
1E80
ENDCHAR
STARTCHAR uni1E21.sc
ENCODING -1
SWIDTH 640 0
DWIDTH 12 0
BBX 9 13 1 0
BITMAP
3F00
3F00
0000
1F00
7F80
6080
C000
C000
C080
C080
6080
7F80
1F00
ENDCHAR
STARTCHAR uni1E21.sc.ss01
ENCODING -1
SWIDTH 646 0
DWIDTH 12 0
BBX 9 13 1 0
BITMAP
3F00
3F00
1F00
3F80
6080
C000
C000
C000
C080
C080
6080
7F80
1E80
ENDCHAR
STARTCHAR h.sc
ENCODING -1
SWIDTH 690 0
DWIDTH 12 0
BBX 9 10 2 0
BITMAP
8180
8180
8180
8180
FF80
FF80
8180
8180
8180
8180
ENDCHAR
STARTCHAR hbar.sc
ENCODING -1
SWIDTH 720 0
DWIDTH 13 0
BBX 11 10 1 0
BITMAP
60C0
FFE0
FFE0
60C0
7FC0
7FC0
60C0
60C0
60C0
60C0
ENDCHAR
STARTCHAR uni1E2B.sc
ENCODING -1
SWIDTH 690 0
DWIDTH 12 0
BBX 9 13 2 -3
BITMAP
8180
8180
8180
8180
FF80
FF80
8180
8180
8180
8180
2600
3C00
1C00
ENDCHAR
STARTCHAR hcircumflex.sc
ENCODING -1
SWIDTH 690 0
DWIDTH 12 0
BBX 9 14 2 0
BITMAP
1800
1C00
3600
0000
8180
8180
8180
8180
FF80
FF80
8180
8180
8180
8180
ENDCHAR
STARTCHAR uni1E25.sc
ENCODING -1
SWIDTH 690 0
DWIDTH 12 0
BBX 9 13 2 -3
BITMAP
8180
8180
8180
8180
FF80
FF80
8180
8180
8180
8180
0000
1800
1800
ENDCHAR
STARTCHAR i.sc
ENCODING -1
SWIDTH 289 0
DWIDTH 5 0
BBX 1 10 2 0
BITMAP
80
80
80
80
80
80
80
80
80
80
ENDCHAR
STARTCHAR i.sc.ss01
ENCODING -1
SWIDTH 386 0
DWIDTH 7 0
BBX 5 11 1 0
BITMAP
F8
F8
20
20
20
20
20
20
20
F8
F8
ENDCHAR
STARTCHAR dotlessi.sc
ENCODING -1
SWIDTH 289 0
DWIDTH 5 0
BBX 1 10 2 0
BITMAP
80
80
80
80
80
80
80
80
80
80
ENDCHAR
STARTCHAR dotlessi.sc.ss01
ENCODING -1
SWIDTH 386 0
DWIDTH 7 0
BBX 5 11 1 0
BITMAP
F8
F8
20
20
20
20
20
20
20
F8
F8
ENDCHAR
STARTCHAR iacute.sc
ENCODING -1
SWIDTH 289 0
DWIDTH 5 0
BBX 3 14 2 0
BITMAP
60
C0
80
00
80
80
80
80
80
80
80
80
80
80
ENDCHAR
STARTCHAR iacute.sc.ss01
ENCODING -1
SWIDTH 386 0
DWIDTH 7 0
BBX 5 14 1 0
BITMAP
18
30
60
F8
F8
20
20
20
20
20
20
20
F8
F8
ENDCHAR
STARTCHAR iacute_j.loclNLD.sc
ENCODING -1
SWIDTH 743 0
DWIDTH 13 0
BBX 10 14 2 0
BITMAP
60C0
C180
8300
0000
8FC0
8FC0
80C0
80C0
80C0
80C0
80C0
88C0
8F80
8780
ENDCHAR
STARTCHAR iacute_j.loclNLD.sc.ss01
ENCODING -1
SWIDTH 834 0
DWIDTH 15 0
BBX 12 16 1 -2
BITMAP
1830
3060
6020
F9F0
F9F0
2010
2010
2010
2010
2010
2010
2010
F810
FA30
03F0
01E0
ENDCHAR
STARTCHAR ibreve.sc
ENCODING -1
SWIDTH 289 0
DWIDTH 5 0
BBX 5 14 0 0
BITMAP
88
F8
70
00
20
20
20
20
20
20
20
20
20
20
ENDCHAR
STARTCHAR ibreve.sc.ss01
ENCODING -1
SWIDTH 386 0
DWIDTH 7 0
BBX 5 14 1 0
BITMAP
88
F8
70
F8
F8
20
20
20
20
20
20
20
F8
F8
ENDCHAR
STARTCHAR icircumflex.sc
ENCODING -1
SWIDTH 289 0
DWIDTH 5 0
BBX 5 14 0 0
BITMAP
20
70
D8
00
20
20
20
20
20
20
20
20
20
20
ENDCHAR
STARTCHAR icircumflex.sc.ss01
ENCODING -1
SWIDTH 386 0
DWIDTH 7 0
BBX 5 14 1 0
BITMAP
20
70
D8
F8
F8
20
20
20
20
20
20
20
F8
F8
ENDCHAR
STARTCHAR uni0209.sc
ENCODING -1
SWIDTH 289 0
DWIDTH 5 0
BBX 6 14 -1 0
BITMAP
D8
68
4C
00
10
10
10
10
10
10
10
10
10
10
ENDCHAR
STARTCHAR uni0209.sc.ss01
ENCODING -1
SWIDTH 386 0
DWIDTH 7 0
BBX 6 14 0 0
BITMAP
D8
68
4C
7C
7C
10
10
10
10
10
10
10
7C
7C
ENDCHAR
STARTCHAR idieresis.sc
ENCODING -1
SWIDTH 289 0
DWIDTH 5 0
BBX 5 13 0 0
BITMAP
48
D8
00
20
20
20
20
20
20
20
20
20
20
ENDCHAR
STARTCHAR idieresis.sc.ss01
ENCODING -1
SWIDTH 386 0
DWIDTH 7 0
BBX 5 13 1 0
BITMAP
88
D8
F8
F8
20
20
20
20
20
20
20
F8
F8
ENDCHAR
STARTCHAR uni1E2F.sc
ENCODING -1
SWIDTH 289 0
DWIDTH 5 0
BBX 5 16 0 0
BITMAP
10
38
60
D8
50
00
20
20
20
20
20
20
20
20
20
20
ENDCHAR
STARTCHAR uni1E2F.sc.ss01
ENCODING -1
SWIDTH 386 0
DWIDTH 7 0
BBX 5 17 1 0
BITMAP
10
38
60
00
D8
90
F8
F8
20
20
20
20
20
20
20
F8
F8
ENDCHAR
STARTCHAR i.sc.loclTRK
ENCODING -1
SWIDTH 289 0
DWIDTH 5 0
BBX 2 13 2 0
BITMAP
C0
80
00
80
80
80
80
80
80
80
80
80
80
ENDCHAR
STARTCHAR uni1ECB.sc
ENCODING -1
SWIDTH 289 0
DWIDTH 5 0
BBX 2 13 2 -3
BITMAP
80
80
80
80
80
80
80
80
80
80
00
C0
80
ENDCHAR
STARTCHAR uni1ECB.sc.ss01
ENCODING -1
SWIDTH 386 0
DWIDTH 7 0
BBX 5 14 1 -3
BITMAP
F8
F8
20
20
20
20
20
20
20
F8
F8
00
70
20
ENDCHAR
STARTCHAR igrave.sc
ENCODING -1
SWIDTH 289 0
DWIDTH 5 0
BBX 4 14 0 0
BITMAP
C0
60
30
00
20
20
20
20
20
20
20
20
20
20
ENDCHAR
STARTCHAR igrave.sc.ss01
ENCODING -1
SWIDTH 386 0
DWIDTH 7 0
BBX 5 14 1 0
BITMAP
C0
60
30
F8
F8
20
20
20
20
20
20
20
F8
F8
ENDCHAR
STARTCHAR uni1EC9.sc
ENCODING -1
SWIDTH 289 0
DWIDTH 5 0
BBX 3 15 1 0
BITMAP
40
E0
20
60
00
40
40
40
40
40
40
40
40
40
40
ENDCHAR
STARTCHAR uni1EC9.sc.ss01
ENCODING -1
SWIDTH 386 0
DWIDTH 7 0
BBX 5 15 1 0
BITMAP
20
70
10
30
F8
F8
20
20
20
20
20
20
20
F8
F8
ENDCHAR
STARTCHAR uni020B.sc
ENCODING -1
SWIDTH 289 0
DWIDTH 5 0
BBX 5 14 0 0
BITMAP
20
78
C8
00
20
20
20
20
20
20
20
20
20
20
ENDCHAR
STARTCHAR uni020B.sc.ss01
ENCODING -1
SWIDTH 386 0
DWIDTH 7 0
BBX 5 14 1 0
BITMAP
20
70
88
F8
F8
20
20
20
20
20
20
20
F8
F8
ENDCHAR
STARTCHAR ij.sc
ENCODING -1
SWIDTH 744 0
DWIDTH 13 0
BBX 10 10 2 0
BITMAP
8FC0
8FC0
80C0
80C0
80C0
80C0
80C0
88C0
8F80
8780
ENDCHAR
STARTCHAR ij.sc.ss01
ENCODING -1
SWIDTH 834 0
DWIDTH 15 0
BBX 12 13 1 -2
BITMAP
F9F0
F9F0
2010
2010
2010
2010
2010
2010
2010
F810
FA30
03F0
01E0
ENDCHAR
STARTCHAR imacron.sc
ENCODING -1
SWIDTH 289 0
DWIDTH 5 0
BBX 5 13 0 0
BITMAP
F8
00
00
20
20
20
20
20
20
20
20
20
20
ENDCHAR
STARTCHAR imacron.sc.ss01
ENCODING -1
SWIDTH 386 0
DWIDTH 7 0
BBX 5 13 1 0
BITMAP
F8
F8
F8
F8
20
20
20
20
20
20
20
F8
F8
ENDCHAR
STARTCHAR iogonek.sc
ENCODING -1
SWIDTH 289 0
DWIDTH 5 0
BBX 3 14 0 -4
BITMAP
20
20
20
20
20
20
20
20
20
20
60
C0
C0
E0
ENDCHAR
STARTCHAR iogonek.sc.ss01
ENCODING -1
SWIDTH 386 0
DWIDTH 7 0
BBX 5 15 1 -4
BITMAP
F8
F8
20
20
20
20
20
20
20
F8
F8
60
C0
E0
E0
ENDCHAR
STARTCHAR itilde.sc
ENCODING -1
SWIDTH 289 0
DWIDTH 5 0
BBX 5 13 0 0
BITMAP
E8
F8
00
20
20
20
20
20
20
20
20
20
20
ENDCHAR
STARTCHAR itilde.sc.ss01
ENCODING -1
SWIDTH 386 0
DWIDTH 7 0
BBX 5 13 1 0
BITMAP
E8
F8
F8
F8
20
20
20
20
20
20
20
F8
F8
ENDCHAR
STARTCHAR j.sc
ENCODING -1
SWIDTH 454 0
DWIDTH 8 0
BBX 7 10 0 0
BITMAP
7E
7E
06
06
06
06
06
46
FC
78
ENDCHAR
STARTCHAR j.sc.ss01
ENCODING -1
SWIDTH 448 0
DWIDTH 8 0
BBX 6 13 0 -2
BITMAP
7C
7C
04
04
04
04
04
04
04
04
84
FC
78
ENDCHAR
STARTCHAR jcircumflex.sc
ENCODING -1
SWIDTH 454 0
DWIDTH 8 0
BBX 7 14 0 0
BITMAP
18
3C
66
00
7E
7E
06
06
06
06
06
46
FC
78
ENDCHAR
STARTCHAR jcircumflex.sc.ss01
ENCODING -1
SWIDTH 448 0
DWIDTH 8 0
BBX 7 16 0 -2
BITMAP
18
38
6E
7C
7C
04
04
04
04
04
04
04
04
84
FC
78
ENDCHAR
STARTCHAR k.sc
ENCODING -1
SWIDTH 597 0
DWIDTH 11 0
BBX 9 10 2 0
BITMAP
8300
8600
8C00
9800
B800
F800
CC00
8600
8700
8380
ENDCHAR
STARTCHAR kcommaaccent.sc
ENCODING -1
SWIDTH 597 0
DWIDTH 11 0
BBX 9 14 2 -4
BITMAP
8300
8600
8C00
9800
B800
F800
CC00
8600
8700
8380
0000
1000
3000
3000
ENDCHAR
STARTCHAR kgreenlandic.sc
ENCODING -1
SWIDTH 597 0
DWIDTH 11 0
BBX 9 11 2 0
BITMAP
8300
8600
8C00
9800
9800
B800
FC00
CC00
8600
8300
8380
ENDCHAR
STARTCHAR l.sc
ENCODING -1
SWIDTH 444 0
DWIDTH 8 0
BBX 6 10 2 0
BITMAP
80
80
80
80
80
80
80
80
FC
FC
ENDCHAR
STARTCHAR lacute.sc
ENCODING -1
SWIDTH 444 0
DWIDTH 8 0
BBX 6 14 2 0
BITMAP
60
C0
80
00
80
80
80
80
80
80
80
80
FC
FC
ENDCHAR
STARTCHAR lcaron.sc
ENCODING -1
SWIDTH 444 0
DWIDTH 8 0
BBX 6 11 2 0
BITMAP
04
84
84
84
80
80
80
80
80
FC
FC
ENDCHAR
STARTCHAR lcommaaccent.sc
ENCODING -1
SWIDTH 444 0
DWIDTH 8 0
BBX 6 14 2 -4
BITMAP
80
80
80
80
80
80
80
80
FC
FC
00
30
20
60
ENDCHAR
STARTCHAR ldot.sc
ENCODING -1
SWIDTH 444 0
DWIDTH 8 0
BBX 6 10 2 0
BITMAP
80
80
80
88
88
80
80
80
FC
FC
ENDCHAR
STARTCHAR uni1E37.sc
ENCODING -1
SWIDTH 444 0
DWIDTH 8 0
BBX 6 13 2 -3
BITMAP
80
80
80
80
80
80
80
80
FC
FC
00
30
30
ENDCHAR
STARTCHAR uni01C9.sc
ENCODING -1
SWIDTH 898 0
DWIDTH 16 0
BBX 13 10 2 0
BITMAP
81F8
81F8
8018
8018
8018
8018
8018
8118
FFF0
FDE0
ENDCHAR
STARTCHAR uni01C9.sc.ss01
ENCODING -1
SWIDTH 892 0
DWIDTH 16 0
BBX 12 13 2 -2
BITMAP
01F0
81F0
8010
8010
8010
8010
8010
8010
8010
FC10
FE30
03F0
01E0
ENDCHAR
STARTCHAR uni1E3B.sc
ENCODING -1
SWIDTH 444 0
DWIDTH 8 0
BBX 6 13 2 -3
BITMAP
80
80
80
80
80
80
80
80
FC
FC
00
F8
F8
ENDCHAR
STARTCHAR lslash.sc
ENCODING -1
SWIDTH 463 0
DWIDTH 8 0
BBX 7 10 1 0
BITMAP
60
60
60
78
60
E0
60
60
7E
7E
ENDCHAR
STARTCHAR m.sc
ENCODING -1
SWIDTH 798 0
DWIDTH 14 0
BBX 11 10 2 0
BITMAP
C0E0
C0E0
E1E0
B160
B360
9A60
9E60
8C60
8C60
8060
ENDCHAR
STARTCHAR m.sc.ss01
ENCODING -1
SWIDTH 1022 0
DWIDTH 18 0
BBX 15 11 2 0
BITMAP
9E78
BFFC
C386
C306
8306
8306
8306
8306
8306
8306
8306
ENDCHAR
STARTCHAR uni1E43.sc
ENCODING -1
SWIDTH 798 0
DWIDTH 14 0
BBX 11 13 2 -3
BITMAP
C0E0
C0E0
E1E0
B160
B360
9A60
9E60
8C60
8C60
8060
0000
0C00
0C00
ENDCHAR
STARTCHAR uni1E43.sc.ss01
ENCODING -1
SWIDTH 1022 0
DWIDTH 18 0
BBX 15 14 2 -3
BITMAP
9E78
BFFC
C386
C306
8306
8306
8306
8306
8306
8306
8306
0000
0300
0300
ENDCHAR
STARTCHAR n.sc
ENCODING -1
SWIDTH 691 0
DWIDTH 12 0
BBX 9 10 2 0
BITMAP
C180
E180
E180
B180
9980
8D80
8D80
8780
8380
8180
ENDCHAR
STARTCHAR n.sc.ss01
ENCODING -1
SWIDTH 676 0
DWIDTH 12 0
BBX 9 11 2 0
BITMAP
9E00
BF00
C300
C180
8180
8180
8180
8180
8180
8180
8180
ENDCHAR
STARTCHAR nacute.sc
ENCODING -1
SWIDTH 691 0
DWIDTH 12 0
BBX 9 14 2 0
BITMAP
0600
0C00
1800
0000
C180
E180
E180
B180
9980
8D80
8D80
8780
8380
8180
ENDCHAR
STARTCHAR nacute.sc.ss01
ENCODING -1
SWIDTH 676 0
DWIDTH 12 0
BBX 9 14 2 0
BITMAP
0600
0C00
1800
9E00
BF00
C300
C180
8180
8180
8180
8180
8180
8180
8180
ENDCHAR
STARTCHAR napostrophe.sc
ENCODING -1
SWIDTH 784 0
DWIDTH 14 0
BBX 11 11 1 0
BITMAP
8000
B020
B820
BC20
B620
3320
3320
31A0
30E0
3060
3060
ENDCHAR
STARTCHAR ncaron.sc
ENCODING -1
SWIDTH 691 0
DWIDTH 12 0
BBX 9 14 2 0
BITMAP
2600
3400
1C00
0000
C180
E180
E180
B180
9980
8D80
8D80
8780
8380
8180
ENDCHAR
STARTCHAR ncaron.sc.ss01
ENCODING -1
SWIDTH 676 0
DWIDTH 12 0
BBX 9 14 2 0
BITMAP
2600
3400
1C00
9E00
BF00
C300
C180
8180
8180
8180
8180
8180
8180
8180
ENDCHAR
STARTCHAR ncommaaccent.sc
ENCODING -1
SWIDTH 691 0
DWIDTH 12 0
BBX 9 14 2 -4
BITMAP
C180
E180
E180
B180
9980
8D80
8D80
8780
8380
8180
0000
1800
1800
1000
ENDCHAR
STARTCHAR ncommaaccent.sc.ss01
ENCODING -1
SWIDTH 676 0
DWIDTH 12 0
BBX 9 15 2 -4
BITMAP
9E00
BF00
C300
C180
8180
8180
8180
8180
8180
8180
8180
0000
1800
1000
1000
ENDCHAR
STARTCHAR uni1E45.sc
ENCODING -1
SWIDTH 691 0
DWIDTH 12 0
BBX 9 13 2 0
BITMAP
1800
1800
0000
C180
E180
E180
B180
9980
8D80
8D80
8780
8380
8180
ENDCHAR
STARTCHAR uni1E45.sc.ss01
ENCODING -1
SWIDTH 676 0
DWIDTH 12 0
BBX 9 13 2 0
BITMAP
1800
0800
9E00
BF00
C300
C180
8180
8180
8180
8180
8180
8180
8180
ENDCHAR
STARTCHAR uni1E47.sc
ENCODING -1
SWIDTH 691 0
DWIDTH 12 0
BBX 9 13 2 -3
BITMAP
C180
E180
E180
B180
9980
8D80
8D80
8780
8380
8180
0000
1800
1800
ENDCHAR
STARTCHAR uni1E47.sc.ss01
ENCODING -1
SWIDTH 676 0
DWIDTH 12 0
BBX 9 14 2 -3
BITMAP
9E00
BF00
C300
C180
8180
8180
8180
8180
8180
8180
8180
0000
1800
1800
ENDCHAR
STARTCHAR eng.sc
ENCODING -1
SWIDTH 691 0
DWIDTH 12 0
BBX 9 13 2 -3
BITMAP
C180
E180
E180
B180
9980
8D80
8D80
8780
8380
8180
0180
1F00
1E00
ENDCHAR
STARTCHAR eng.sc.ss01
ENCODING -1
SWIDTH 675 0
DWIDTH 12 0
BBX 9 14 2 -3
BITMAP
9E00
BF00
C300
C180
8180
8180
8180
8180
8180
8180
8180
0180
1F00
1E00
ENDCHAR
STARTCHAR uni01CC.sc
ENCODING -1
SWIDTH 1145 0
DWIDTH 21 0
BBX 17 10 2 0
BITMAP
C18F80
E18F80
E18180
B18180
998180
8D8180
8D8180
879180
839F80
818F00
ENDCHAR
STARTCHAR uni01CC.sc.ss01
ENCODING -1
SWIDTH 1123 0
DWIDTH 20 0
BBX 16 13 2 -2
BITMAP
9E1F
BF1F
C301
C181
8181
8181
8181
8181
8181
8181
8191
003F
001E
ENDCHAR
STARTCHAR uni1E49.sc
ENCODING -1
SWIDTH 691 0
DWIDTH 12 0
BBX 9 13 2 -3
BITMAP
C180
E180
E180
B180
9980
8D80
8D80
8780
8380
8180
0000
3E00
3E00
ENDCHAR
STARTCHAR uni1E49.sc.ss01
ENCODING -1
SWIDTH 676 0
DWIDTH 12 0
BBX 9 14 2 -3
BITMAP
9E00
BF00
C300
C180
8180
8180
8180
8180
8180
8180
8180
0000
3E00
3E00
ENDCHAR
STARTCHAR ntilde.sc
ENCODING -1
SWIDTH 691 0
DWIDTH 12 0
BBX 9 13 2 0
BITMAP
3A00
3E00
0000
C180
E180
E180
B180
9980
8D80
8D80
8780
8380
8180
ENDCHAR
STARTCHAR ntilde.sc.ss01
ENCODING -1
SWIDTH 676 0
DWIDTH 12 0
BBX 9 13 2 0
BITMAP
3A00
3E00
9E00
BF00
C300
C180
8180
8180
8180
8180
8180
8180
8180
ENDCHAR
STARTCHAR o.sc
ENCODING -1
SWIDTH 699 0
DWIDTH 13 0
BBX 11 10 1 0
BITMAP
1F00
7F80
60C0
C060
C060
C060
C060
60C0
7F80
1F00
ENDCHAR
STARTCHAR oacute.sc
ENCODING -1
SWIDTH 699 0
DWIDTH 13 0
BBX 11 14 1 0
BITMAP
0300
0600
0C00
0000
1F00
7F80
60C0
C060
C060
C060
C060
60C0
7F80
1F00
ENDCHAR
STARTCHAR obreve.sc
ENCODING -1
SWIDTH 699 0
DWIDTH 13 0
BBX 11 14 1 0
BITMAP
1100
1F00
0E00
0000
1F00
7F80
60C0
C060
C060
C060
C060
60C0
7F80
1F00
ENDCHAR
STARTCHAR ocircumflex.sc
ENCODING -1
SWIDTH 699 0
DWIDTH 13 0
BBX 11 14 1 0
BITMAP
0C00
0E00
1B00
0000
1F00
7F80
60C0
C060
C060
C060
C060
60C0
7F80
1F00
ENDCHAR
STARTCHAR uni1ED1.sc
ENCODING -1
SWIDTH 699 0
DWIDTH 13 0
BBX 11 17 1 0
BITMAP
0200
0700
0C00
0000
0E00
3B00
0000
1F00
7F80
60C0
C060
C060
C060
C060
60C0
7F80
1F00
ENDCHAR
STARTCHAR uni1ED9.sc
ENCODING -1
SWIDTH 699 0
DWIDTH 13 0
BBX 11 17 1 -3
BITMAP
0C00
0E00
1B00
0000
1F00
7F80
60C0
C060
C060
C060
C060
60C0
7F80
1F00
0000
0C00
0C00
ENDCHAR
STARTCHAR uni1ED3.sc
ENCODING -1
SWIDTH 699 0
DWIDTH 13 0
BBX 11 17 1 0
BITMAP
0800
1C00
0400
0000
0E00
3B00
0000
1F00
7F80
60C0
C060
C060
C060
C060
60C0
7F80
1F00
ENDCHAR
STARTCHAR uni1ED5.sc
ENCODING -1
SWIDTH 699 0
DWIDTH 13 0
BBX 11 17 1 0
BITMAP
0E00
0600
0400
0000
0E00
3B00
0000
1F00
7F80
60C0
C060
C060
C060
C060
60C0
7F80
1F00
ENDCHAR
STARTCHAR uni1ED7.sc
ENCODING -1
SWIDTH 699 0
DWIDTH 13 0
BBX 11 16 1 0
BITMAP
1900
1F00
0000
0E00
3B00
0000
1F00
7F80
60C0
C060
C060
C060
C060
60C0
7F80
1F00
ENDCHAR
STARTCHAR uni020D.sc
ENCODING -1
SWIDTH 699 0
DWIDTH 13 0
BBX 11 14 1 0
BITMAP
3600
1200
1B00
0000
1F00
7F80
60C0
C060
C060
C060
C060
60C0
7F80
1F00
ENDCHAR
STARTCHAR odieresis.sc
ENCODING -1
SWIDTH 699 0
DWIDTH 13 0
BBX 11 13 1 0
BITMAP
1200
1B00
0000
1F00
7F80
60C0
C060
C060
C060
C060
60C0
7F80
1F00
ENDCHAR
STARTCHAR uni022B.sc
ENCODING -1
SWIDTH 699 0
DWIDTH 13 0
BBX 11 16 1 0
BITMAP
1F00
1F00
0000
1B00
1200
0000
1F00
7F80
60C0
C060
C060
C060
C060
60C0
7F80
1F00
ENDCHAR
STARTCHAR uni0231.sc
ENCODING -1
SWIDTH 699 0
DWIDTH 13 0
BBX 11 16 1 0
BITMAP
0F80
0F80
0000
0200
0600
0000
1F00
7F80
60C0
C060
C060
C060
C060
60C0
7F80
1F00
ENDCHAR
STARTCHAR uni1ECD.sc
ENCODING -1
SWIDTH 699 0
DWIDTH 13 0
BBX 11 13 1 -3
BITMAP
1F00
7F80
60C0
C060
C060
C060
C060
60C0
7F80
1F00
0000
0C00
0C00
ENDCHAR
STARTCHAR ograve.sc
ENCODING -1
SWIDTH 699 0
DWIDTH 13 0
BBX 11 14 1 0
BITMAP
1800
0C00
0400
0000
1F00
7F80
60C0
C060
C060
C060
C060
60C0
7F80
1F00
ENDCHAR
STARTCHAR uni1ECF.sc
ENCODING -1
SWIDTH 699 0
DWIDTH 13 0
BBX 11 15 1 0
BITMAP
0400
0E00
0200
0600
0000
1F00
7F80
60C0
C060
C060
C060
C060
60C0
7F80
1F00
ENDCHAR
STARTCHAR ohorn.sc
ENCODING -1
SWIDTH 711 0
DWIDTH 13 0
BBX 11 12 1 0
BITMAP
0060
0020
1F60
7FC0
E0C0
C040
8060
8060
C0C0
E0C0
7F80
1F00
ENDCHAR
STARTCHAR uni1EDB.sc
ENCODING -1
SWIDTH 711 0
DWIDTH 13 0
BBX 11 14 1 0
BITMAP
0300
0600
0C60
0020
1F60
7FC0
E0C0
C040
8060
8060
C0C0
E0C0
7F80
1F00
ENDCHAR
STARTCHAR uni1EE3.sc
ENCODING -1
SWIDTH 712 0
DWIDTH 13 0
BBX 11 15 1 -3
BITMAP
0060
0020
1F60
7FC0
E0C0
C040
8060
8060
C0C0
E0C0
7F80
1F00
0000
0C00
0C00
ENDCHAR
STARTCHAR uni1EDD.sc
ENCODING -1
SWIDTH 711 0
DWIDTH 13 0
BBX 11 14 1 0
BITMAP
1800
0C00
0860
0020
1F60
7FC0
E0C0
C040
8060
8060
C0C0
E0C0
7F80
1F00
ENDCHAR
STARTCHAR uni1EDF.sc
ENCODING -1
SWIDTH 711 0
DWIDTH 13 0
BBX 11 15 1 0
BITMAP
0400
0E00
0600
0460
0020
1F60
7FC0
E0C0
C040
8060
8060
C0C0
E0C0
7F80
1F00
ENDCHAR
STARTCHAR uni1EE1.sc
ENCODING -1
SWIDTH 711 0
DWIDTH 13 0
BBX 11 13 1 0
BITMAP
1900
3F60
0020
1F60
7FC0
E0C0
C040
8060
8060
C0C0
E0C0
7F80
1F00
ENDCHAR
STARTCHAR ohungarumlaut.sc
ENCODING -1
SWIDTH 699 0
DWIDTH 13 0
BBX 11 14 1 0
BITMAP
0D80
1B00
0A00
0000
1F00
7F80
60C0
C060
C060
C060
C060
60C0
7F80
1F00
ENDCHAR
STARTCHAR uni020F.sc
ENCODING -1
SWIDTH 699 0
DWIDTH 13 0
BBX 11 14 1 0
BITMAP
0400
1E00
1300
0000
1F00
7F80
60C0
C060
C060
C060
C060
60C0
7F80
1F00
ENDCHAR
STARTCHAR omacron.sc
ENCODING -1
SWIDTH 699 0
DWIDTH 13 0
BBX 11 13 1 0
BITMAP
1F00
1F00
0000
1F00
7F80
60C0
C060
C060
C060
C060
60C0
7F80
1F00
ENDCHAR
STARTCHAR uni1E53.sc
ENCODING -1
SWIDTH 699 0
DWIDTH 13 0
BBX 11 16 1 0
BITMAP
0200
0700
0C00
1E00
1E00
0000
1F00
7F80
60C0
C060
C060
C060
C060
60C0
7F80
1F00
ENDCHAR
STARTCHAR uni1E51.sc
ENCODING -1
SWIDTH 699 0
DWIDTH 13 0
BBX 11 16 1 0
BITMAP
0800
1C00
0600
1F00
1F00
0000
1F00
7F80
60C0
C060
C060
C060
C060
60C0
7F80
1F00
ENDCHAR
STARTCHAR uni01EB.sc
ENCODING -1
SWIDTH 699 0
DWIDTH 13 0
BBX 11 14 1 -4
BITMAP
1F00
7F80
60C0
C060
C060
C060
C060
60C0
7F80
1F00
0200
0600
0700
0300
ENDCHAR
STARTCHAR oslash.sc
ENCODING -1
SWIDTH 699 0
DWIDTH 13 0
BBX 11 11 1 0
BITMAP
0040
1F80
7F80
61C0
C260
C460
CC60
D860
70C0
7F80
DF00
ENDCHAR
STARTCHAR oslashacute.sc
ENCODING -1
SWIDTH 699 0
DWIDTH 13 0
BBX 11 14 1 0
BITMAP
0300
0600
0C00
0040
1F80
7F80
61C0
C260
C460
CC60
D860
70C0
7F80
DF00
ENDCHAR
STARTCHAR otilde.sc
ENCODING -1
SWIDTH 699 0
DWIDTH 13 0
BBX 11 13 1 0
BITMAP
1D00
1F00
0000
1F00
7F80
60C0
C060
C060
C060
C060
60C0
7F80
1F00
ENDCHAR
STARTCHAR uni1E4D.sc
ENCODING -1
SWIDTH 699 0
DWIDTH 13 0
BBX 11 17 1 0
BITMAP
0200
0700
0C00
0000
1900
1F00
0000
1F00
7F80
60C0
C060
C060
C060
C060
60C0
7F80
1F00
ENDCHAR
STARTCHAR uni1E4F.sc
ENCODING -1
SWIDTH 699 0
DWIDTH 13 0
BBX 11 16 1 0
BITMAP
1B00
1200
0000
1900
1F00
0000
1F00
7F80
60C0
C060
C060
C060
C060
60C0
7F80
1F00
ENDCHAR
STARTCHAR uni022D.sc
ENCODING -1
SWIDTH 699 0
DWIDTH 13 0
BBX 11 16 1 0
BITMAP
1F00
1F00
0000
1900
1F00
0000
1F00
7F80
60C0
C060
C060
C060
C060
60C0
7F80
1F00
ENDCHAR
STARTCHAR oe.sc
ENCODING -1
SWIDTH 924 0
DWIDTH 17 0
BBX 15 10 1 0
BITMAP
1FFE
7FFE
6180
C180
C1FC
C1FC
C180
6180
7FFE
1FFE
ENDCHAR
STARTCHAR p.sc
ENCODING -1
SWIDTH 586 0
DWIDTH 11 0
BBX 8 10 2 0
BITMAP
FC
FE
83
83
83
FE
FC
80
80
80
ENDCHAR
STARTCHAR thorn.sc
ENCODING -1
SWIDTH 590 0
DWIDTH 11 0
BBX 8 10 2 0
BITMAP
80
FC
FE
83
83
83
FE
FC
80
80
ENDCHAR
STARTCHAR q.sc
ENCODING -1
SWIDTH 707 0
DWIDTH 13 0
BBX 11 12 1 -2
BITMAP
1F00
7F80
60C0
C060
C060
C060
C060
60C0
7F80
1F00
03E0
01C0
ENDCHAR
STARTCHAR q.sc.ss01
ENCODING -1
SWIDTH 699 0
DWIDTH 13 0
BBX 11 13 1 -2
BITMAP
0400
3F80
61C0
C0C0
C060
C060
C060
C460
64C0
7780
3F00
0400
0400
ENDCHAR
STARTCHAR r.sc
ENCODING -1
SWIDTH 618 0
DWIDTH 11 0
BBX 8 10 2 0
BITMAP
FC
FF
83
83
83
FE
FC
86
86
83
ENDCHAR
STARTCHAR racute.sc
ENCODING -1
SWIDTH 618 0
DWIDTH 11 0
BBX 8 14 2 0
BITMAP
0C
18
30
00
FC
FF
83
83
83
FE
FC
86
86
83
ENDCHAR
STARTCHAR rcaron.sc
ENCODING -1
SWIDTH 618 0
DWIDTH 11 0
BBX 8 14 2 0
BITMAP
CC
78
30
00
FC
FF
83
83
83
FE
FC
86
86
83
ENDCHAR
STARTCHAR rcommaaccent.sc
ENCODING -1
SWIDTH 618 0
DWIDTH 11 0
BBX 8 14 2 -4
BITMAP
FC
FF
83
83
83
FE
FC
86
86
83
00
18
10
30
ENDCHAR
STARTCHAR uni0211.sc
ENCODING -1
SWIDTH 618 0
DWIDTH 11 0
BBX 8 14 2 0
BITMAP
D0
58
68
00
FC
FF
83
83
83
FE
FC
86
86
83
ENDCHAR
STARTCHAR uni1E5B.sc
ENCODING -1
SWIDTH 618 0
DWIDTH 11 0
BBX 8 13 2 -3
BITMAP
FC
FF
83
83
83
FE
FC
86
86
83
00
18
18
ENDCHAR
STARTCHAR uni0213.sc
ENCODING -1
SWIDTH 618 0
DWIDTH 11 0
BBX 8 14 2 0
BITMAP
10
78
4C
00
FC
FF
83
83
83
FE
FC
86
86
83
ENDCHAR
STARTCHAR uni1E5F.sc
ENCODING -1
SWIDTH 618 0
DWIDTH 11 0
BBX 8 13 2 -3
BITMAP
FC
FF
83
83
83
FE
FC
86
86
83
00
7C
7C
ENDCHAR
STARTCHAR s.sc
ENCODING -1
SWIDTH 538 0
DWIDTH 10 0
BBX 8 10 1 0
BITMAP
3E
7F
C0
E0
78
1E
03
83
FE
7C
ENDCHAR
STARTCHAR sacute.sc
ENCODING -1
SWIDTH 538 0
DWIDTH 10 0
BBX 8 14 1 0
BITMAP
06
0C
18
00
3E
7F
C0
E0
78
1E
03
83
FE
7C
ENDCHAR
STARTCHAR uni1E65.sc
ENCODING -1
SWIDTH 538 0
DWIDTH 10 0
BBX 8 16 1 0
BITMAP
18
18
08
1C
30
00
3E
7F
C0
E0
78
1E
03
83
FE
7C
ENDCHAR
STARTCHAR uniA78C.sc
ENCODING -1
SWIDTH 253 0
DWIDTH 5 0
BBX 2 7 1 6
BITMAP
C0
C0
C0
C0
C0
C0
C0
ENDCHAR
STARTCHAR scaron.sc
ENCODING -1
SWIDTH 538 0
DWIDTH 10 0
BBX 8 14 1 0
BITMAP
66
3C
18
00
3E
7F
C0
E0
78
1E
03
83
FE
7C
ENDCHAR
STARTCHAR uni1E67.sc
ENCODING -1
SWIDTH 538 0
DWIDTH 10 0
BBX 8 15 1 0
BITMAP
18
18
66
1C
00
3E
7F
C0
E0
78
1E
03
83
FE
7C
ENDCHAR
STARTCHAR scedilla.sc
ENCODING -1
SWIDTH 538 0
DWIDTH 10 0
BBX 8 14 1 -4
BITMAP
3E
7F
C0
C0
78
1E
03
83
FE
7C
18
0C
1C
38
ENDCHAR
STARTCHAR scircumflex.sc
ENCODING -1
SWIDTH 538 0
DWIDTH 10 0
BBX 8 14 1 0
BITMAP
18
1C
76
00
3E
7F
C0
E0
78
1E
03
83
FE
7C
ENDCHAR
STARTCHAR scommaaccent.sc
ENCODING -1
SWIDTH 538 0
DWIDTH 10 0
BBX 8 14 1 -4
BITMAP
3E
7F
C0
E0
78
1E
03
83
FE
7C
00
18
10
10
ENDCHAR
STARTCHAR uni1E61.sc
ENCODING -1
SWIDTH 538 0
DWIDTH 10 0
BBX 8 13 1 0
BITMAP
18
18
00
3E
7F
C0
E0
78
1E
03
83
FE
7C
ENDCHAR
STARTCHAR uni1E63.sc
ENCODING -1
SWIDTH 538 0
DWIDTH 10 0
BBX 8 13 1 -3
BITMAP
3E
7F
C0
E0
78
1E
03
83
FE
7C
00
18
18
ENDCHAR
STARTCHAR uni1E69.sc
ENCODING -1
SWIDTH 538 0
DWIDTH 10 0
BBX 8 16 1 -3
BITMAP
18
18
00
3E
7F
C0
E0
78
1E
03
83
FE
7C
00
18
18
ENDCHAR
STARTCHAR germandbls.sc
ENCODING -1
SWIDTH 603 0
DWIDTH 11 0
BBX 9 10 1 0
BITMAP
3E00
7F00
6300
4600
C600
C700
C180
C180
CF80
CF00
ENDCHAR
STARTCHAR t.sc
ENCODING -1
SWIDTH 464 0
DWIDTH 8 0
BBX 8 10 0 0
BITMAP
FF
FF
18
18
18
18
18
18
18
18
ENDCHAR
STARTCHAR t.sc.ss01
ENCODING -1
SWIDTH 493 0
DWIDTH 9 0
BBX 9 11 0 0
BITMAP
3E00
FF80
8880
0800
0800
0800
0800
0800
0800
0800
0800
ENDCHAR
STARTCHAR tbar.sc
ENCODING -1
SWIDTH 464 0
DWIDTH 8 0
BBX 8 10 0 0
BITMAP
FF
FF
18
18
7E
7E
18
18
18
18
ENDCHAR
STARTCHAR tbar.sc.ss01
ENCODING -1
SWIDTH 493 0
DWIDTH 9 0
BBX 9 11 0 0
BITMAP
7E00
FF80
0800
0800
0800
7E00
0800
0800
0800
0800
0800
ENDCHAR
STARTCHAR tcaron.sc
ENCODING -1
SWIDTH 464 0
DWIDTH 8 0
BBX 8 14 0 0
BITMAP
26
34
1C
00
FF
FF
18
18
18
18
18
18
18
18
ENDCHAR
STARTCHAR tcaron.sc.ss01
ENCODING -1
SWIDTH 493 0
DWIDTH 9 0
BBX 9 14 0 0
BITMAP
2200
3400
1C00
3E00
FF80
8880
0800
0800
0800
0800
0800
0800
0800
0800
ENDCHAR
STARTCHAR uni0163.sc
ENCODING -1
SWIDTH 464 0
DWIDTH 8 0
BBX 8 14 0 -4
BITMAP
FF
FF
18
18
18
18
18
18
18
18
08
1C
1C
3C
ENDCHAR
STARTCHAR uni0163.sc.ss01
ENCODING -1
SWIDTH 493 0
DWIDTH 9 0
BBX 9 15 0 -4
BITMAP
3E00
FF80
8880
0800
0800
0800
0800
0800
0800
0800
0800
0800
0C00
1C00
1C00
ENDCHAR
STARTCHAR uni021B.sc
ENCODING -1
SWIDTH 464 0
DWIDTH 8 0
BBX 8 14 0 -4
BITMAP
FF
FF
18
18
18
18
18
18
18
18
00
18
10
10
ENDCHAR
STARTCHAR uni021B.sc.ss01
ENCODING -1
SWIDTH 493 0
DWIDTH 9 0
BBX 9 15 0 -4
BITMAP
3E00
FF80
8880
0800
0800
0800
0800
0800
0800
0800
0800
0000
0800
1800
1000
ENDCHAR
STARTCHAR uni1E97.sc
ENCODING -1
SWIDTH 464 0
DWIDTH 8 0
BBX 8 13 0 0
BITMAP
24
36
00
FF
FF
18
18
18
18
18
18
18
18
ENDCHAR
STARTCHAR uni1E97.sc.ss01
ENCODING -1
SWIDTH 493 0
DWIDTH 9 0
BBX 9 13 0 0
BITMAP
2200
3600
3E00
FF80
8880
0800
0800
0800
0800
0800
0800
0800
0800
ENDCHAR
STARTCHAR uni1E6D.sc
ENCODING -1
SWIDTH 464 0
DWIDTH 8 0
BBX 8 13 0 -3
BITMAP
FF
FF
18
18
18
18
18
18
18
18
00
18
18
ENDCHAR
STARTCHAR uni1E6D.sc.ss01
ENCODING -1
SWIDTH 493 0
DWIDTH 9 0
BBX 9 14 0 -3
BITMAP
3E00
FF80
8880
0800
0800
0800
0800
0800
0800
0800
0800
0000
1800
0800
ENDCHAR
STARTCHAR uni1E6F.sc
ENCODING -1
SWIDTH 464 0
DWIDTH 8 0
BBX 8 13 0 -3
BITMAP
FF
FF
18
18
18
18
18
18
18
18
00
3E
3E
ENDCHAR
STARTCHAR uni1E6F.sc.ss01
ENCODING -1
SWIDTH 493 0
DWIDTH 9 0
BBX 9 14 0 -3
BITMAP
3E00
FF80
8880
0800
0800
0800
0800
0800
0800
0800
0800
0000
3E00
3E00
ENDCHAR
STARTCHAR u.sc
ENCODING -1
SWIDTH 656 0
DWIDTH 12 0
BBX 9 10 1 0
BITMAP
C080
C080
C080
C080
C080
C080
4080
6180
7F00
1E00
ENDCHAR
STARTCHAR u.sc.ss01
ENCODING -1
SWIDTH 676 0
DWIDTH 12 0
BBX 8 11 2 0
BITMAP
81
81
81
81
81
81
81
81
C3
FF
79
ENDCHAR
STARTCHAR uacute.sc
ENCODING -1
SWIDTH 656 0
DWIDTH 12 0
BBX 9 14 1 0
BITMAP
0600
0C00
0400
0000
C080
C080
C080
C080
C080
C080
4080
6180
7F00
1E00
ENDCHAR
STARTCHAR uacute.sc.ss01
ENCODING -1
SWIDTH 676 0
DWIDTH 12 0
BBX 8 14 2 0
BITMAP
0E
0C
18
81
81
81
81
81
81
81
81
C3
FF
79
ENDCHAR
STARTCHAR ubreve.sc
ENCODING -1
SWIDTH 656 0
DWIDTH 12 0
BBX 9 14 1 0
BITMAP
1200
1E00
1C00
0000
C080
C080
C080
C080
C080
C080
4080
6180
7F00
1E00
ENDCHAR
STARTCHAR ubreve.sc.ss01
ENCODING -1
SWIDTH 676 0
DWIDTH 12 0
BBX 8 14 2 0
BITMAP
26
3C
1C
81
81
81
81
81
81
81
81
C3
FF
79
ENDCHAR
STARTCHAR ucircumflex.sc
ENCODING -1
SWIDTH 656 0
DWIDTH 12 0
BBX 9 14 1 0
BITMAP
0C00
1E00
3300
0000
C080
C080
C080
C080
C080
C080
4080
6180
7F00
1E00
ENDCHAR
STARTCHAR ucircumflex.sc.ss01
ENCODING -1
SWIDTH 676 0
DWIDTH 12 0
BBX 8 14 2 0
BITMAP
18
3C
66
81
81
81
81
81
81
81
81
C3
FF
79
ENDCHAR
STARTCHAR uni0215.sc
ENCODING -1
SWIDTH 656 0
DWIDTH 12 0
BBX 9 14 1 0
BITMAP
6C00
3600
1400
0000
C080
C080
C080
C080
C080
C080
4080
6180
7F00
1E00
ENDCHAR
STARTCHAR uni0215.sc.ss01
ENCODING -1
SWIDTH 676 0
DWIDTH 12 0
BBX 8 14 2 0
BITMAP
78
6C
34
81
81
81
81
81
81
81
81
C3
FF
79
ENDCHAR
STARTCHAR udieresis.alt.sc
ENCODING -1
SWIDTH 656 0
DWIDTH 12 0
BBX 9 13 1 0
BITMAP
1200
3600
0000
C080
C080
C080
C080
C080
C080
4080
6180
7F00
1E00
ENDCHAR
STARTCHAR udieresis.sc
ENCODING -1
SWIDTH 656 0
DWIDTH 12 0
BBX 9 13 1 0
BITMAP
1200
3600
0000
C080
C080
C080
C080
C080
C080
4080
6180
7F00
1E00
ENDCHAR
STARTCHAR udieresis.sc.ss01
ENCODING -1
SWIDTH 676 0
DWIDTH 12 0
BBX 8 13 2 0
BITMAP
24
26
81
81
81
81
81
81
81
81
C3
FF
79
ENDCHAR
STARTCHAR udieresis.ss01.alt.sc
ENCODING -1
SWIDTH 656 0
DWIDTH 12 0
BBX 9 13 1 0
BITMAP
1200
3600
0000
C080
C080
C080
C080
C080
C080
4080
6180
7F00
1E00
ENDCHAR
STARTCHAR uni1EE5.sc
ENCODING -1
SWIDTH 656 0
DWIDTH 12 0
BBX 9 13 1 -3
BITMAP
C080
C080
C080
C080
C080
C080
4080
6180
7F00
1E00
0000
0C00
0C00
ENDCHAR
STARTCHAR uni1EE5.sc.ss01
ENCODING -1
SWIDTH 676 0
DWIDTH 12 0
BBX 8 14 2 -3
BITMAP
81
81
81
81
81
81
81
81
C3
FF
79
00
18
18
ENDCHAR
STARTCHAR ugrave.sc
ENCODING -1
SWIDTH 656 0
DWIDTH 12 0
BBX 9 14 1 0
BITMAP
3800
1800
0C00
0000
C080
C080
C080
C080
C080
C080
4080
6180
7F00
1E00
ENDCHAR
STARTCHAR ugrave.sc.ss01
ENCODING -1
SWIDTH 676 0
DWIDTH 12 0
BBX 8 14 2 0
BITMAP
30
18
10
81
81
81
81
81
81
81
81
C3
FF
79
ENDCHAR
STARTCHAR uni1EE7.sc
ENCODING -1
SWIDTH 656 0
DWIDTH 12 0
BBX 9 15 1 0
BITMAP
0800
1C00
0600
0C00
0000
C080
C080
C080
C080
C080
C080
4080
6180
7F00
1E00
ENDCHAR
STARTCHAR uni1EE7.sc.ss01
ENCODING -1
SWIDTH 676 0
DWIDTH 12 0
BBX 8 15 2 0
BITMAP
08
3C
0C
08
91
81
81
81
81
81
81
81
C3
FF
79
ENDCHAR
STARTCHAR uhorn.sc
ENCODING -1
SWIDTH 666 0
DWIDTH 12 0
BBX 11 12 1 0
BITMAP
0060
0060
C0C0
C080
C080
C080
C080
C080
4080
6180
7F80
1E00
ENDCHAR
STARTCHAR uhorn.sc.ss01
ENCODING -1
SWIDTH 683 0
DWIDTH 12 0
BBX 10 13 2 0
BITMAP
0040
0040
81C0
8100
8100
8100
8100
8100
8100
8100
C300
FF00
7900
ENDCHAR
STARTCHAR uni1EE9.sc
ENCODING -1
SWIDTH 666 0
DWIDTH 12 0
BBX 11 14 1 0
BITMAP
0600
0C00
0460
0060
C0C0
C080
C080
C080
C080
C080
4080
6180
7F80
1E00
ENDCHAR
STARTCHAR uni1EE9.sc.ss01
ENCODING -1
SWIDTH 683 0
DWIDTH 12 0
BBX 10 14 2 0
BITMAP
0E00
0C40
1840
81C0
8100
8100
8100
8100
8100
8100
8100
C300
FF00
7900
ENDCHAR
STARTCHAR uni1EF1.sc
ENCODING -1
SWIDTH 666 0
DWIDTH 12 0
BBX 11 15 1 -3
BITMAP
0060
0060
C0C0
C080
C080
C080
C080
C080
4080
6180
7F80
1E00
0000
0C00
0C00
ENDCHAR
STARTCHAR uni1EF1.sc.ss01
ENCODING -1
SWIDTH 683 0
DWIDTH 12 0
BBX 10 16 2 -3
BITMAP
0040
0040
81C0
8100
8100
8100
8100
8100
8100
8100
C300
FF00
7900
0000
1800
1800
ENDCHAR
STARTCHAR uni1EEB.sc
ENCODING -1
SWIDTH 666 0
DWIDTH 12 0
BBX 11 14 1 0
BITMAP
3800
1800
0C60
0060
C0C0
C080
C080
C080
C080
C080
4080
6180
7F80
1E00
ENDCHAR
STARTCHAR uni1EEB.sc.ss01
ENCODING -1
SWIDTH 683 0
DWIDTH 12 0
BBX 10 14 2 0
BITMAP
3000
1840
1040
81C0
8100
8100
8100
8100
8100
8100
8100
C300
FF00
7900
ENDCHAR
STARTCHAR uni1EED.sc
ENCODING -1
SWIDTH 666 0
DWIDTH 12 0
BBX 11 15 1 0
BITMAP
0800
1C00
0600
0C60
0060
C0C0
C080
C080
C080
C080
C080
4080
6180
7F80
1E00
ENDCHAR
STARTCHAR uni1EED.sc.ss01
ENCODING -1
SWIDTH 683 0
DWIDTH 12 0
BBX 10 15 2 0
BITMAP
0800
3C00
0C40
0840
91C0
8100
8100
8100
8100
8100
8100
8100
C300
FF00
7900
ENDCHAR
STARTCHAR uni1EEF.sc
ENCODING -1
SWIDTH 666 0
DWIDTH 12 0
BBX 11 13 1 0
BITMAP
1B00
3E60
0060
C0C0
C080
C080
C080
C080
C080
4080
6180
7F80
1E00
ENDCHAR
STARTCHAR uni1EEF.sc.ss01
ENCODING -1
SWIDTH 683 0
DWIDTH 12 0
BBX 10 13 2 0
BITMAP
3240
7E40
81C0
8100
8100
8100
8100
8100
8100
8100
C300
FF00
7900
ENDCHAR
STARTCHAR uhungarumlaut.sc
ENCODING -1
SWIDTH 656 0
DWIDTH 12 0
BBX 9 14 1 0
BITMAP
1B00
1200
3600
0000
C080
C080
C080
C080
C080
C080
4080
6180
7F00
1E00
ENDCHAR
STARTCHAR uhungarumlaut.sc.ss01
ENCODING -1
SWIDTH 676 0
DWIDTH 12 0
BBX 8 14 2 0
BITMAP
1E
34
2C
81
81
81
81
81
81
81
81
C3
FF
79
ENDCHAR
STARTCHAR uni0217.sc
ENCODING -1
SWIDTH 656 0
DWIDTH 12 0
BBX 9 14 1 0
BITMAP
0800
1E00
1200
0000
C080
C080
C080
C080
C080
C080
4080
6180
7F00
1E00
ENDCHAR
STARTCHAR uni0217.sc.ss01
ENCODING -1
SWIDTH 676 0
DWIDTH 12 0
BBX 8 14 2 0
BITMAP
08
3C
26
81
81
81
81
81
81
81
81
C3
FF
79
ENDCHAR
STARTCHAR umacron.sc
ENCODING -1
SWIDTH 656 0
DWIDTH 12 0
BBX 9 13 1 0
BITMAP
3E00
3E00
0000
C080
C080
C080
C080
C080
C080
4080
6180
7F00
1E00
ENDCHAR
STARTCHAR umacron.sc.ss01
ENCODING -1
SWIDTH 676 0
DWIDTH 12 0
BBX 8 13 2 0
BITMAP
7E
7E
81
81
81
81
81
81
81
81
C3
FF
79
ENDCHAR
STARTCHAR uni1E7B.sc
ENCODING -1
SWIDTH 656 0
DWIDTH 12 0
BBX 9 15 1 0
BITMAP
3600
1200
1E00
1E00
0000
C080
C080
C080
C080
C080
C080
4080
6180
7F00
1E00
ENDCHAR
STARTCHAR uni1E7B.sc.ss01
ENCODING -1
SWIDTH 676 0
DWIDTH 12 0
BBX 8 15 2 0
BITMAP
34
24
3C
3C
81
81
81
81
81
81
81
81
C3
FF
79
ENDCHAR
STARTCHAR uogonek.sc
ENCODING -1
SWIDTH 656 0
DWIDTH 12 0
BBX 9 14 1 -4
BITMAP
C080
C080
C080
C080
C080
C080
4080
6180
7F80
1E00
0600
0400
0600
0700
ENDCHAR
STARTCHAR uogonek.sc.ss01
ENCODING -1
SWIDTH 676 0
DWIDTH 12 0
BBX 8 15 2 -4
BITMAP
81
81
81
81
81
81
81
81
C3
FF
79
03
06
07
03
ENDCHAR
STARTCHAR uring.sc
ENCODING -1
SWIDTH 656 0
DWIDTH 12 0
BBX 9 16 1 0
BITMAP
0C00
1E00
1E00
0C00
0000
0000
C080
C080
C080
C080
C080
C080
4080
6180
7F00
1E00
ENDCHAR
STARTCHAR uring.sc.ss01
ENCODING -1
SWIDTH 676 0
DWIDTH 12 0
BBX 8 16 2 0
BITMAP
18
3C
3C
18
00
81
81
81
81
81
81
81
81
C3
FF
79
ENDCHAR
STARTCHAR utilde.sc
ENCODING -1
SWIDTH 656 0
DWIDTH 12 0
BBX 9 13 1 0
BITMAP
1B00
3E00
0000
C080
C080
C080
C080
C080
C080
4080
6180
7F00
1E00
ENDCHAR
STARTCHAR utilde.sc.ss01
ENCODING -1
SWIDTH 676 0
DWIDTH 12 0
BBX 8 13 2 0
BITMAP
32
7E
81
81
81
81
81
81
81
81
C3
FF
79
ENDCHAR
STARTCHAR uni1E79.sc
ENCODING -1
SWIDTH 656 0
DWIDTH 12 0
BBX 9 17 1 0
BITMAP
0200
0600
0800
0000
1900
3E00
0000
C080
C080
C080
C080
C080
C080
4080
6180
7F00
1E00
ENDCHAR
STARTCHAR uni1E79.sc.ss01
ENCODING -1
SWIDTH 676 0
DWIDTH 12 0
BBX 8 17 2 0
BITMAP
04
0E
18
00
32
7E
81
81
81
81
81
81
81
81
C3
FF
79
ENDCHAR
STARTCHAR v.sc
ENCODING -1
SWIDTH 573 0
DWIDTH 10 0
BBX 10 10 0 0
BITMAP
C0C0
60C0
6180
2180
3100
3300
1A00
1E00
0E00
0C00
ENDCHAR
STARTCHAR w.sc
ENCODING -1
SWIDTH 890 0
DWIDTH 16 0
BBX 16 10 0 0
BITMAP
C183
6182
63C6
63C6
2244
366C
166C
1428
1C38
0C30
ENDCHAR
STARTCHAR w.sc.ss01
ENCODING -1
SWIDTH 999 0
DWIDTH 18 0
BBX 14 11 2 0
BITMAP
8304
8304
8304
8304
8304
8304
8304
8304
C30C
FFFC
7CF8
ENDCHAR
STARTCHAR wacute.sc
ENCODING -1
SWIDTH 890 0
DWIDTH 16 0
BBX 16 14 0 0
BITMAP
00E0
00C0
0180
0000
C183
6182
63C6
63C6
2244
366C
166C
1428
1C38
0C30
ENDCHAR
STARTCHAR wacute.sc.ss01
ENCODING -1
SWIDTH 999 0
DWIDTH 18 0
BBX 14 14 2 0
BITMAP
01C0
0380
0100
8304
8304
8304
8304
8304
8304
8304
8304
C30C
FFFC
7CF8
ENDCHAR
STARTCHAR wcircumflex.sc
ENCODING -1
SWIDTH 890 0
DWIDTH 16 0
BBX 16 14 0 0
BITMAP
0180
03C0
0660
0000
C183
6182
63C6
63C6
2244
366C
166C
1428
1C38
0C30
ENDCHAR
STARTCHAR wcircumflex.sc.ss01
ENCODING -1
SWIDTH 999 0
DWIDTH 18 0
BBX 14 14 2 0
BITMAP
0300
0780
0CC0
8304
8304
8304
8304
8304
8304
8304
8304
C30C
FFFC
7CF8
ENDCHAR
STARTCHAR wdieresis.sc
ENCODING -1
SWIDTH 890 0
DWIDTH 16 0
BBX 16 13 0 0
BITMAP
0240
0260
0000
C183
6182
63C6
63C6
2244
366C
166C
1428
1C38
0C30
ENDCHAR
STARTCHAR wdieresis.sc.ss01
ENCODING -1
SWIDTH 999 0
DWIDTH 18 0
BBX 14 13 2 0
BITMAP
0480
0C80
8304
8304
8304
8304
8304
8304
8304
8304
C30C
FFFC
7CF8
ENDCHAR
STARTCHAR wgrave.sc
ENCODING -1
SWIDTH 890 0
DWIDTH 16 0
BBX 16 14 0 0
BITMAP
0700
0380
0100
0000
C183
6182
63C6
63C6
2244
366C
166C
1428
1C38
0C30
ENDCHAR
STARTCHAR wgrave.sc.ss01
ENCODING -1
SWIDTH 999 0
DWIDTH 18 0
BBX 14 14 2 0
BITMAP
0E00
0700
0200
8304
8304
8304
8304
8304
8304
8304
8304
C30C
FFFC
7CF8
ENDCHAR
STARTCHAR x.sc
ENCODING -1
SWIDTH 549 0
DWIDTH 10 0
BBX 10 10 0 0
BITMAP
E180
6300
3300
1E00
0C00
1C00
1E00
3300
6180
C1C0
ENDCHAR
STARTCHAR y.sc
ENCODING -1
SWIDTH 521 0
DWIDTH 9 0
BBX 9 10 0 0
BITMAP
C180
6180
6300
3200
1600
1C00
0C00
0C00
0C00
0C00
ENDCHAR
STARTCHAR y.sc.ss01
ENCODING -1
SWIDTH 642 0
DWIDTH 12 0
BBX 9 13 1 -2
BITMAP
C180
C180
C180
C180
C180
C180
4380
7F80
3D80
0180
4180
FF00
3E00
ENDCHAR
STARTCHAR yacute.sc
ENCODING -1
SWIDTH 521 0
DWIDTH 9 0
BBX 9 14 0 0
BITMAP
0600
0C00
0400
0000
C180
6180
6300
3200
1600
1C00
0C00
0C00
0C00
0C00
ENDCHAR
STARTCHAR yacute.sc.ss01
ENCODING -1
SWIDTH 642 0
DWIDTH 12 0
BBX 9 16 1 -2
BITMAP
0600
0C00
1800
C180
C180
C180
C180
C180
C180
4380
7F80
3D80
0180
4180
FF00
3E00
ENDCHAR
STARTCHAR ycircumflex.sc
ENCODING -1
SWIDTH 521 0
DWIDTH 9 0
BBX 9 14 0 0
BITMAP
0C00
1C00
3600
0000
C180
6180
6300
3200
1600
1C00
0C00
0C00
0C00
0C00
ENDCHAR
STARTCHAR ycircumflex.sc.ss01
ENCODING -1
SWIDTH 642 0
DWIDTH 12 0
BBX 9 16 1 -2
BITMAP
0800
1C00
3600
C180
C180
C180
C180
C180
C180
4380
7F80
3D80
0180
4180
FF00
3E00
ENDCHAR
STARTCHAR ydieresis.sc
ENCODING -1
SWIDTH 521 0
DWIDTH 9 0
BBX 9 13 0 0
BITMAP
1200
3600
0000
C180
6180
6300
3200
1600
1C00
0C00
0C00
0C00
0C00
ENDCHAR
STARTCHAR ydieresis.sc.ss01
ENCODING -1
SWIDTH 642 0
DWIDTH 12 0
BBX 9 15 1 -2
BITMAP
1200
3600
C180
C180
C180
C180
C180
C180
4380
7F80
3D80
0180
4180
FF00
3E00
ENDCHAR
STARTCHAR uni1E8F.sc
ENCODING -1
SWIDTH 521 0
DWIDTH 9 0
BBX 9 13 0 0
BITMAP
0C00
0C00
0000
C180
6180
6300
3200
1600
1C00
0C00
0C00
0C00
0C00
ENDCHAR
STARTCHAR uni1E8F.sc.ss01
ENCODING -1
SWIDTH 642 0
DWIDTH 12 0
BBX 9 15 1 -2
BITMAP
0C00
0800
C180
C180
C180
C180
C180
C180
4380
7F80
3D80
0180
4180
FF00
3E00
ENDCHAR
STARTCHAR uni1EF5.sc
ENCODING -1
SWIDTH 521 0
DWIDTH 9 0
BBX 9 13 0 -3
BITMAP
C180
6180
6300
3200
1600
1C00
0C00
0C00
0C00
0C00
0000
0C00
0C00
ENDCHAR
STARTCHAR uni1EF5.sc.ss01
ENCODING -1
SWIDTH 642 0
DWIDTH 12 0
BBX 9 15 1 -4
BITMAP
C180
C180
C180
C180
C180
C180
4380
7F80
3D80
0180
4180
FF00
3E00
0C00
0C00
ENDCHAR
STARTCHAR ygrave.sc
ENCODING -1
SWIDTH 521 0
DWIDTH 9 0
BBX 9 14 0 0
BITMAP
3000
1800
0C00
0000
C180
6180
6300
3200
1600
1C00
0C00
0C00
0C00
0C00
ENDCHAR
STARTCHAR ygrave.sc.ss01
ENCODING -1
SWIDTH 642 0
DWIDTH 12 0
BBX 9 16 1 -2
BITMAP
3000
1800
0C00
C180
C180
C180
C180
C180
C180
4380
7F80
3D80
0180
4180
FF00
3E00
ENDCHAR
STARTCHAR uni1EF7.sc
ENCODING -1
SWIDTH 521 0
DWIDTH 9 0
BBX 9 15 0 0
BITMAP
0800
1C00
0400
0C00
0000
C180
6180
6300
3200
1600
1C00
0C00
0C00
0C00
0C00
ENDCHAR
STARTCHAR uni1EF7.sc.ss01
ENCODING -1
SWIDTH 642 0
DWIDTH 12 0
BBX 9 17 1 -2
BITMAP
0800
1C00
0400
0C00
C180
C180
C180
C180
C180
C180
4380
7F80
3D80
0180
4180
FF00
3E00
ENDCHAR
STARTCHAR uni0233.sc
ENCODING -1
SWIDTH 521 0
DWIDTH 9 0
BBX 9 13 0 0
BITMAP
3E00
3E00
0000
C180
6180
6300
3200
1600
1C00
0C00
0C00
0C00
0C00
ENDCHAR
STARTCHAR uni0233.sc.ss01
ENCODING -1
SWIDTH 642 0
DWIDTH 12 0
BBX 9 15 1 -2
BITMAP
3E00
3E00
C180
C180
C180
C180
C180
C180
4380
7F80
3D80
0180
4180
FF00
3E00
ENDCHAR
STARTCHAR uni1EF9.sc
ENCODING -1
SWIDTH 521 0
DWIDTH 9 0
BBX 9 13 0 0
BITMAP
3A00
3E00
0000
C180
6180
6300
3200
1600
1C00
0C00
0C00
0C00
0C00
ENDCHAR
STARTCHAR uni1EF9.sc.ss01
ENCODING -1
SWIDTH 642 0
DWIDTH 12 0
BBX 9 15 1 -2
BITMAP
3A00
3E00
C180
C180
C180
C180
C180
C180
4380
7F80
3D80
0180
4180
FF00
3E00
ENDCHAR
STARTCHAR z.sc
ENCODING -1
SWIDTH 544 0
DWIDTH 10 0
BBX 8 10 1 0
BITMAP
FF
FF
06
0C
18
30
30
60
FF
FF
ENDCHAR
STARTCHAR z.sc.ss01
ENCODING -1
SWIDTH 572 0
DWIDTH 10 0
BBX 9 11 1 0
BITMAP
FF00
FF00
0300
0600
0C00
7E00
7E00
3000
6000
FF80
FF80
ENDCHAR
STARTCHAR zacute.sc
ENCODING -1
SWIDTH 544 0
DWIDTH 10 0
BBX 8 14 1 0
BITMAP
0E
18
08
00
FF
FF
06
0C
18
30
30
60
FF
FF
ENDCHAR
STARTCHAR zacute.sc.ss01
ENCODING -1
SWIDTH 572 0
DWIDTH 10 0
BBX 9 14 1 0
BITMAP
0600
0C00
1800
FF00
FF00
0300
0600
0C00
7E00
7E00
3000
6000
FF80
FF80
ENDCHAR
STARTCHAR zcaron.sc
ENCODING -1
SWIDTH 544 0
DWIDTH 10 0
BBX 8 14 1 0
BITMAP
66
3C
18
00
FF
FF
06
0C
18
30
30
60
FF
FF
ENDCHAR
STARTCHAR zcaron.sc.ss01
ENCODING -1
SWIDTH 572 0
DWIDTH 10 0
BBX 9 14 1 0
BITMAP
6600
3C00
1800
FF00
FF00
0300
0600
0C00
7E00
7E00
3000
6000
FF80
FF80
ENDCHAR
STARTCHAR zdotaccent.sc
ENCODING -1
SWIDTH 544 0
DWIDTH 10 0
BBX 8 13 1 0
BITMAP
18
18
00
FF
FF
06
0C
18
30
30
60
FF
FF
ENDCHAR
STARTCHAR zdotaccent.sc.ss01
ENCODING -1
SWIDTH 572 0
DWIDTH 10 0
BBX 9 13 1 0
BITMAP
1800
1800
FF00
FF00
0300
0600
0C00
7E00
7E00
3000
6000
FF80
FF80
ENDCHAR
STARTCHAR uni1E93.sc
ENCODING -1
SWIDTH 544 0
DWIDTH 10 0
BBX 8 13 1 -3
BITMAP
FF
FF
06
0C
18
30
30
60
FF
FF
00
18
18
ENDCHAR
STARTCHAR uni1E93.sc.ss01
ENCODING -1
SWIDTH 572 0
DWIDTH 10 0
BBX 9 14 1 -3
BITMAP
FF00
FF00
0300
0600
0C00
7E00
7E00
3000
6000
FF80
FF80
0000
1800
1800
ENDCHAR
STARTCHAR zero.osf
ENCODING -1
SWIDTH 699 0
DWIDTH 13 0
BBX 11 12 1 0
BITMAP
0400
3F00
6180
40C0
C0C0
C040
C060
C040
C0C0
60C0
3F80
1F00
ENDCHAR
STARTCHAR one.osf
ENCODING -1
SWIDTH 354 0
DWIDTH 6 0
BBX 4 11 0 0
BITMAP
F0
F0
10
10
10
10
10
10
10
10
10
ENDCHAR
STARTCHAR two.osf
ENCODING -1
SWIDTH 539 0
DWIDTH 10 0
BBX 8 12 1 0
BITMAP
10
FE
C6
02
06
06
0C
18
30
60
FF
FF
ENDCHAR
STARTCHAR three.osf
ENCODING -1
SWIDTH 546 0
DWIDTH 10 0
BBX 9 13 0 -2
BITMAP
7F00
7F00
0600
0C00
1800
1E00
1F00
0180
0180
0180
4180
FF00
3E00
ENDCHAR
STARTCHAR four.osf
ENCODING -1
SWIDTH 577 0
DWIDTH 10 0
BBX 10 13 0 -2
BITMAP
0600
0C00
0800
1800
3000
3100
6100
6100
FFC0
FFC0
0100
0100
0100
ENDCHAR
ENDFONT
